<?xml version="1.0" standalone="no"?>
<!DOCTYPE svg PUBLIC "-//W3C//DTD SVG 1.1//EN" "http://www.w3.org/Graphics/SVG/1.1/DTD/svg11.dtd" >
<svg>
<metadata>
Created by FontForge 20090622 at Thu May 12 03:54:52 2016
 By deploy user
Copyright (c) iannnnn, 2005. All rights reserved.
</metadata>
<defs>
<font id="2005_iannnnnGMO" horiz-adv-x="0" >
  <font-face 
    font-family="2005_iannnnnGMO"
    font-weight="400"
    font-stretch="normal"
    units-per-em="2048"
    panose-1="2 0 0 0 0 0 0 0 0 0"
    ascent="1638"
    descent="-410"
    x-height="596"
    cap-height="878"
    bbox="-829 -608 1577.69 1582"
    underline-thickness="52"
    underline-position="-84"
    unicode-range="U+0020-U+25CC"
  />
<missing-glyph horiz-adv-x="804" 
d="M130 907q131 15 261 27t261 19q8 6 17 6t17 -4.5t13.5 -13.5t5.5 -22q-10 -69 -10 -140t-1 -142q0 -55 -0.5 -94t-0.5 -73.5v-70.5v-85v-207q6 -9 5.5 -21.5t-11.5 -23.5q-1 -1 -2 -1.5t-3 -2.5q-19 -11 -32 -7q-7 -6 -20 -9q-52 1 -103.5 4.5t-104.5 3.5
q-29 0 -53.5 -1.5t-54.5 -6.5q-12 -2 -29.5 -9t-37 -14t-38.5 -11t-33.5 -0.5t-23 17t-5.5 43.5q2 17 3.5 24.5t3.5 24.5q3 17 7.5 38t0.5 39q-7 35 -11 63l-9 64q-5 45 -8.5 95.5l-6.5 94.5l-9.5 169t-4.5 169q-13 13 -9 31t26 27zM220 87q48 19 98 26t101.5 7t103 -4
t101.5 -5v211v85.5v71t0.5 73.5t0.5 94q1 59 0.5 118t4.5 118q-113 -7 -224.5 -17t-223.5 -22q0 -159 10 -319.5t38 -317.5q5 -24 1 -49l-8 -49q-2 -7 -2 -11.5t-1 -9.5z" />
    <glyph glyph-name="quotedblleft" unicode="&#x91;&#x91;" horiz-adv-x="622" 
d="M225 788q-14 7 -26 7q-15 0 -29 -11q-12 -8 -12 -20t14 -28q15 -17 32 -17q13 0 27 10q14 11 14 25q0 15 -20 34zM192 837q88 2 102 -57q4 -17 4 -33q0 -35 -21 -58q-32 -32 -74 -35h-7q-39 0 -75 26q-37 26 -37 110v11q2 93 135 181l57 -62q-74 -43 -84 -83zM463 782
q-14 7 -26 7q-15 0 -29 -11q-12 -8 -12 -20t14 -28q15 -17 32 -17q13 0 27 10q14 11 14 25q0 15 -20 34zM430 831q88 2 102 -57q4 -17 4 -33q0 -35 -21 -58q-32 -32 -74 -35h-7q-39 0 -75 26q-37 26 -37 110v11q2 93 135 181l59 -62q-76 -43 -86 -83z" />
    <glyph glyph-name="quotedblright" unicode="&#x92;&#x92;" horiz-adv-x="616" 
d="M395 852q14 -7 26 -7q15 0 29 11q12 8 12 20t-14 28q-15 17 -32 17q-13 0 -27 -10q-14 -11 -14 -25q0 -15 20 -34zM428 803q-88 -2 -102 57q-4 17 -4 33q0 35 21 58q32 32 74 35h7q39 0 75 -26q37 -26 37 -110v-11q-2 -93 -135 -181l-57 62q74 43 84 83zM157 858
q14 -7 26 -7q15 0 29 11q12 8 12 20t-14 28q-15 17 -32 17q-13 0 -27 -10q-14 -11 -14 -25q0 -15 20 -34zM190 809q-88 -2 -102 57q-4 17 -4 33q0 35 21 58q32 32 74 35h7q39 0 75 -26q37 -26 37 -110v-11q-2 -93 -135 -181l-59 62q76 43 86 83z" />
    <glyph glyph-name="rulakkhangyao" unicode="&#xc4;&#xd2;" horiz-adv-x="1240" 
d="M983 -208q52 636 17 751t-147 107t-140.5 -54t-30 -88.5t-1.5 -71.5q0 -218 -37 -682l-134 13q57 539 50.5 668.5t-17.5 151.5q-45 90 -169 108.5t-172 -47.5l142 -20l6 -108q-90 -31 -117 -80.5t-32 -106.5t11 -135q54 37 99 19.5t61 -60t3 -85.5t-51 -59.5t-100 -7
t-99 101t-31 240.5t170 214l-186 24l-2 80q78 93 189 119q43 10 88 10q73 0 154 -25q72 -23 120 -104q73 99 199 111q20 0 40 -2q113 -10 182 -75t84 -176q8 -57 8 -201q0 -133 -27 -538zM313 126q0 14 -14 25q-14 10 -27 10q-17 0 -32 -17q-14 -16 -14 -28q0 -13 12 -21
q14 -11 29 -11q12 0 26 7q20 20 20 35z" />
    <glyph glyph-name="lulakkhangyao" unicode="&#xc6;&#xd2;" horiz-adv-x="1261" 
d="M991 -210q52 636 17 751t-144 124t-142 -69t-28.5 -133.5t4.5 -173.5q0 -195 -8 -489l-120 12q19 486 9.5 637t-15.5 166q-34 77 -140 92t-178 -97l180 -34v-98q-116 -28 -108 -184t-3 -212t-78 -77t-119 17t-53 82v3q0 42 29 86q30 45 126 19q-14 144 -3 206t91 102
l-202 34q84 200 177 234q53 19 119 19q52 0 111 -11q92 -18 150 -118q37 92 171 96q20 0 40 -2q113 -10 182 -75t84 -176q8 -57 8 -201q0 -133 -27 -538zM225 115q0 14 -14 25q-14 10 -27 10q-17 0 -32 -17q-14 -16 -14 -28t12 -20q14 -11 29 -11q12 0 26 7q20 19 20 34z
" />
    <glyph glyph-name="copyright" unicode="&#x3b;&#x3b;For&#x20;Education&#x20;Used&#x20;Only&#x3b;&#x3b;" horiz-adv-x="625" 
d="M98 329q-4 12 -4 32q0 75 67 158q56 67 135 67q39 0 83 -16q130 -47 166 -170q8 -28 8 -51q0 -87 -99 -147q-71 -47 -138 -47q-48 0 -95 28q-107 55 -123 146zM246 230q35 -20 70 -20q51 0 103 35q73 43 73 108q0 17 -6 38q-26 90 -122 125q-32 12 -62 12q-58 0 -99 -49
q-50 -62 -50 -117q0 -15 3 -24q12 -68 90 -108zM387 373q0 4 -8 11t-20.5 13.5t-27 9.5t-26.5 -1q-7 -3 -13.5 -13t-9.5 -21.5t-0.5 -22.5t12.5 -15q13 -5 25 -4.5t24 3.5t24 6.5t25 4.5q2 -17 2.5 -34.5t2.5 -35.5q-19 -2 -37 -7t-36 -7.5t-36 0.5t-37 18q-18 15 -28 37
t-11 46t7 47t26 39l16 15.5t19 9.5q16 4 28.5 5t24 -1t23.5 -7t26 -12q16 -8 28 -15.5t15 -26.5z" />
    <glyph glyph-name="registered" unicode="&#x3b;&#x3b;Registered&#x3b;&#x3b;" horiz-adv-x="625" 
d="M98 329q-4 12 -4 32q0 75 67 158q56 67 135 67q39 0 83 -16q130 -47 166 -170q8 -28 8 -51q0 -87 -99 -147q-71 -47 -138 -47q-48 0 -95 28q-107 55 -123 146zM246 230q35 -20 70 -20q51 0 103 35q73 43 73 108q0 17 -6 38q-26 90 -122 125q-32 12 -62 12q-58 0 -99 -49
q-50 -62 -50 -117q0 -15 3 -24q12 -68 90 -108zM356 474q22 0 41.5 -6.5t30 -19t9.5 -31.5t-20 -43q-8 -9 -19.5 -14.5t-26.5 -9.5q6 -5 13.5 -13.5t16 -17t15.5 -16.5t12 -13q-12 -9 -21.5 -17.5l-21.5 -18.5q-8 9 -21 21.5t-28 25l-29.5 24.5t-26.5 19q1 -14 0.5 -35.5
t0.5 -34.5q-14 -2 -28.5 -0.5t-29.5 2.5v45.5t1 52t1.5 52t1.5 46.5zM279 373q21 -1 47.5 1.5t40.5 12.5q24 15 18 24t-25.5 12.5t-44 3.5t-38.5 -2z" />
    <glyph glyph-name="trademark" unicode="&#x3b;&#x3b;Trademark&#x3b;&#x3b;" horiz-adv-x="793" 
d="M394 540l12 293l78 19l96 -96l92 92l48 -20v-278h-90l9 179l-82 -79l-72 109q-5 -18 -4 -44.5t2.5 -55t2.5 -55t-3 -43.5zM74 789l300 50l11 -83l-115 -14v-192h-80v178l-104 -17z" />
    <glyph glyph-name="multiply" unicode="&#x3b;&#x3b;Multiply&#x3b;&#x3b;" horiz-adv-x="600" 
d="M103 500l92 92l104 -140l104 116l120 -89l-144 -115l149 -172l-112 -66l-121 158l-116 -140l-104 84l144 140z" />
    <glyph glyph-name="divide" unicode="&#x3b;&#x3b;Divide&#x3b;&#x3b;" horiz-adv-x="634" 
d="M88 414l438 -4v-106l-436 2zM275 555q14 17 34 17q10 0 21 -4q33 -12 42 -43t-23 -50.5t-59 -5t-31.5 37t16.5 48.5zM266 248q14 17 34 17q10 0 21 -4q33 -12 42 -43t-23 -50q-18 -12 -35 -12q-12 0 -24 7q-27 14 -31.5 36.5t16.5 48.5z" />
    <glyph glyph-name=".notdef" horiz-adv-x="804" 
d="M130 907q131 15 261 27t261 19q8 6 17 6t17 -4.5t13.5 -13.5t5.5 -22q-10 -69 -10 -140t-1 -142q0 -55 -0.5 -94t-0.5 -73.5v-70.5v-85v-207q6 -9 5.5 -21.5t-11.5 -23.5q-1 -1 -2 -1.5t-3 -2.5q-19 -11 -32 -7q-7 -6 -20 -9q-52 1 -103.5 4.5t-104.5 3.5
q-29 0 -53.5 -1.5t-54.5 -6.5q-12 -2 -29.5 -9t-37 -14t-38.5 -11t-33.5 -0.5t-23 17t-5.5 43.5q2 17 3.5 24.5t3.5 24.5q3 17 7.5 38t0.5 39q-7 35 -11 63l-9 64q-5 45 -8.5 95.5l-6.5 94.5l-9.5 169t-4.5 169q-13 13 -9 31t26 27zM220 87q48 19 98 26t101.5 7t103 -4
t101.5 -5v211v85.5v71t0.5 73.5t0.5 94q1 59 0.5 118t4.5 118q-113 -7 -224.5 -17t-223.5 -22q0 -159 10 -319.5t38 -317.5q5 -24 1 -49l-8 -49q-2 -7 -2 -11.5t-1 -9.5z" />
    <glyph glyph-name=".null" 
 />
    <glyph glyph-name="nonmarkingreturn" horiz-adv-x="500" 
 />
    <glyph glyph-name="space" unicode=" " horiz-adv-x="500" 
 />
    <glyph glyph-name="exclam" unicode="!" horiz-adv-x="330" 
d="M84 876l132 -4l-12 -666h-86zM212 117q11 -17 11 -35q0 -12 -5 -25q-13 -33 -50 -35h-7q-32 0 -47 18q-16 20 -19 49t21 46.5t50.5 13.5t45.5 -32z" />
    <glyph glyph-name="quotedbl" unicode="&#x22;" horiz-adv-x="509" 
d="M417 1025l-15 -251l-113 11l13 252zM214 1023v-250h-117l-8 250h125z" />
    <glyph glyph-name="numbersign" unicode="#" horiz-adv-x="844" 
d="M94 256h100v152h-108v113h108v176h132v-176h190l4 146h113l-4 -146h114v-113h-114v-152h112v-100h-112v-142h-113v142h-190v-118h-132v118h-100v100zM326 256h190v152h-190v-152z" />
    <glyph glyph-name="dollar" unicode="$" horiz-adv-x="694" 
d="M276 695q-90 -41 -69 -122t77 -83zM500 548q-52 108 -133 145l8 -222q73 -7 134 -49t86 -117q11 -33 11 -68q0 -44 -17 -89q-31 -82 -157 -117l-52 -10l4 -62h-88l-5 56q-31 -4 -66 7q-81 26 -121 81t-40 193h124q-40 -138 101 -162l-2 240q-159 40 -180 119t-7 173
t182 127l1 63l78 -1l7 -61q167 -28 244 -208zM383 130q27 6 78 34t24 101t-108 97z" />
    <glyph glyph-name="percent" unicode="%" horiz-adv-x="616" 
d="M76 144l386 410l86 -76l-392 -418zM105 511q14 17 34 17q10 0 21 -4q33 -12 42 -43t-23 -50.5t-59 -5t-31.5 37t16.5 48.5zM450 180q14 17 34 17q10 0 21 -4q33 -12 42 -43q2 -7 2 -13q0 -22 -25 -37q-18 -12 -35 -12q-12 0 -24 7q-27 14 -31.5 36.5t16.5 48.5z" />
    <glyph glyph-name="ampersand" unicode="&#x26;" horiz-adv-x="822" 
d="M700 -4l-124 124q-86 -88 -213 -103t-208 33q-78 46 -78 161v9q3 122 137 190q-116 62 -127 173q-1 9 -1 18q0 98 110 156q68 36 131 36q47 0 92 -21q103 -48 116 -136t-119 -232l158 -122l74 102l94 -78l-86 -104l120 -116zM322 470q114 100 92 159t-89 63t-103 -34
t-29 -72t129 -116zM493 189l-175 155q-132 -74 -133 -128t43 -80t111 -15t154 68z" />
    <glyph glyph-name="quotesingle" unicode="'" horiz-adv-x="388" 
d="M157 846q14 -7 26 -7q15 0 29 11q12 8 12 20t-14 28q-15 17 -32 17q-13 0 -27 -10q-14 -11 -14 -25q0 -15 20 -34zM190 797q-88 -2 -102 57q-4 17 -4 33q0 35 21 58q32 32 74 35h7q39 0 75 -26q37 -26 37 -110v-11q-2 -93 -135 -181l-73 68q90 37 100 77z" />
    <glyph glyph-name="parenleft" unicode="(" horiz-adv-x="442" 
d="M367 822q-165 -204 -163 -415.5t142 -404.5l-129 -45q-139 198 -146 440q-1 10 -1 20q0 232 159 467z" />
    <glyph glyph-name="parenright" unicode=")" horiz-adv-x="442" 
d="M208 884q159 -235 159 -467q0 -10 -1 -20q-7 -242 -146 -440l-129 45q140 193 142 404.5t-163 415.5z" />
    <glyph glyph-name="asterisk" unicode="*" horiz-adv-x="506" 
d="M279 1009l7 -108l110 47l32 -102l-106 -34l81 -88l-74 -62l-73 85l-59 -93l-97 39l66 103l-108 42l22 101l100 -31l-6 98z" />
    <glyph glyph-name="plus" unicode="+" horiz-adv-x="590" 
d="M224 382l4 162l120 -4l2 -160l154 4l2 -114l-160 6l-2 -152l-120 2l4 150l-144 8l2 100z" />
    <glyph glyph-name="comma" unicode="," horiz-adv-x="354" 
d="M149 56q14 -7 26 -7q15 0 29 11q12 8 12 20t-14 28q-15 17 -32 17q-13 0 -27 -10q-14 -11 -14 -25q0 -15 20 -34zM182 7q-88 -2 -102 57q-4 17 -4 33q0 35 21 58q32 32 74 35h7q39 0 75 -26q37 -26 37 -110v-11q-2 -93 -135 -181l-73 68q90 37 100 77z" />
    <glyph glyph-name="hyphen" unicode="-" horiz-adv-x="554" 
d="M458 420v-114l-384 -19l-7 103z" />
    <glyph glyph-name="period" unicode="." horiz-adv-x="252" 
d="M194 77q0 -26 -34 -58q-24 -12 -44 -12q-26 0 -50 19q-20 13 -20 34q0 20 24 47q25 29 54 29q22 0 46 -17q24 -19 24 -42z" />
    <glyph glyph-name="slash" unicode="/" horiz-adv-x="510" 
d="M464 962l-277 -967l-141 40l292 955z" />
    <glyph glyph-name="zero" unicode="0" horiz-adv-x="743" 
d="M426 680q-29 9 -62 9q-28 0 -59 -7q-66 -14 -104 -106q-28 -69 -28 -160q0 -32 3 -66q13 -134 76 -190q51 -45 119 -45q16 0 33 2q103 33 118 148t15 177q0 75 -20 127q-36 95 -91 111zM653 425q3 -40 3 -77q0 -115 -36 -201q-49 -115 -144 -131q-64 -11 -127 -11
q-31 0 -62 3q-94 8 -151 94t-66 235q-2 30 -2 60q0 116 28 220q35 131 167 162q56 13 103 13q65 0 113 -24q84 -42 121 -111t53 -232z" />
    <glyph glyph-name="one" unicode="1" horiz-adv-x="538" 
d="M116 550l-70 82q102 42 140 166l172 -4l16 -684l100 6l6 -118l-378 6l-10 108l158 2l-2 568q-60 -110 -132 -132z" />
    <glyph glyph-name="two" unicode="2" horiz-adv-x="734" 
d="M88 566q38 166 115 202q71 33 171 33h17q110 -3 185 -104q43 -57 43 -124q0 -52 -25 -110q-59 -133 -321 -337l375 6l4 -124l-550 -2l-18 126q222 162 332 283t82 194t-109 82t-131 -26t-61 -139z" />
    <glyph glyph-name="three" unicode="3" horiz-adv-x="686" 
d="M104 526q-11 187 50.5 221.5t146.5 39.5q8 1 17 1q75 0 147 -38q79 -43 108.5 -110t8 -126t-99.5 -123q106 -8 120 -114q3 -26 3 -50q0 -74 -32 -131q-44 -76 -166 -88q-40 -4 -75 -4q-75 0 -133 17q-87 25 -116 100q-27 69 -27 161v13l125 -4q-2 -70 12 -116t61.5 -63
t113.5 -13t94 58.5t15.5 107t-119.5 62.5l-4 88q87 44 106 105t-22 112t-118.5 49t-102.5 -31.5t1 -136.5z" />
    <glyph glyph-name="four" unicode="4" horiz-adv-x="738" 
d="M416 2l2 138l-342 -10l-8 144l350 512l136 -2l-4 -524l126 6l6 -114l-134 -10v-142zM444 640l-258 -390l234 6z" />
    <glyph glyph-name="five" unicode="5" horiz-adv-x="714" 
d="M592 686l-366 -10l-10 -194q102 80 185 73t149 -54t83 -138q5 -29 5 -57q0 -63 -25 -126q-37 -92 -103 -135t-151 -43t-144 19t-98 67t-55 142l130 -2q4 -76 74 -105t155 3t107 146t-87 163t-221 -87l-112 64l8 370l454 12z" />
    <glyph glyph-name="six" unicode="6" horiz-adv-x="694" 
d="M544 594q-50 62 -103 87t-120 12t-100 -101t-29 -166q26 22 92 43t151 10t135 -69t52 -150v-8q0 -88 -42 -166q-44 -82 -182 -91q-23 -1 -43 -1q-106 0 -165 38q-70 46 -103 203q-14 66 -14 135q0 93 26 190q45 168 111 213q46 32 126 32q34 0 73 -6q133 -19 211 -123z
M194 314q8 -116 44 -165t114 -51t117 38t41 111t-47 108t-108 37t-161 -78z" />
    <glyph glyph-name="seven" unicode="7" horiz-adv-x="678" 
d="M60 800l536 -14l-4 -174q-170 -146 -228 -260t-52 -342l-136 -8q18 264 56 357t77 146t159 163l-408 12v120z" />
    <glyph glyph-name="eight" unicode="8" horiz-adv-x="649" 
d="M295 465q121 56 130 150q1 5 1 9q-12 99 -134.5 94t-104.5 -87q0 -20 8 -44q24 -70 100 -122zM301 376q-82 -56 -108 -140t32.5 -120t156 -22.5t101 115t-181.5 167.5zM582 239q2 -25 2 -48q0 -108 -63 -148q-70 -45 -158 -45h-15q-18 -1 -37 -1q-77 0 -135 28
q-71 35 -102 86q-16 27 -16 64q0 31 12 69q26 82 149 164q-76 52 -109.5 101t-36.5 110t35 113t178 64q26 2 49 2q101 0 144 -43q52 -53 48.5 -155t-128.5 -180q167 -34 183 -181z" />
    <glyph glyph-name="nine" unicode="9" horiz-adv-x="692" 
d="M145 205q50 -62 103 -87t120 -12t100 101t29 166q-26 -22 -92 -43t-151 -10t-135 69t-52 150v8q0 88 42 166q44 82 182 91q23 1 43 1q106 0 165 -38q70 -46 103 -203q14 -66 14 -135q0 -93 -26 -190q-45 -168 -111 -213q-46 -32 -126 -32q-34 0 -73 6q-133 19 -211 123z
M495 485q-8 116 -44 165t-114 51t-117 -38t-41 -111t47 -108t108 -37t161 78z" />
    <glyph glyph-name="colon" unicode=":" horiz-adv-x="330" 
d="M252 513q0 -31 -41 -70q-27 -15 -54 -15q-31 0 -60 21q-25 19 -25 41q0 27 29 61q31 35 66 35q27 0 56 -21q29 -23 29 -52zM252 199q0 -31 -41 -70q-27 -15 -54 -15q-31 0 -60 21q-25 19 -25 41q0 27 29 61q31 35 66 35q27 0 56 -21q29 -23 29 -52z" />
    <glyph glyph-name="semicolon" unicode=";" horiz-adv-x="348" 
d="M143 56q14 -7 26 -7q15 0 29 11q12 8 12 20t-14 28q-15 17 -32 17q-13 0 -27 -10q-14 -11 -14 -25q0 -15 20 -34zM176 7q-88 -2 -102 57q-4 17 -4 33q0 35 21 58q32 32 74 35h7q39 0 75 -26q37 -26 37 -110v-11q-2 -93 -135 -181l-73 68q90 37 100 77zM254 513
q0 -31 -41 -70q-27 -15 -54 -15q-31 0 -60 21q-25 19 -25 41q0 27 29 61q31 35 66 35q27 0 56 -21q29 -23 29 -52z" />
    <glyph glyph-name="less" unicode="&#x3c;" horiz-adv-x="568" 
d="M492 554l-286 -214l296 -258l-84 -86l-330 296v100l328 254z" />
    <glyph glyph-name="equal" unicode="=" horiz-adv-x="579" 
d="M493 300l1 -108l-401 14l1 104zM77 492l406 6l4 -96l-402 -12z" />
    <glyph glyph-name="greater" unicode="&#x3e;" horiz-adv-x="568" 
d="M174 646l328 -254v-100l-330 -296l-84 86l296 258l-286 214z" />
    <glyph glyph-name="question" unicode="?" horiz-adv-x="586" 
d="M291 93q11 -17 11 -35q0 -12 -5 -25q-13 -33 -50 -35h-7q-32 0 -47 18q-16 20 -19 49t21 46.5t50.5 13.5t45.5 -32zM189 186q-8 217 54 263t133.5 105t39 111.5t-121 72.5t-117 -34.5t32.5 -126.5l-93 -50q-49 97 -49 148q0 13 3 22q15 51 60 94t138 43t163 -44t90 -113
q11 -33 11 -63q0 -28 -11 -51q-20 -47 -73.5 -91t-96.5 -66t-54.5 -50.5t-9.5 -171.5z" />
    <glyph glyph-name="at" unicode="@" horiz-adv-x="744" 
d="M424 384q-4 36 -35 54t-55 -18t3 -72t87 36zM588 238l68 -78q-110 -148 -260 -154h-19q-136 0 -207 81q-76 87 -91 205q-4 38 -4 74q0 78 21 151q32 107 95 156t164 55q17 1 33 1q81 0 143 -25q75 -30 106 -113q22 -60 22 -128q0 -27 -3 -55q-12 -100 -97 -135t-117 69
q-60 -82 -114 -54t-57 82t35 102t75 41t73 -69l4 82l55 -7q-33 -181 7 -178.5t44 77t-17 121.5t-80 74t-145 0t-119 -86t-29 -154t43 -168t146 -91t225 124z" />
    <glyph glyph-name="A" unicode="A" horiz-adv-x="760" 
d="M58 -2l234 872l156 4l254 -880h-150l-52 238l-256 4l-62 -240zM266 346l212 -2l-108 382z" />
    <glyph glyph-name="B" unicode="B" horiz-adv-x="730" 
d="M68 877q76 3 136 3q138 0 195 -16q80 -23 128 -95.5t40.5 -177t-151.5 -142.5q152 -13 204 -73q50 -58 50 -164v-8q-2 -113 -100.5 -159.5t-503.5 -50.5zM172 776l4 -282q100 4 166 21t103 78t1 115t-274 68zM176 402l6 -314q135 -4 237 7t134 78t-31.5 138t-345.5 91z
" />
    <glyph glyph-name="C" unicode="C" horiz-adv-x="754" 
d="M600 562q-100 184 -169 206t-135 -5t-95 -109t-23 -191t35 -199t100 -131t154 -19t161 148l86 -50q-38 -96 -117 -154t-186 -58t-208 72t-127 281q-8 67 -8 127q0 126 37 220q55 138 140 166q57 19 128 19q35 0 74 -5q117 -14 255 -270z" />
    <glyph glyph-name="D" unicode="D" horiz-adv-x="752" 
d="M99 878q273 0 362 -42q93 -44 155 -166q60 -118 60 -275v-10q-2 -163 -98 -265t-496 -122l-8 880h25zM184 770l12 -668q186 24 259 69t92 131t6 149t-33 145t-105 131t-231 43z" />
    <glyph glyph-name="E" unicode="E" horiz-adv-x="712" 
d="M620 880l10 -102h-430v-224l362 -12l-8 -106l-356 16v-356l450 -14l-4 -82l-568 6l8 872z" />
    <glyph glyph-name="F" unicode="F" horiz-adv-x="690" 
d="M90 4l-12 878l536 -6l2 -111l-426 16l4 -256l370 -4v-93h-366l8 -420z" />
    <glyph glyph-name="G" unicode="G" horiz-adv-x="742" 
d="M560 614q-50 94 -103 128t-135 34t-114 -54t-39 -154t-2 -175t37 -164t113 -118t166 27t77 238l-238 -10l-6 108l348 2q4 -69 4 -124q0 -134 -25 -186q-37 -74 -102 -119t-164 -45t-167 39t-112 152t-47 279v21q0 152 40 249q43 104 150 127q52 11 102 11q52 0 101 -12
q96 -24 208 -196z" />
    <glyph glyph-name="H" unicode="H" horiz-adv-x="730" 
d="M202 880l2 -354l304 2l-18 354l130 -4l34 -872l-120 -4l-18 424l-312 -4l4 -418l-112 -4l-10 884z" />
    <glyph glyph-name="I" unicode="I" horiz-adv-x="473" 
d="M71 870l312 8l4 -116l-112 -2l10 -652l118 -4l4 -102l-350 2l-4 104l116 2l-12 648h-82z" />
    <glyph glyph-name="J" unicode="J" horiz-adv-x="761" 
d="M382 786l6 110l304 -30l-6 -98l-90 6q-4 -512 -21 -584t-78 -138q-54 -58 -164 -58q-15 0 -31 1q-134 9 -192 77t-72 206l104 6q2 -74 52 -135t149 -53t120 122t19 558z" />
    <glyph glyph-name="K" unicode="K" horiz-adv-x="760" 
d="M208 878l6 -334l402 288l78 -98l-294 -210l236 -474l-110 -58l-226 466l-78 -54l20 -400l-130 -6l-28 880h124z" />
    <glyph glyph-name="L" unicode="L" horiz-adv-x="672" 
d="M244 870l-46 -736l442 -30l-8 -110l-552 26l40 858z" />
    <glyph glyph-name="M" unicode="M" horiz-adv-x="814" 
d="M118 6l-28 850l148 28l162 -360l176 354l148 -30l14 -850l-126 8l4 686l-152 -288l-126 2l-120 270l32 -658z" />
    <glyph glyph-name="N" unicode="N" horiz-adv-x="776" 
d="M110 2l-20 856l134 16l322 -738l24 732l118 -4l-34 -862l-182 2l-266 644l30 -644z" />
    <glyph glyph-name="O" unicode="O" horiz-adv-x="780" 
d="M709 453q5 -46 5 -89q0 -142 -57 -246q-67 -121 -213 -121q-15 0 -31 2q-171 13 -239.5 104.5t-95.5 301.5q-8 64 -8 119q0 123 43 199q61 109 182 140q68 17 121 17q42 0 77 -11q76 -25 135 -120t81 -296zM465 747q-24 8 -53 8q-37 0 -83 -12q-84 -23 -127 -102
q-29 -55 -29 -145q0 -39 5 -86q19 -152 66.5 -218.5t165.5 -76.5q11 -1 21 -1q102 0 136 86q39 75 39 179q0 30 -3 64q-15 146 -50 216t-88 88z" />
    <glyph glyph-name="P" unicode="P" horiz-adv-x="726" 
d="M108 -4l-36 886h86q264 0 343 -11q91 -13 135 -137q31 -88 31 -159q0 -29 -5 -55q-18 -90 -72 -138.5t-374 -42.5l20 -337zM194 775l16 -333h194t102 18.5t49 105.5t-38 157t-323 52z" />
    <glyph glyph-name="Q" unicode="Q" horiz-adv-x="790" 
d="M293 869q35 11 77 11q53 0 121 -17q121 -31 182 -140q43 -76 43 -199q0 -55 -8 -119q-9 -160 -66 -237l92 -92l-82 -92l-75 87q-43 -59 -204 -72q-16 -2 -31 -2q-146 0 -213 121q-57 104 -57 246q0 43 5 89q22 201 81 296t135 120zM183 443q-3 -34 -3 -64q0 -104 39 -179
q34 -86 136 -86q90 -6 143 47l-102 120l75 83l95 -114q31 75 47 246q0 90 -29 145q-43 79 -127 102q-46 12 -83 12q-29 0 -53 -8q-53 -18 -88 -88t-50 -216z" />
    <glyph glyph-name="R" unicode="R" horiz-adv-x="738" 
d="M90 0l-30 876h56q362 0 445 -49q89 -53 98 -175q3 -35 3 -68q0 -79 -16 -141q-22 -87 -188 -119l208 -258l-112 -60l-248 308l-108 2l14 -310zM184 762l12 -344q124 0 224 3t118 71t4 147t-97 103t-261 20z" />
    <glyph glyph-name="S" unicode="S" horiz-adv-x="780" 
d="M584 586q-6 150 -96 185t-178 6t-96 -92t65 -112t146 -68t165 -75t114 -154q6 -27 6 -53q0 -65 -41 -118q-57 -73 -186 -95q-56 -9 -103 -9q-61 0 -108 16q-82 29 -147 92t-73 221h118q-2 -58 32 -124t135 -90t195 30t42 136t-187 117t-227 130t-61 189t110 133t205 45
h16q115 0 188 -84q78 -90 80 -204z" />
    <glyph glyph-name="T" unicode="T" horiz-adv-x="730" 
d="M70 878l582 30l12 -110l-254 -16l50 -766l-118 -12l-56 768l-214 -8z" />
    <glyph glyph-name="U" unicode="U" horiz-adv-x="760" 
d="M232 872q-26 -620 1 -689t160 -81t161 61t23 175t-37 526l116 8q37 -361 37 -553q0 -143 -21 -191q-48 -112 -171 -124q-65 -4 -107 -4q-75 0 -144 14q-106 22 -133 138q-19 80 -19 396q0 140 4 326z" />
    <glyph glyph-name="V" unicode="V" horiz-adv-x="778" 
d="M182 884l220 -714l188 710l118 -48l-228 -822l-146 -12l-270 844z" />
    <glyph glyph-name="W" unicode="W" horiz-adv-x="1038" 
d="M190 882l134 -674l100 376l158 -19l84 -410l184 741l122 -39l-224 -845l-156 -2l-98 423l-120 -427l-118 -8l-188 851z" />
    <glyph glyph-name="X" unicode="X" horiz-adv-x="757" 
d="M361 528l246 360l98 -80l-276 -380l244 -346l-116 -82l-198 320l-220 -342l-98 80l246 364l-226 390l112 74z" />
    <glyph glyph-name="Y" unicode="Y" horiz-adv-x="799" 
d="M353 528l278 352l100 -70l-332 -422l-20 -386h-130l24 412l-206 408l106 60z" />
    <glyph glyph-name="Z" unicode="Z" horiz-adv-x="788" 
d="M66 848l582 40l52 -162l-472 -598l504 -14l-4 -120l-632 16v138l468 610l-490 -32z" />
    <glyph glyph-name="bracketleft" unicode="[" horiz-adv-x="440" 
d="M344 908l-96 6l-26 -926l100 -8l-10 -76l-220 30l28 1042l230 -8z" />
    <glyph glyph-name="backslash" unicode="\" horiz-adv-x="510" 
d="M172 990l292 -955l-141 -40l-277 967z" />
    <glyph glyph-name="bracketright" unicode="]" horiz-adv-x="440" 
d="M92 968l230 8l28 -1042l-220 -30l-10 76l100 8l-26 926l-96 -6z" />
    <glyph glyph-name="asciicircum" unicode="^" horiz-adv-x="664" 
d="M100 684l194 198l156 -4l140 -270l-106 -48l-118 232l-188 -194z" />
    <glyph glyph-name="underscore" unicode="_" horiz-adv-x="780" 
d="M700 -16l-4 -100l-620 10l-2 104z" />
    <glyph glyph-name="grave" unicode="`" horiz-adv-x="388" 
d="M225 786q-14 7 -26 7q-15 0 -29 -11q-12 -8 -12 -20t14 -28q15 -17 32 -17q13 0 27 10q14 11 14 25q0 15 -20 34zM192 835q88 2 102 -57q4 -17 4 -33q0 -35 -21 -58q-32 -32 -74 -35h-7q-39 0 -75 26q-37 26 -37 110v11q2 93 135 181l73 -68q-90 -37 -100 -77z" />
    <glyph glyph-name="a" unicode="a" horiz-adv-x="670" 
d="M64 484q70 104 195 111q51 3 94 3q60 0 102 -6q75 -38 99 -102t26 -232t34 -214l-108 -42q-34 38 -34 80q-76 -52 -142 -66q-54 -12 -106 -12q-11 0 -22 1q-62 3 -101 50t-39 105t35 105t152 64t156 20t41 54t-39 70t-104 18t-161 -87zM454 262q-172 -24 -234 -38
t-46 -67t79 -51t116 29t71 46t14 81z" />
    <glyph glyph-name="b" unicode="b" horiz-adv-x="746" 
d="M188 816l12 -384q110 124 236 116t177 -62t66 -166q3 -24 3 -47q0 -82 -42 -142q-54 -77 -120 -101t-158 -18t-142 62l6 -70l-120 -8l-30 810zM211 247q-4 -51 50.5 -91t132 -38t123 34t58 87t-11.5 110t-74 79t-116.5 1t-111.5 -77t-50 -105z" />
    <glyph glyph-name="c" unicode="c" horiz-adv-x="664" 
d="M500 382q-47 79 -135.5 106.5t-142 -62t-42.5 -165.5t63.5 -115.5t135.5 -31t94 109.5l113 -50q-26 -153 -174 -165q-28 -3 -53 -3q-112 0 -186 45q-91 54 -110 151q-7 36 -7 73q0 65 21 134q32 110 116 157q58 32 133 32q33 0 70 -6q119 -21 192 -117z" />
    <glyph glyph-name="d" unicode="d" horiz-adv-x="792" 
d="M604 794l110 -10l-40 -780l-112 6l6 114q-80 -94 -176 -107q-23 -3 -46 -3q-71 0 -136 31q-86 41 -119 121q-29 69 -29 131q0 10 1 19q5 70 72 168t150 108t151 -11t148 -93zM547 282q8 66 -30 120.5t-121 78t-134 -22t-77.5 -112t-3 -123.5t80.5 -82t126.5 -15.5
t110 50.5t48.5 106z" />
    <glyph glyph-name="e" unicode="e" horiz-adv-x="690" 
d="M538 186l82 -68q-100 -118 -213 -118t-205 42t-117 138q-18 71 -18 136q0 23 2 46q9 86 86 161t181 75t173 -45t117 -231l-444 -32q6 -84 45 -124t126 -60t185 80zM496 386q-18 54 -82 96t-137 11t-93 -121z" />
    <glyph glyph-name="f" unicode="f" horiz-adv-x="524" 
d="M232 -4l-58 464l-106 -16l-12 108l108 14q-32 136 0 185t143 50h6q106 0 145 -37l-46 -92q-80 34 -116 21t-16 -109l130 14l12 -102l-122 -24l58 -458z" />
    <glyph glyph-name="g" unicode="g" horiz-adv-x="720" 
d="M538 616l114 -12q-20 -416 -31 -549t-45 -191t-83 -86t-153 -35q-20 -1 -39 -1q-79 0 -135 23q-70 29 -112 151l106 18q4 -66 97 -80t166 16t85 192q-28 -50 -101 -59t-160 2t-129 83t-49 161t31 182t105 128t152 35t173 -72zM512 253q2 137 -36 175.5t-88 49t-95 4
t-71 -50t-40 -99.5t-5 -126.5t63 -88.5t122 -14t103 44t47 106z" />
    <glyph glyph-name="h" unicode="h" horiz-adv-x="712" 
d="M198 828l2 -312q116 78 183 84t141 -25t96 -158q10 -58 10 -164q0 -105 -14 -255l-118 -2q34 360 9 424t-102 66t-195 -84l6 -396l-116 2l-20 822z" />
    <glyph glyph-name="i" unicode="i" horiz-adv-x="350" 
d="M240 594l-6 -590l-122 -6l-12 598zM224 796q26 -16 26 -50q0 -8 -1 -16q-7 -46 -56 -49t-74 19q-21 18 -21 42q0 5 1 10q5 30 49 47q20 8 38 8q21 0 38 -11z" />
    <glyph glyph-name="j" unicode="j" horiz-adv-x="346" 
d="M202 796q26 -16 26 -50q0 -8 -1 -16q-7 -46 -56 -49h-11q-41 0 -63 19q-21 18 -21 42q0 5 1 10q5 30 49 47q20 8 38 8q21 0 38 -11zM104 594h124q38 -420 38 -599q0 -69 -6 -103q-20 -120 -102 -165q-65 -35 -139 -35q-20 0 -41 2q-98 12 -148 91q-43 69 -43 120
q0 8 1 15l108 14q6 -102 92 -130t140 61t-24 729z" />
    <glyph glyph-name="k" unicode="k" horiz-adv-x="646" 
d="M204 794l6 -436l288 250l84 -88l-172 -144l174 -372l-128 -8l-142 306l-104 -92l4 -196l-122 -14l-4 792z" />
    <glyph glyph-name="l" unicode="l" horiz-adv-x="302" 
d="M214 798l2 -800l-106 2l-18 794z" />
    <glyph glyph-name="m" unicode="m" horiz-adv-x="888" 
d="M192 600l6 -88q92 89 180 89h5q11 0 20 -3q47 -18 61 -122q44 96 120 109t117 -2t79 -67q24 -33 24 -224q0 -110 -8 -282l-106 -6q36 466 -34 479t-102 -27t-48 -460l-110 10q26 462 -37 476t-153 -86l18 -386h-116l-18 590h102z" />
    <glyph glyph-name="n" unicode="n" horiz-adv-x="702" 
d="M214 606l2 -142q60 94 143 116t158 -5t95 -120q13 -62 13 -240q0 -89 -3 -207l-126 2q10 338 3 406t-97 54t-180 -108l10 -358l-124 -6l-14 596z" />
    <glyph glyph-name="o" unicode="o" horiz-adv-x="662" 
d="M549 485q37 -70 37 -170v-10q-2 -106 -36 -196.5t-127 -111.5q-36 -9 -74 -9q-60 0 -123 21q-103 33 -135 145q-17 62 -17 127q0 50 10 103q25 119 114 182q58 40 124 40q37 0 77 -12q111 -35 150 -109zM378 498q-25 8 -49 8q-41 0 -77 -26q-56 -42 -71 -121
q-7 -34 -7 -68q0 -42 11 -84q20 -73 84 -96q40 -13 77 -13q24 0 47 5q58 14 79.5 74t22.5 130v7q0 66 -23 112q-25 49 -94 72z" />
    <glyph glyph-name="p" unicode="p" horiz-adv-x="760" 
d="M76 -256l30 856l120 -8l-6 -70q50 56 142 62t158 -18t120 -101q42 -60 42 -142q0 -69 -3 -93q-15 -112 -66 -166t-177 -62t-236 116l-12 -384zM211 326q5 -74 50 -128t111.5 -77t116.5 1t74 79t11.5 133t-58 110t-123 34t-132 -38t-50.5 -114z" />
    <glyph glyph-name="q" unicode="q" horiz-adv-x="760" 
d="M570 -266l-12 384q-110 -124 -236 -116t-177 62t-66 166q-3 24 -3 93q0 82 37 150.5t107 99.5q49 22 113 22q27 0 56 -4q99 -13 149 -69l-6 70l120 8l30 -856zM539 321q-2 69 -49.5 114t-129 49t-127 -28t-54 -116t15.5 -139t74 -79t116.5 -1t111.5 77t42 123z" />
    <glyph glyph-name="r" unicode="r" horiz-adv-x="602" 
d="M102 -4l-12 602l118 10l4 -110q92 106 162 103t156 -41l-42 -118q-76 54 -127 39t-145 -135l6 -342z" />
    <glyph glyph-name="s" unicode="s" horiz-adv-x="644" 
d="M462 422q-100 84 -157 89t-85 -21t-16 -65t71 -49l129 -21t113 -66q38 -48 38 -114q0 -9 -1 -18q-6 -77 -72 -121t-157 -46h-10q-84 0 -143 32q-62 34 -75 74t-19 144l114 -14q-10 -88 54 -120t137 1t57 95t-158 70t-173 76q-20 44 -20 85q0 22 6 44q17 61 66 102
q41 34 130 34q18 0 37 -1q118 -8 222 -118z" />
    <glyph glyph-name="t" unicode="t" horiz-adv-x="540" 
d="M332 806l4 -216h118l-2 -120l-112 8l24 -476l-124 -4l-18 486l-154 4l8 114l142 -10l-6 206z" />
    <glyph glyph-name="u" unicode="u" horiz-adv-x="668" 
d="M222 590q-22 -314 -28 -384t44 -84t123 -1t96 57t-19 416h128l24 -592l-108 2l-4 108q-26 -72 -103 -99q-35 -7 -73 -7q-49 0 -103 12q-95 22 -108 117q-5 35 -5 109q0 123 14 356z" />
    <glyph glyph-name="v" unicode="v" horiz-adv-x="632" 
d="M172 634l126 -500l154 470l110 -46l-202 -560l-134 -2l-166 596z" />
    <glyph glyph-name="w" unicode="w" horiz-adv-x="810" 
d="M192 624l66 -462l62 200l112 4l102 -238l92 464l118 -30l-120 -546l-148 -20l-100 242l-68 -228l-136 -20l-100 618z" />
    <glyph glyph-name="x" unicode="x" horiz-adv-x="669" 
d="M69 532l100 64l148 -228l182 228l92 -74l-194 -242l176 -236l-112 -66l-148 222l-162 -208l-96 72l182 220z" />
    <glyph glyph-name="y" unicode="y" horiz-adv-x="738" 
d="M157 573l208 -404l203 434l120 -48l-401 -824l-113 51l125 270l-249 468z" />
    <glyph glyph-name="z" unicode="z" horiz-adv-x="700" 
d="M86 612l528 -36v-140l-384 -318h376v-118l-524 6l-8 118l428 350l-424 18z" />
    <glyph glyph-name="braceleft" unicode="{" horiz-adv-x="460" 
d="M384 960q-100 -72 -102 -224t-18 -212t-122 -112q82 -38 98 -88t19 -208t117 -218q-200 36 -210 124t-5 202t-3 127t-78 55q84 38 86 70t13 222t51 227q38 35 142 35h12z" />
    <glyph glyph-name="bar" unicode="|" horiz-adv-x="320" 
d="M214 1000l-8 -1059l-118 -7l9 1064z" />
    <glyph glyph-name="braceright" unicode="}" horiz-adv-x="418" 
d="M72 960q104 0 142 -35q40 -37 51 -227t13 -222t86 -70q-70 -42 -78 -55t-3 -127t-5 -202t-210 -124q114 60 117 218t19 208t98 88q-106 52 -122 112t-18 212t-102 224h12z" />
    <glyph glyph-name="asciitilde" unicode="~" horiz-adv-x="772" 
d="M66 394q136 114 217 114q7 0 14 -1q83 -11 156 -70t161 39l78 -112q-112 -87 -178 -87q-9 0 -17 2q-69 13 -153 68t-190 -55z" />
    <glyph glyph-name="thothannobasethai" horiz-adv-x="766" 
d="M291 360q0 14 -14 25q-14 10 -26 10q-17 0 -32 -17q-13 -16 -13 -27q0 -12 11 -20q14 -11 29 -11q12 0 25 7q20 19 20 33zM450 78q80 373 -44.5 444t-245.5 -42l-103 78q72 155 154 195q66 33 119 33q11 0 23 -2q60 -9 128 -29.5t126 38.5l74 -82q-85 -82 -150.5 -58.5
t-170.5 27.5t-186 -89q198 97 346 -21.5t12 -571.5l-164 4q-8 170 -53 276q-109 -43 -149.5 11.5t-4 122t135.5 45t153 -378.5z" />
    <glyph glyph-name="thothannobasethai" unicode="&#xf700;" horiz-adv-x="766" 
d="M291 360q0 14 -14 25q-14 10 -26 10q-17 0 -32 -17q-13 -16 -13 -27q0 -12 11 -20q14 -11 29 -11q12 0 25 7q20 19 20 33zM450 78q80 373 -44.5 444t-245.5 -42l-103 78q72 155 154 195q66 33 119 33q11 0 23 -2q60 -9 128 -29.5t126 38.5l74 -82q-85 -82 -150.5 -58.5
t-170.5 27.5t-186 -89q198 97 346 -21.5t12 -571.5l-164 4q-8 170 -53 276q-109 -43 -149.5 11.5t-4 122t135.5 45t153 -378.5z" />
    <glyph glyph-name="thothannobasethai" unicode="&#x20ac;" horiz-adv-x="766" 
d="M291 360q0 14 -14 25q-14 10 -26 10q-17 0 -32 -17q-13 -16 -13 -27q0 -12 11 -20q14 -11 29 -11q12 0 25 7q20 19 20 33zM450 78q80 373 -44.5 444t-245.5 -42l-103 78q72 155 154 195q66 33 119 33q11 0 23 -2q60 -9 128 -29.5t126 38.5l74 -82q-85 -82 -150.5 -58.5
t-170.5 27.5t-186 -89q198 97 346 -21.5t12 -571.5l-164 4q-8 170 -53 276q-109 -43 -149.5 11.5t-4 122t135.5 45t153 -378.5z" />
    <glyph glyph-name="saraileftthai" 
d="M-572 1190q43 0 93 -13q130 -34 199 -321l-534 31q43 185 108 244t134 59zM-699 962l293 -16q-45 135 -124 143t-116 -25t-53 -102z" />
    <glyph glyph-name="saraileftthai" unicode="&#xf701;" 
d="M-572 1190q43 0 93 -13q130 -34 199 -321l-534 31q43 185 108 244t134 59zM-699 962l293 -16q-45 135 -124 143t-116 -25t-53 -102z" />
    <glyph glyph-name="saraiileftthai" 
d="M-540 1185q43 0 94 -14q62 -15 102 -145l-1 169l109 -9l-10 -335l-536 31q42 185 107.5 244t134.5 59zM-667 957l277 -18q-43 155 -114.5 154t-109 -34t-53.5 -102z" />
    <glyph glyph-name="saraiileftthai" unicode="&#xf702;" 
d="M-540 1185q43 0 94 -14q62 -15 102 -145l-1 169l109 -9l-10 -335l-536 31q42 185 107.5 244t134.5 59zM-667 957l277 -18q-43 155 -114.5 154t-109 -34t-53.5 -102z" />
    <glyph glyph-name="saraiileftthai" unicode="&#x201a;" 
d="M-540 1185q43 0 94 -14q62 -15 102 -145l-1 169l109 -9l-10 -335l-536 31q42 185 107.5 244t134.5 59zM-667 957l277 -18q-43 155 -114.5 154t-109 -34t-53.5 -102z" />
    <glyph glyph-name="saraueleftthai" horiz-adv-x="2" 
d="M-533 1174q48 0 89 -9.5t88 -72.5q-17 80 26 105q26 19 57 19q28 0 60 -16q66 -33 66 -115v-5q-3 -87 -128 -102l38 -134l-541 27q21 185 94 244t151 59zM-675 946l329 -16q-51 135 -139.5 143t-130.5 -25t-59 -102zM-253 1054q14 0 25 14t11 27q0 17 -18 32
q-17 14 -29 14t-20 -12q-12 -14 -12 -29q0 -12 7 -26q20 -20 36 -20z" />
    <glyph glyph-name="saraueleftthai" unicode="&#xf703;" horiz-adv-x="2" 
d="M-533 1174q48 0 89 -9.5t88 -72.5q-17 80 26 105q26 19 57 19q28 0 60 -16q66 -33 66 -115v-5q-3 -87 -128 -102l38 -134l-541 27q21 185 94 244t151 59zM-675 946l329 -16q-51 135 -139.5 143t-130.5 -25t-59 -102zM-253 1054q14 0 25 14t11 27q0 17 -18 32
q-17 14 -29 14t-20 -12q-12 -14 -12 -29q0 -12 7 -26q20 -20 36 -20z" />
    <glyph glyph-name="saraueleftthai" unicode="&#x192;" horiz-adv-x="2" 
d="M-533 1174q48 0 89 -9.5t88 -72.5q-17 80 26 105q26 19 57 19q28 0 60 -16q66 -33 66 -115v-5q-3 -87 -128 -102l38 -134l-541 27q21 185 94 244t151 59zM-675 946l329 -16q-51 135 -139.5 143t-130.5 -25t-59 -102zM-253 1054q14 0 25 14t11 27q0 17 -18 32
q-17 14 -29 14t-20 -12q-12 -14 -12 -29q0 -12 7 -26q20 -20 36 -20z" />
    <glyph glyph-name="saraueeleftthai" horiz-adv-x="4" 
d="M-596 1185q44 0 94 -14q57 -15 97 -103v127l83 -5l-11 -335l-485 27q20 185 86 244t136 59zM-724 957l282 -16q-31 135 -111 143t-117.5 -25t-53.5 -102zM-320 855l24 327l80 -6l-30 -322z" />
    <glyph glyph-name="saraueeleftthai" unicode="&#xf704;" horiz-adv-x="4" 
d="M-596 1185q44 0 94 -14q57 -15 97 -103v127l83 -5l-11 -335l-485 27q20 185 86 244t136 59zM-724 957l282 -16q-31 135 -111 143t-117.5 -25t-53.5 -102zM-320 855l24 327l80 -6l-30 -322z" />
    <glyph glyph-name="saraueeleftthai" unicode="&#x201e;" horiz-adv-x="4" 
d="M-596 1185q44 0 94 -14q57 -15 97 -103v127l83 -5l-11 -335l-485 27q20 185 86 244t136 59zM-724 957l282 -16q-31 135 -111 143t-117.5 -25t-53.5 -102zM-320 855l24 327l80 -6l-30 -322z" />
    <glyph glyph-name="ellipsis" unicode="&#x85;" horiz-adv-x="693" 
d="M150 105q14 0 27 -7t20.5 -20.5t7.5 -27.5t-7 -27t-20.5 -20.5t-27.5 -7.5t-27 7.5t-20.5 20.5t-7.5 27t7.5 27.5t20.5 20.5t27 7zM344 105q14 0 27 -7t20.5 -20.5t7.5 -27.5t-7 -27t-20.5 -20.5t-27.5 -7.5t-27 7.5t-20.5 20.5t-7.5 27t7.5 27.5t20.5 20.5t27 7z
M545 105q14 0 27 -7t20.5 -20.5t7.5 -27.5t-7 -27t-20.5 -20.5t-27.5 -7.5t-27 7.5t-20.5 20.5t-7.5 27t7.5 27.5t20.5 20.5t27 7z" />
    <glyph glyph-name="ellipsis" unicode="&#x2026;" horiz-adv-x="693" 
d="M150 105q14 0 27 -7t20.5 -20.5t7.5 -27.5t-7 -27t-20.5 -20.5t-27.5 -7.5t-27 7.5t-20.5 20.5t-7.5 27t7.5 27.5t20.5 20.5t27 7zM344 105q14 0 27 -7t20.5 -20.5t7.5 -27.5t-7 -27t-20.5 -20.5t-27.5 -7.5t-27 7.5t-20.5 20.5t-7.5 27t7.5 27.5t20.5 20.5t27 7z
M545 105q14 0 27 -7t20.5 -20.5t7.5 -27.5t-7 -27t-20.5 -20.5t-27.5 -7.5t-27 7.5t-20.5 20.5t-7.5 27t7.5 27.5t20.5 20.5t27 7z" />
    <glyph glyph-name="maieklowleftthai" 
d="M-389 889l5 217l118 -1l-8 -211z" />
    <glyph glyph-name="maieklowleftthai" unicode="&#xf705;" 
d="M-389 889l5 217l118 -1l-8 -211z" />
    <glyph glyph-name="maieklowleftthai" unicode="&#x2020;" 
d="M-389 889l5 217l118 -1l-8 -211z" />
    <glyph glyph-name="maitholowleftthai" 
d="M-474 1027q0 14 -14 25q-14 10 -27 10q-23 -1 -34 -18q-5 -8 -5 -17q0 -10 7 -20q12 -21 27 -21q12 0 26 7q20 19 20 34zM-470 963q-58 -39 -94 -14q-36 24 -36 75v1q0 52 34 71q24 13 54 13q12 0 25 -2q45 -8 64 -53t15 -87t-52 -68q114 2 135 45t25 115l116 -6
q-9 -157 -79.5 -193.5t-123.5 -41.5t-108 -6h-8q-50 0 -95 11l10 76q66 0 85 14t33 50z" />
    <glyph glyph-name="maitholowleftthai" unicode="&#xf706;" 
d="M-474 1027q0 14 -14 25q-14 10 -27 10q-23 -1 -34 -18q-5 -8 -5 -17q0 -10 7 -20q12 -21 27 -21q12 0 26 7q20 19 20 34zM-470 963q-58 -39 -94 -14q-36 24 -36 75v1q0 52 34 71q24 13 54 13q12 0 25 -2q45 -8 64 -53t15 -87t-52 -68q114 2 135 45t25 115l116 -6
q-9 -157 -79.5 -193.5t-123.5 -41.5t-108 -6h-8q-50 0 -95 11l10 76q66 0 85 14t33 50z" />
    <glyph glyph-name="maitholowleftthai" unicode="&#x2021;" 
d="M-474 1027q0 14 -14 25q-14 10 -27 10q-23 -1 -34 -18q-5 -8 -5 -17q0 -10 7 -20q12 -21 27 -21q12 0 26 7q20 19 20 34zM-470 963q-58 -39 -94 -14q-36 24 -36 75v1q0 52 34 71q24 13 54 13q12 0 25 -2q45 -8 64 -53t15 -87t-52 -68q114 2 135 45t25 115l116 -6
q-9 -157 -79.5 -193.5t-123.5 -41.5t-108 -6h-8q-50 0 -95 11l10 76q66 0 85 14t33 50z" />
    <glyph glyph-name="maitrilowleftthai" horiz-adv-x="2" 
d="M-576 978q0 14 -14 25q-14 10 -27 10q-23 -1 -34 -18q-5 -8 -5 -17q0 -10 7 -20q12 -21 27 -21q12 0 26 7q20 19 20 34zM-644 1040q28 13 55.5 9.5t41 -27.5t9 -64.5t-46.5 -55.5q-24 -10 -45 -10q-16 0 -30 5q-31 19 -43 46.5t-17 85.5v16q0 47 25 84q30 42 62.5 51
t62 -6t51.5 -63q24 42 63.5 59t61.5 6.5t39.5 -60.5t0.5 -144q40 11 60.5 51.5t-20.5 142.5l104 29q20 -82 20 -139t-56 -113q-47 -49 -168 -49q-21 0 -45 2q60 113 39.5 180t-100.5 -49q-33 76 -63.5 80.5t-48 -14.5t-12.5 -53z" />
    <glyph glyph-name="maitrilowleftthai" unicode="&#xf707;" horiz-adv-x="2" 
d="M-576 978q0 14 -14 25q-14 10 -27 10q-23 -1 -34 -18q-5 -8 -5 -17q0 -10 7 -20q12 -21 27 -21q12 0 26 7q20 19 20 34zM-644 1040q28 13 55.5 9.5t41 -27.5t9 -64.5t-46.5 -55.5q-24 -10 -45 -10q-16 0 -30 5q-31 19 -43 46.5t-17 85.5v16q0 47 25 84q30 42 62.5 51
t62 -6t51.5 -63q24 42 63.5 59t61.5 6.5t39.5 -60.5t0.5 -144q40 11 60.5 51.5t-20.5 142.5l104 29q20 -82 20 -139t-56 -113q-47 -49 -168 -49q-21 0 -45 2q60 113 39.5 180t-100.5 -49q-33 76 -63.5 80.5t-48 -14.5t-12.5 -53z" />
    <glyph glyph-name="maitrilowleftthai" unicode="&#x2c6;" horiz-adv-x="2" 
d="M-576 978q0 14 -14 25q-14 10 -27 10q-23 -1 -34 -18q-5 -8 -5 -17q0 -10 7 -20q12 -21 27 -21q12 0 26 7q20 19 20 34zM-644 1040q28 13 55.5 9.5t41 -27.5t9 -64.5t-46.5 -55.5q-24 -10 -45 -10q-16 0 -30 5q-31 19 -43 46.5t-17 85.5v16q0 47 25 84q30 42 62.5 51
t62 -6t51.5 -63q24 42 63.5 59t61.5 6.5t39.5 -60.5t0.5 -144q40 11 60.5 51.5t-20.5 142.5l104 29q20 -82 20 -139t-56 -113q-47 -49 -168 -49q-21 0 -45 2q60 113 39.5 180t-100.5 -49q-33 76 -63.5 80.5t-48 -14.5t-12.5 -53z" />
    <glyph glyph-name="maichattawalowleftthai" horiz-adv-x="2" 
d="M-428 990l-128 -1l2 105l120 -1l12 128l113 -2l-6 -122l122 1l-2 -105l-123 1l2 -109l-116 4z" />
    <glyph glyph-name="maichattawalowleftthai" unicode="&#xf708;" horiz-adv-x="2" 
d="M-428 990l-128 -1l2 105l120 -1l12 128l113 -2l-6 -122l122 1l-2 -105l-123 1l2 -109l-116 4z" />
    <glyph glyph-name="maichattawalowleftthai" unicode="&#x2030;" horiz-adv-x="2" 
d="M-428 990l-128 -1l2 105l120 -1l12 128l113 -2l-6 -122l122 1l-2 -105l-123 1l2 -109l-116 4z" />
    <glyph glyph-name="thanthakhatlowleftthai" 
d="M-407 1013q0 14 -14 25q-14 10 -27 10q-17 0 -32 -17q-14 -16 -14 -28t12 -20q14 -11 29 -11q12 0 26 7q20 19 20 34zM-382 1084q70 -20 70 -84t-61 -94q-34 -18 -68 -18q-26 0 -52 11q-77 23 -90 75q-3 14 -3 29q0 39 24 82q34 59 138 78t138 121l128 -60
q-62 -96 -224 -140z" />
    <glyph glyph-name="thanthakhatlowleftthai" unicode="&#xf709;" 
d="M-407 1013q0 14 -14 25q-14 10 -27 10q-17 0 -32 -17q-14 -16 -14 -28t12 -20q14 -11 29 -11q12 0 26 7q20 19 20 34zM-382 1084q70 -20 70 -84t-61 -94q-34 -18 -68 -18q-26 0 -52 11q-77 23 -90 75q-3 14 -3 29q0 39 24 82q34 59 138 78t138 121l128 -60
q-62 -96 -224 -140z" />
    <glyph glyph-name="thanthakhatlowleftthai" unicode="&#x160;" 
d="M-407 1013q0 14 -14 25q-14 10 -27 10q-17 0 -32 -17q-14 -16 -14 -28t12 -20q14 -11 29 -11q12 0 26 7q20 19 20 34zM-382 1084q70 -20 70 -84t-61 -94q-34 -18 -68 -18q-26 0 -52 11q-77 23 -90 75q-3 14 -3 29q0 39 24 82q34 59 138 78t138 121l128 -60
q-62 -96 -224 -140z" />
    <glyph glyph-name="maieklowrightthai" 
d="M-303 981l5 183l118 -1l-8 -177z" />
    <glyph glyph-name="maieklowrightthai" unicode="&#xf70a;" 
d="M-303 981l5 183l118 -1l-8 -177z" />
    <glyph glyph-name="maieklowrightthai" unicode="&#x2039;" 
d="M-303 981l5 183l118 -1l-8 -177z" />
    <glyph glyph-name="maitholowrightthai" 
d="M-474 1157q0 14 -14 25q-14 10 -27 10q-23 -1 -34 -18q-5 -8 -5 -17q0 -10 7 -20q12 -21 27 -21q12 0 26 7q20 19 20 34zM-470 1093q-58 -39 -94 -14q-36 24 -36 75v1q0 52 34 71q24 13 54 13q12 0 25 -2q45 -8 64 -53t15 -87t-52 -68q150 10 182 53t36 115l128 -2
q-43 -161 -113.5 -197.5t-141.5 -45.5t-126 -10h-8q-50 0 -95 11l10 76q66 0 85 14t33 50z" />
    <glyph glyph-name="maitholowrightthai" unicode="&#xf70b;" 
d="M-474 1157q0 14 -14 25q-14 10 -27 10q-23 -1 -34 -18q-5 -8 -5 -17q0 -10 7 -20q12 -21 27 -21q12 0 26 7q20 19 20 34zM-470 1093q-58 -39 -94 -14q-36 24 -36 75v1q0 52 34 71q24 13 54 13q12 0 25 -2q45 -8 64 -53t15 -87t-52 -68q150 10 182 53t36 115l128 -2
q-43 -161 -113.5 -197.5t-141.5 -45.5t-126 -10h-8q-50 0 -95 11l10 76q66 0 85 14t33 50z" />
    <glyph glyph-name="maitholowrightthai" unicode="&#x152;" 
d="M-474 1157q0 14 -14 25q-14 10 -27 10q-23 -1 -34 -18q-5 -8 -5 -17q0 -10 7 -20q12 -21 27 -21q12 0 26 7q20 19 20 34zM-470 1093q-58 -39 -94 -14q-36 24 -36 75v1q0 52 34 71q24 13 54 13q12 0 25 -2q45 -8 64 -53t15 -87t-52 -68q150 10 182 53t36 115l128 -2
q-43 -161 -113.5 -197.5t-141.5 -45.5t-126 -10h-8q-50 0 -95 11l10 76q66 0 85 14t33 50z" />
    <glyph glyph-name="maitrilowrightthai" 
d="M-410 1028q0 14 -14 25q-14 10 -27 10q-23 -1 -34 -18q-5 -8 -5 -17q0 -10 7 -20q12 -21 27 -21q12 0 26 7q20 19 20 34zM-478 1090q28 13 55.5 9.5t41 -27.5t9 -64.5t-46.5 -55.5q-24 -10 -45 -10q-16 0 -30 5q-31 19 -43 46.5t-17 85.5v16q0 47 25 84q30 42 78.5 51
t76 -17t37.5 -56q24 42 55.5 61t78.5 13.5t64.5 -55.5t0.5 -144q78 13 98.5 53.5t-20.5 142.5l104 29q20 -82 20 -139t-20 -86q-54 -89 -287 -76q34 97 27.5 140t-45 54t-77.5 -77q-33 58 -71.5 73.5t-56 -3.5t-12.5 -53z" />
    <glyph glyph-name="maitrilowrightthai" unicode="&#xf70c;" 
d="M-410 1028q0 14 -14 25q-14 10 -27 10q-23 -1 -34 -18q-5 -8 -5 -17q0 -10 7 -20q12 -21 27 -21q12 0 26 7q20 19 20 34zM-478 1090q28 13 55.5 9.5t41 -27.5t9 -64.5t-46.5 -55.5q-24 -10 -45 -10q-16 0 -30 5q-31 19 -43 46.5t-17 85.5v16q0 47 25 84q30 42 78.5 51
t76 -17t37.5 -56q24 42 55.5 61t78.5 13.5t64.5 -55.5t0.5 -144q78 13 98.5 53.5t-20.5 142.5l104 29q20 -82 20 -139t-20 -86q-54 -89 -287 -76q34 97 27.5 140t-45 54t-77.5 -77q-33 58 -71.5 73.5t-56 -3.5t-12.5 -53z" />
    <glyph glyph-name="maichattawalowrightthai" 
d="M-410 1054l-128 -1l2 105l120 -1l10 146l127 -2l-4 -140l122 1l-2 -105l-123 1l2 -109l-130 4z" />
    <glyph glyph-name="maichattawalowrightthai" unicode="&#xf70d;" 
d="M-410 1054l-128 -1l2 105l120 -1l10 146l127 -2l-4 -140l122 1l-2 -105l-123 1l2 -109l-130 4z" />
    <glyph glyph-name="maichattawalowrightthai" unicode="&#x17d;" 
d="M-410 1054l-128 -1l2 105l120 -1l10 146l127 -2l-4 -140l122 1l-2 -105l-123 1l2 -109l-130 4z" />
    <glyph glyph-name="thanthakhatlowrightthai" 
d="M-209 1023q0 14 -14 25q-14 10 -27 10q-17 0 -32 -17q-14 -16 -14 -28t12 -20q14 -11 29 -11q12 0 26 7q20 19 20 34zM-184 1094q70 -20 70 -84t-61 -94q-34 -18 -68 -18q-26 0 -52 11q-77 23 -90 75q-3 14 -3 29q0 39 24 82q34 59 138 78t138 121l128 -60
q-62 -96 -224 -140z" />
    <glyph glyph-name="thanthakhatlowrightthai" unicode="&#xf70e;" 
d="M-209 1023q0 14 -14 25q-14 10 -27 10q-17 0 -32 -17q-14 -16 -14 -28t12 -20q14 -11 29 -11q12 0 26 7q20 19 20 34zM-184 1094q70 -20 70 -84t-61 -94q-34 -18 -68 -18q-26 0 -52 11q-77 23 -90 75q-3 14 -3 29q0 39 24 82q34 59 138 78t138 121l128 -60
q-62 -96 -224 -140z" />
    <glyph glyph-name="yoyingnobasethai" horiz-adv-x="1038" 
d="M337 148q0 14 -14 25q-14 10 -27 10q-17 0 -32 -17q-14 -16 -14 -28t12 -20q14 -11 29 -11q12 0 26 7q20 19 20 34zM238 243q109 41 159.5 -20.5t27 -121t-100.5 -85.5q-26 -9 -50 -9q-49 0 -94 35q-67 53 -58 395q16 88 125 132l-169 6l6 85q138 122 295 130q14 1 27 1
q137 0 213 -77q83 -85 67 -593l132 -4l-18 656l137 6l12 -778l-407 16q28 380 18.5 489.5t-73.5 158t-145.5 37.5t-128.5 -61l153 -19l-3 -116q-110 -12 -125.5 -57.5t0.5 -205.5z" />
    <glyph glyph-name="yoyingnobasethai" unicode="&#xf70f;" horiz-adv-x="1038" 
d="M337 148q0 14 -14 25q-14 10 -27 10q-17 0 -32 -17q-14 -16 -14 -28t12 -20q14 -11 29 -11q12 0 26 7q20 19 20 34zM238 243q109 41 159.5 -20.5t27 -121t-100.5 -85.5q-26 -9 -50 -9q-49 0 -94 35q-67 53 -58 395q16 88 125 132l-169 6l6 85q138 122 295 130q14 1 27 1
q137 0 213 -77q83 -85 67 -593l132 -4l-18 656l137 6l12 -778l-407 16q28 380 18.5 489.5t-73.5 158t-145.5 37.5t-128.5 -61l153 -19l-3 -116q-110 -12 -125.5 -57.5t0.5 -205.5z" />
    <glyph glyph-name="quoteleft" horiz-adv-x="388" 
d="M227 786q-14 7 -26 7q-15 0 -29 -11q-12 -8 -12 -20t14 -28q15 -17 32 -17q13 0 27 10q14 11 14 25q0 15 -20 34zM194 835q88 2 102 -57q4 -17 4 -33q0 -35 -21 -58q-32 -32 -74 -35h-7q-39 0 -75 26q-37 26 -37 110v11q2 93 135 181l73 -68q-90 -37 -100 -77z" />
    <glyph glyph-name="quoteleft" unicode="&#x2018;" horiz-adv-x="388" 
d="M227 786q-14 7 -26 7q-15 0 -29 -11q-12 -8 -12 -20t14 -28q15 -17 32 -17q13 0 27 10q14 11 14 25q0 15 -20 34zM194 835q88 2 102 -57q4 -17 4 -33q0 -35 -21 -58q-32 -32 -74 -35h-7q-39 0 -75 26q-37 26 -37 110v11q2 93 135 181l73 -68q-90 -37 -100 -77z" />
    <glyph glyph-name="quoteright" horiz-adv-x="388" 
d="M157 846q14 -7 26 -7q15 0 29 11q12 8 12 20t-14 28q-15 17 -32 17q-13 0 -27 -10q-14 -11 -14 -25q0 -15 20 -34zM190 797q-88 -2 -102 57q-4 17 -4 33q0 35 21 58q32 32 74 35h7q39 0 75 -26q37 -26 37 -110v-11q-2 -93 -135 -181l-73 68q90 37 100 77z" />
    <glyph glyph-name="quoteright" unicode="&#x2019;" horiz-adv-x="388" 
d="M157 846q14 -7 26 -7q15 0 29 11q12 8 12 20t-14 28q-15 17 -32 17q-13 0 -27 -10q-14 -11 -14 -25q0 -15 20 -34zM190 797q-88 -2 -102 57q-4 17 -4 33q0 35 21 58q32 32 74 35h7q39 0 75 -26q37 -26 37 -110v-11q-2 -93 -135 -181l-73 68q90 37 100 77z" />
    <glyph glyph-name="bullet" horiz-adv-x="480" 
d="M107 354q-14 31 -14 67q0 13 2 27q7 52 50 95q29 29 77 29q22 0 48 -6q82 -20 106 -72q12 -26 12 -56t-12 -64q-24 -68 -90 -89q-31 -10 -57 -10q-31 0 -56 13q-47 24 -66 66z" />
    <glyph glyph-name="bullet" unicode="&#x2022;" horiz-adv-x="480" 
d="M107 354q-14 31 -14 67q0 13 2 27q7 52 50 95q29 29 77 29q22 0 48 -6q82 -20 106 -72q12 -26 12 -56t-12 -64q-24 -68 -90 -89q-31 -10 -57 -10q-31 0 -56 13q-47 24 -66 66z" />
    <glyph glyph-name="endash" horiz-adv-x="554" 
d="M458 420v-114l-384 -19l-7 103z" />
    <glyph glyph-name="endash" unicode="&#x2013;" horiz-adv-x="554" 
d="M458 420v-114l-384 -19l-7 103z" />
    <glyph glyph-name="emdash" horiz-adv-x="554" 
d="M551 402l3 -122l-554 20l3 116z" />
    <glyph glyph-name="emdash" unicode="&#x2014;" horiz-adv-x="554" 
d="M551 402l3 -122l-554 20l3 116z" />
    <glyph glyph-name="maihanakatleftthai" horiz-adv-x="4" 
d="M-516 1003q56 -22 111 -6.5t55 131.5l119 -9q2 -16 2 -31q0 -78 -42 -121q-51 -52 -170 -58q-17 -1 -33 -1q-93 0 -136 32q-50 38 -56 129v10q0 80 92 85h13q88 0 103 -70q17 -75 -58 -91zM-523 1077q0 14 -14 25q-14 10 -27 10q-17 0 -32 -17q-14 -16 -14 -28t12 -20
q14 -11 29 -11q12 0 26 7q20 19 20 34z" />
    <glyph glyph-name="maihanakatleftthai" unicode="&#xf710;" horiz-adv-x="4" 
d="M-516 1003q56 -22 111 -6.5t55 131.5l119 -9q2 -16 2 -31q0 -78 -42 -121q-51 -52 -170 -58q-17 -1 -33 -1q-93 0 -136 32q-50 38 -56 129v10q0 80 92 85h13q88 0 103 -70q17 -75 -58 -91zM-523 1077q0 14 -14 25q-14 10 -27 10q-17 0 -32 -17q-14 -16 -14 -28t12 -20
q14 -11 29 -11q12 0 26 7q20 19 20 34z" />
    <glyph glyph-name="maihanakatleftthai" unicode="&#x2dc;" horiz-adv-x="4" 
d="M-516 1003q56 -22 111 -6.5t55 131.5l119 -9q2 -16 2 -31q0 -78 -42 -121q-51 -52 -170 -58q-17 -1 -33 -1q-93 0 -136 32q-50 38 -56 129v10q0 80 92 85h13q88 0 103 -70q17 -75 -58 -91zM-523 1077q0 14 -14 25q-14 10 -27 10q-17 0 -32 -17q-14 -16 -14 -28t12 -20
q14 -11 29 -11q12 0 26 7q20 19 20 34z" />
    <glyph glyph-name="nikhahitleftthai" horiz-adv-x="1" 
d="M-314 1015q0 10 -10 18q-10 6 -19 6q-16 -1 -23 -12q-4 -5 -4 -12t5 -14q7 -15 19 -15q7 0 17 6q15 13 15 23zM-340 1085q8 0 16 -1q30 -7 46 -40q10 -20 10 -40q0 -13 -5 -27q-11 -34 -56 -40q-9 -2 -16 -2q-31 0 -49 20q-22 23 -24 51v8q0 22 9.5 35t28.5 24.5t40 11.5
z" />
    <glyph glyph-name="nikhahitleftthai" unicode="&#xf711;" horiz-adv-x="1" 
d="M-314 1015q0 10 -10 18q-10 6 -19 6q-16 -1 -23 -12q-4 -5 -4 -12t5 -14q7 -15 19 -15q7 0 17 6q15 13 15 23zM-340 1085q8 0 16 -1q30 -7 46 -40q10 -20 10 -40q0 -13 -5 -27q-11 -34 -56 -40q-9 -2 -16 -2q-31 0 -49 20q-22 23 -24 51v8q0 22 9.5 35t28.5 24.5t40 11.5
z" />
    <glyph glyph-name="nikhahitleftthai" unicode="&#x2122;" horiz-adv-x="1" 
d="M-314 1015q0 10 -10 18q-10 6 -19 6q-16 -1 -23 -12q-4 -5 -4 -12t5 -14q7 -15 19 -15q7 0 17 6q15 13 15 23zM-340 1085q8 0 16 -1q30 -7 46 -40q10 -20 10 -40q0 -13 -5 -27q-11 -34 -56 -40q-9 -2 -16 -2q-31 0 -49 20q-22 23 -24 51v8q0 22 9.5 35t28.5 24.5t40 11.5
z" />
    <glyph glyph-name="maitaikhuleftthai" 
d="M-332 1058q0 14 -14 25q-14 10 -27 10q-23 -1 -34 -18t1.5 -37.5t27.5 -20.5q12 0 26 7q20 19 20 34zM-447 1003q-43 52 -35.5 89.5t50 59t94 4t64 -70t-16.5 -102.5t-106 -50q-78 0 -121.5 31t-61.5 99q-37 -58 -20 -128l-92 3q-57 116 -57 186q0 22 6 40
q23 74 117 112.5t190 27.5t147.5 -21t68.5 65l113 -23q-43 -140 -131.5 -135t-162 22t-154 -1t-96.5 -72t14 -91q25 80 90 105q5 -78 100 -150z" />
    <glyph glyph-name="maitaikhuleftthai" unicode="&#xf712;" 
d="M-332 1058q0 14 -14 25q-14 10 -27 10q-23 -1 -34 -18t1.5 -37.5t27.5 -20.5q12 0 26 7q20 19 20 34zM-447 1003q-43 52 -35.5 89.5t50 59t94 4t64 -70t-16.5 -102.5t-106 -50q-78 0 -121.5 31t-61.5 99q-37 -58 -20 -128l-92 3q-57 116 -57 186q0 22 6 40
q23 74 117 112.5t190 27.5t147.5 -21t68.5 65l113 -23q-43 -140 -131.5 -135t-162 22t-154 -1t-96.5 -72t14 -91q25 80 90 105q5 -78 100 -150z" />
    <glyph glyph-name="maitaikhuleftthai" unicode="&#x161;" 
d="M-332 1058q0 14 -14 25q-14 10 -27 10q-23 -1 -34 -18t1.5 -37.5t27.5 -20.5q12 0 26 7q20 19 20 34zM-447 1003q-43 52 -35.5 89.5t50 59t94 4t64 -70t-16.5 -102.5t-106 -50q-78 0 -121.5 31t-61.5 99q-37 -58 -20 -128l-92 3q-57 116 -57 186q0 22 6 40
q23 74 117 112.5t190 27.5t147.5 -21t68.5 65l113 -23q-43 -140 -131.5 -135t-162 22t-154 -1t-96.5 -72t14 -91q25 80 90 105q5 -78 100 -150z" />
    <glyph glyph-name="maiekupperleftthai" 
d="M-378 1259l5 183l118 -1l-8 -177z" />
    <glyph glyph-name="maiekupperleftthai" unicode="&#xf713;" 
d="M-378 1259l5 183l118 -1l-8 -177z" />
    <glyph glyph-name="maiekupperleftthai" unicode="&#x203a;" 
d="M-378 1259l5 183l118 -1l-8 -177z" />
    <glyph glyph-name="maithoupperleftthai" 
d="M-549 1437q0 14 -14 25q-14 10 -27 10q-23 -1 -34 -18q-5 -8 -5 -17q0 -10 7 -20q12 -21 27 -21q12 0 26 7q20 19 20 34zM-545 1373q-58 -39 -94 -14q-36 24 -36 75v1q0 52 34 71q24 13 54 13q12 0 25 -2q45 -8 64 -53t15 -87t-52 -68q150 10 182 53t36 115l128 -2
q-43 -161 -113.5 -197.5t-141.5 -45.5t-126 -10h-8q-50 0 -95 11l10 76q66 0 85 14t33 50z" />
    <glyph glyph-name="maithoupperleftthai" unicode="&#xf714;" 
d="M-549 1437q0 14 -14 25q-14 10 -27 10q-23 -1 -34 -18q-5 -8 -5 -17q0 -10 7 -20q12 -21 27 -21q12 0 26 7q20 19 20 34zM-545 1373q-58 -39 -94 -14q-36 24 -36 75v1q0 52 34 71q24 13 54 13q12 0 25 -2q45 -8 64 -53t15 -87t-52 -68q150 10 182 53t36 115l128 -2
q-43 -161 -113.5 -197.5t-141.5 -45.5t-126 -10h-8q-50 0 -95 11l10 76q66 0 85 14t33 50z" />
    <glyph glyph-name="maithoupperleftthai" unicode="&#x153;" 
d="M-549 1437q0 14 -14 25q-14 10 -27 10q-23 -1 -34 -18q-5 -8 -5 -17q0 -10 7 -20q12 -21 27 -21q12 0 26 7q20 19 20 34zM-545 1373q-58 -39 -94 -14q-36 24 -36 75v1q0 52 34 71q24 13 54 13q12 0 25 -2q45 -8 64 -53t15 -87t-52 -68q150 10 182 53t36 115l128 -2
q-43 -161 -113.5 -197.5t-141.5 -45.5t-126 -10h-8q-50 0 -95 11l10 76q66 0 85 14t33 50z" />
    <glyph glyph-name="maitriupperleftthai" 
d="M-485 1318q0 14 -14 25q-14 10 -27 10q-23 -1 -34 -18q-5 -8 -5 -17q0 -10 7 -20q12 -21 27 -21q12 0 26 7q20 19 20 34zM-553 1380q28 13 55.5 9.5t41 -27.5t9 -64.5t-46.5 -55.5q-24 -10 -45 -10q-16 0 -30 5q-31 19 -43 46.5t-17 85.5v16q0 47 25 84q30 42 78.5 51
t76 -17t37.5 -56q24 42 55.5 61t78.5 13.5t64.5 -55.5t0.5 -144q78 13 98.5 53.5t-20.5 142.5l104 29q20 -82 20 -139t-20 -86q-54 -89 -287 -76q34 97 27.5 140t-45 54t-77.5 -77q-33 58 -71.5 73.5t-56 -3.5t-12.5 -53z" />
    <glyph glyph-name="maitriupperleftthai" unicode="&#xf715;" 
d="M-485 1318q0 14 -14 25q-14 10 -27 10q-23 -1 -34 -18q-5 -8 -5 -17q0 -10 7 -20q12 -21 27 -21q12 0 26 7q20 19 20 34zM-553 1380q28 13 55.5 9.5t41 -27.5t9 -64.5t-46.5 -55.5q-24 -10 -45 -10q-16 0 -30 5q-31 19 -43 46.5t-17 85.5v16q0 47 25 84q30 42 78.5 51
t76 -17t37.5 -56q24 42 55.5 61t78.5 13.5t64.5 -55.5t0.5 -144q78 13 98.5 53.5t-20.5 142.5l104 29q20 -82 20 -139t-20 -86q-54 -89 -287 -76q34 97 27.5 140t-45 54t-77.5 -77q-33 58 -71.5 73.5t-56 -3.5t-12.5 -53z" />
    <glyph glyph-name="maichattawaupperleftthai" 
d="M-485 1302l-128 -1l2 105l120 -1l10 146l127 -2l-4 -140l122 1l-2 -105l-123 1l2 -109l-130 4z" />
    <glyph glyph-name="maichattawaupperleftthai" unicode="&#xf716;" 
d="M-485 1302l-128 -1l2 105l120 -1l10 146l127 -2l-4 -140l122 1l-2 -105l-123 1l2 -109l-130 4z" />
    <glyph glyph-name="maichattawaupperleftthai" unicode="&#x17e;" 
d="M-485 1302l-128 -1l2 105l120 -1l10 146l127 -2l-4 -140l122 1l-2 -105l-123 1l2 -109l-130 4z" />
    <glyph glyph-name="thanthakhatupperleftthai" horiz-adv-x="4" 
d="M-217 1266q0 14 -14 25q-14 10 -27 10q-23 -1 -34 -18q-5 -8 -5 -17q0 -10 7 -20q12 -21 27 -21q12 0 26 7q20 19 20 34zM-294 1334q41 18 70.5 13t43 -15.5t19 -61t-31.5 -76.5t-83 -26q-1 0 -2 1q-48 0 -73 25.5t-33 81.5q-3 16 -3 32q0 35 14 63q19 39 73.5 60.5
t106 23.5t87.5 56l95 -62q-61 -77 -115.5 -83.5t-91 3.5t-60 1t-16.5 -36z" />
    <glyph glyph-name="thanthakhatupperleftthai" unicode="&#xf717;" horiz-adv-x="4" 
d="M-217 1266q0 14 -14 25q-14 10 -27 10q-23 -1 -34 -18q-5 -8 -5 -17q0 -10 7 -20q12 -21 27 -21q12 0 26 7q20 19 20 34zM-294 1334q41 18 70.5 13t43 -15.5t19 -61t-31.5 -76.5t-83 -26q-1 0 -2 1q-48 0 -73 25.5t-33 81.5q-3 16 -3 32q0 35 14 63q19 39 73.5 60.5
t106 23.5t87.5 56l95 -62q-61 -77 -115.5 -83.5t-91 3.5t-60 1t-16.5 -36z" />
    <glyph glyph-name="thanthakhatupperleftthai" unicode="&#x178;" horiz-adv-x="4" 
d="M-217 1266q0 14 -14 25q-14 10 -27 10q-23 -1 -34 -18q-5 -8 -5 -17q0 -10 7 -20q12 -21 27 -21q12 0 26 7q20 19 20 34zM-294 1334q41 18 70.5 13t43 -15.5t19 -61t-31.5 -76.5t-83 -26q-1 0 -2 1q-48 0 -73 25.5t-33 81.5q-3 16 -3 32q0 35 14 63q19 39 73.5 60.5
t106 23.5t87.5 56l95 -62q-61 -77 -115.5 -83.5t-91 3.5t-60 1t-16.5 -36z" />
    <glyph glyph-name="uni00A0" unicode="&#xa0;" horiz-adv-x="925" 
 />
    <glyph glyph-name="uni00A0" unicode="&#xe00;" horiz-adv-x="925" 
 />
    <glyph glyph-name="kokaithai" unicode="&#xa1;" horiz-adv-x="856" 
d="M130 4q-12 101 -12 180q0 262 131 290l-168 1q49 289 214 315q63 8 126 8q76 0 153 -11q139 -21 163 -232q22 -126 22 -280q0 -122 2 -274l-142 -3q4 370 -12 533t-196 163t-209 -132h145l-3 -138q-91 -3 -91.5 -106.5t27.5 -310.5z" />
    <glyph glyph-name="kokaithai" unicode="&#xe01;" horiz-adv-x="856" 
d="M130 4q-12 101 -12 180q0 262 131 290l-168 1q49 289 214 315q63 8 126 8q76 0 153 -11q139 -21 163 -232q22 -126 22 -280q0 -122 2 -274l-142 -3q4 370 -12 533t-196 163t-209 -132h145l-3 -138q-91 -3 -91.5 -106.5t27.5 -310.5z" />
    <glyph glyph-name="khokhaithai" unicode="&#xa2;" horiz-adv-x="732" 
d="M354 107l144 -9l6 703l139 -16q-13 -235 -32 -778h-476v122l103 -6q34 194 60 451q-35 -53 -152 -29q-58 5 -58 98v18q6 111 103 133q15 3 29 3q79 0 133 -56t59 -152t-58 -482zM265 671q0 14 -14 25t-27 11q-17 0 -32 -18q-14 -16 -14 -28t12 -20q14 -10 29 -10
q12 0 26 6q20 19 20 34z" />
    <glyph glyph-name="khokhaithai" unicode="&#xe02;" horiz-adv-x="732" 
d="M354 107l144 -9l6 703l139 -16q-13 -235 -32 -778h-476v122l103 -6q34 194 60 451q-35 -53 -152 -29q-58 5 -58 98v18q6 111 103 133q15 3 29 3q79 0 133 -56t59 -152t-58 -482zM265 671q0 14 -14 25t-27 11q-17 0 -32 -18q-14 -16 -14 -28t12 -20q14 -10 29 -10
q12 0 26 6q20 19 20 34z" />
    <glyph glyph-name="khokhuatthai" unicode="&#xa3;" horiz-adv-x="894" 
d="M225 671q0 14 -14 25t-27 11q-17 0 -32 -18q-14 -16 -14 -28t12 -20q14 -10 29 -10q12 0 26 6q20 19 20 34zM119 556q-57 49 -57 101v3q1 53 50 100q37 36 77 36q12 0 25 -3q53 -14 81 -47t31 -155l104 194l134 -28q-53 -330 -59 -618l163 -10q6 314 -3 650l125 5
q-9 -270 22 -781l-580 -5l-6 166l157 -16q-7 223 56 499l-97 -151l-79 3l4 101q-41 -79 -148 -44z" />
    <glyph glyph-name="khokhuatthai" unicode="&#xe03;" horiz-adv-x="894" 
d="M225 671q0 14 -14 25t-27 11q-17 0 -32 -18q-14 -16 -14 -28t12 -20q14 -10 29 -10q12 0 26 6q20 19 20 34zM119 556q-57 49 -57 101v3q1 53 50 100q37 36 77 36q12 0 25 -3q53 -14 81 -47t31 -155l104 194l134 -28q-53 -330 -59 -618l163 -10q6 314 -3 650l125 5
q-9 -270 22 -781l-580 -5l-6 166l157 -16q-7 223 56 499l-97 -151l-79 3l4 101q-41 -79 -148 -44z" />
    <glyph glyph-name="khokhwaithai" unicode="&#xa4;" horiz-adv-x="842" 
d="M355 322q-28 -148 -28 -317h-201q-44 359 -44 514q0 48 4 77q18 121 181 173q81 36 169 36q70 0 145 -23q166 -53 175 -304l-4 -479l-143 12q47 568 -44 637t-214.5 34.5t-142 -150.5t24.5 -428q13 346 102 382t161.5 0.5t36.5 -136t-178 -28.5zM467 403q0 14 -14 25
q-14 10 -27 10q-17 0 -32 -17q-14 -16 -14 -29q0 -11 12 -20q14 -10 29 -10q13 0 26 7q20 19 20 34z" />
    <glyph glyph-name="khokhwaithai" unicode="&#xe04;" horiz-adv-x="842" 
d="M355 322q-28 -148 -28 -317h-201q-44 359 -44 514q0 48 4 77q18 121 181 173q81 36 169 36q70 0 145 -23q166 -53 175 -304l-4 -479l-143 12q47 568 -44 637t-214.5 34.5t-142 -150.5t24.5 -428q13 346 102 382t161.5 0.5t36.5 -136t-178 -28.5zM467 403q0 14 -14 25
q-14 10 -27 10q-17 0 -32 -17q-14 -16 -14 -29q0 -11 12 -20q14 -10 29 -10q13 0 26 7q20 19 20 34z" />
    <glyph glyph-name="khokhonthai" unicode="&#xa5;" horiz-adv-x="868" 
d="M320 0h-192q-42 410 -42 582q0 98 14 119q37 58 93.5 92.5t141.5 34.5q84 0 97 -154q69 123 130 130.5t105 3t96 -126.5q32 -76 32 -317q0 -149 -12 -361l-147 13q69 661 -21 678.5t-99 -98.5l-147 -9q-6 112 -89.5 110.5t-77 -126.5t31.5 -443q32 164 58.5 256.5t92 111
t119 -16t49 -103.5t-67.5 -95.5t-122 29.5q-44 -125 -43 -310zM475 382q0 14 -15 25q-13 10 -26 10q-17 0 -32 -17q-14 -16 -14 -28t12 -20q14 -11 29 -11q12 0 26 7q20 19 20 34z" />
    <glyph glyph-name="khokhonthai" unicode="&#xe05;" horiz-adv-x="868" 
d="M320 0h-192q-42 410 -42 582q0 98 14 119q37 58 93.5 92.5t141.5 34.5q84 0 97 -154q69 123 130 130.5t105 3t96 -126.5q32 -76 32 -317q0 -149 -12 -361l-147 13q69 661 -21 678.5t-99 -98.5l-147 -9q-6 112 -89.5 110.5t-77 -126.5t31.5 -443q32 164 58.5 256.5t92 111
t119 -16t49 -103.5t-67.5 -95.5t-122 29.5q-44 -125 -43 -310zM475 382q0 14 -15 25q-13 10 -26 10q-17 0 -32 -17q-14 -16 -14 -28t12 -20q14 -11 29 -11q12 0 26 7q20 19 20 34z" />
    <glyph glyph-name="khorakhangthai" unicode="&#xa6;" horiz-adv-x="980" 
d="M287 624q-63 -107 -115 -86q-91 14 -102 94q-2 12 -2 24q0 60 50 87q59 32 117 17.5t108 -123.5l53 134l176 -22l-16 -438q145 -13 202 -192l5 666l138 4l-14 -790l-208 1q3 179 -129 216l-3 -219q-317 12 -343.5 104.5t33.5 158t196 57.5l7 329l-59 -119h-82
q22 53 -12 97zM425 102l4 127q-87 -7 -112.5 -29t-1.5 -54t110 -44zM220 655q0 14 -14 25q-14 10 -27 10q-17 0 -32 -17q-14 -16 -14 -29q0 -11 12 -20q14 -10 29 -10q12 0 26 7q20 19 20 34z" />
    <glyph glyph-name="khorakhangthai" unicode="&#xe06;" horiz-adv-x="980" 
d="M287 624q-63 -107 -115 -86q-91 14 -102 94q-2 12 -2 24q0 60 50 87q59 32 117 17.5t108 -123.5l53 134l176 -22l-16 -438q145 -13 202 -192l5 666l138 4l-14 -790l-208 1q3 179 -129 216l-3 -219q-317 12 -343.5 104.5t33.5 158t196 57.5l7 329l-59 -119h-82
q22 53 -12 97zM425 102l4 127q-87 -7 -112.5 -29t-1.5 -54t110 -44zM220 655q0 14 -14 25q-14 10 -27 10q-17 0 -32 -17q-14 -16 -14 -29q0 -11 12 -20q14 -10 29 -10q12 0 26 7q20 19 20 34z" />
    <glyph glyph-name="ngonguthai" unicode="&#xa7;" horiz-adv-x="689" 
d="M452 685q0 16 -16 28t-30 12q-19 0 -36 -20q-15 -17 -15 -31q0 -13 13 -23q15 -11 32 -11q14 0 30 7q22 21 22 38zM581 710q25 -51 25 -153q0 -38 -4 -84l-39 -478l-188 2q-168 369 -334 454l95 82q184 -107 309 -436q41 280 38 483q-108 -58 -174 -2t-54 131t84 91
q40 8 75 8q28 0 54 -5q56 -13 113 -93z" />
    <glyph glyph-name="ngonguthai" unicode="&#xe07;" horiz-adv-x="689" 
d="M452 685q0 16 -16 28t-30 12q-19 0 -36 -20q-15 -17 -15 -31q0 -13 13 -23q15 -11 32 -11q14 0 30 7q22 21 22 38zM581 710q25 -51 25 -153q0 -38 -4 -84l-39 -478l-188 2q-168 369 -334 454l95 82q184 -107 309 -436q41 280 38 483q-108 -58 -174 -2t-54 131t84 91
q40 8 75 8q28 0 54 -5q56 -13 113 -93z" />
    <glyph glyph-name="chochanthai" unicode="&#xa8;" horiz-adv-x="715" 
d="M364 402q0 16 -16 28t-30 12q-19 0 -36 -20q-15 -17 -15 -31q0 -13 13 -23q15 -11 32 -11q14 0 30 7q22 21 22 38zM523 128q36 384 -16.5 491t-204 77t-131.5 -153l-123 2q-3 16 -3 32q0 97 107 168q92 62 204 62q38 0 78 -7q158 -29 204 -226q20 -89 20 -214
q0 -154 -31 -362l-179 -6l-47 331q-56 -41 -108 -42.5t-94 56.5t14 136.5t159.5 52t150.5 -397.5z" />
    <glyph glyph-name="chochanthai" unicode="&#xe08;" horiz-adv-x="715" 
d="M364 402q0 16 -16 28t-30 12q-19 0 -36 -20q-15 -17 -15 -31q0 -13 13 -23q15 -11 32 -11q14 0 30 7q22 21 22 38zM523 128q36 384 -16.5 491t-204 77t-131.5 -153l-123 2q-3 16 -3 32q0 97 107 168q92 62 204 62q38 0 78 -7q158 -29 204 -226q20 -89 20 -214
q0 -154 -31 -362l-179 -6l-47 331q-56 -41 -108 -42.5t-94 56.5t14 136.5t159.5 52t150.5 -397.5z" />
    <glyph glyph-name="chochingthai" unicode="&#xa9;" horiz-adv-x="882" 
d="M257 405q0 14 -15 25q-14 10 -27 10q-16 0 -32 -17q-13 -16 -13 -28t11 -20q14 -11 29 -11q13 0 27 7q20 19 20 34zM364 124q72 131 192 166q15 232 -21.5 323t-187.5 94t-170 -127l-106 12q9 114 101 178q50 34 174 38q67 0 155 -25q190 -55 165 -489q150 18 169 -134
q1 -12 1 -22q0 -139 -194 -139h-11l-78 2v176q-119 -47 -116 -176h-177l19 333q-44 -41 -81.5 -39.5t-76.5 36.5q-23 20 -23 53q0 25 12 56q28 75 94 78.5t124.5 -45.5t35.5 -349zM662 199v-110q88 20 85.5 69.5t-85.5 40.5z" />
    <glyph glyph-name="chochingthai" unicode="&#xe09;" horiz-adv-x="882" 
d="M257 405q0 14 -15 25q-14 10 -27 10q-16 0 -32 -17q-13 -16 -13 -28t11 -20q14 -11 29 -11q13 0 27 7q20 19 20 34zM364 124q72 131 192 166q15 232 -21.5 323t-187.5 94t-170 -127l-106 12q9 114 101 178q50 34 174 38q67 0 155 -25q190 -55 165 -489q150 18 169 -134
q1 -12 1 -22q0 -139 -194 -139h-11l-78 2v176q-119 -47 -116 -176h-177l19 333q-44 -41 -81.5 -39.5t-76.5 36.5q-23 20 -23 53q0 25 12 56q28 75 94 78.5t124.5 -45.5t35.5 -349zM662 199v-110q88 20 85.5 69.5t-85.5 40.5z" />
    <glyph glyph-name="chochangthai" unicode="&#xaa;" horiz-adv-x="736" 
d="M237 688q0 14 -14 25q-14 10 -27 10q-17 0 -32 -17q-14 -16 -14 -28t12 -20q14 -11 29 -11q12 0 26 7q20 19 20 34zM363 686q71 4 100 22t47 72.5t1 153.5l162 -4q-24 -147 -56.5 -219t-175.5 -85q126 -22 129 -135l7 -489l-439 -3l15 128h97l19 477q-88 -47 -127 -42.5
t-69 77.5q-12 30 -12 55q0 36 25 64q89 78 173.5 40.5t103.5 -112.5zM383 600l-17 -476l90 3l10 213q12 226 -83 260z" />
    <glyph glyph-name="chochangthai" unicode="&#xe0a;" horiz-adv-x="736" 
d="M237 688q0 14 -14 25q-14 10 -27 10q-17 0 -32 -17q-14 -16 -14 -28t12 -20q14 -11 29 -11q12 0 26 7q20 19 20 34zM363 686q71 4 100 22t47 72.5t1 153.5l162 -4q-24 -147 -56.5 -219t-175.5 -85q126 -22 129 -135l7 -489l-439 -3l15 128h97l19 477q-88 -47 -127 -42.5
t-69 77.5q-12 30 -12 55q0 36 25 64q89 78 173.5 40.5t103.5 -112.5zM383 600l-17 -476l90 3l10 213q12 226 -83 260z" />
    <glyph glyph-name="sosothai" unicode="&#xab;" horiz-adv-x="876" 
d="M225 674q0 14 -14 25q-14 10 -27 10q-17 0 -32 -17q-14 -16 -14 -28t12 -20q14 -11 29 -11q12 0 26 7q20 19 20 34zM558 681q46 11 75 29t47 53.5t32 137.5l131 -6q-24 -148 -56.5 -201t-143.5 -85q85 -34 97 -116l7 -489l-439 -3l15 131l97 -12l41 583l-101 -150l-54 17
l-11 71q-51 -95 -121 -90.5t-100 77.5q-12 30 -12 55q0 36 25 64q180 120 263 -78l61 116l138 -19zM559 596l-23 -479l96 -10l-2 331q13 116 -71 158z" />
    <glyph glyph-name="sosothai" unicode="&#xe0b;" horiz-adv-x="876" 
d="M225 674q0 14 -14 25q-14 10 -27 10q-17 0 -32 -17q-14 -16 -14 -28t12 -20q14 -11 29 -11q12 0 26 7q20 19 20 34zM558 681q46 11 75 29t47 53.5t32 137.5l131 -6q-24 -148 -56.5 -201t-143.5 -85q85 -34 97 -116l7 -489l-439 -3l15 131l97 -12l41 583l-101 -150l-54 17
l-11 71q-51 -95 -121 -90.5t-100 77.5q-12 30 -12 55q0 36 25 64q180 120 263 -78l61 116l138 -19zM559 596l-23 -479l96 -10l-2 331q13 116 -71 158z" />
    <glyph glyph-name="chochoethai" unicode="&#xac;" horiz-adv-x="1140" 
d="M321 144q0 14 -14 25q-13 10 -25 10q-17 0 -31 -17q-13 -16 -13 -28t11 -20q14 -11 28 -11q11 0 25 7q19 19 19 34zM195 242q76 51 145 0.5t49.5 -127.5t-62.5 -102q-33 -18 -72 -18q-29 0 -60 9q-75 22 -109 184q-18 79 -18 140q0 63 18 107q37 86 143 121l-164 3
l19 128q109 104 304 104h33q176 -10 244.5 -104t54.5 -307q146 -25 200 -244l-8 646l137 2l-17 -796h-196q-8 226 -122 289l-15 -283l-81 -3q-209 75 -176.5 227.5t155.5 164.5q9 131 -13 201t-119.5 99t-278.5 -46l178 -6l-9 -129q-121 -21 -156 -95t-4 -165zM592 109
l8 174q-68 -6 -68 -84.5t60 -89.5z" />
    <glyph glyph-name="chochoethai" unicode="&#xe0c;" horiz-adv-x="1140" 
d="M321 144q0 14 -14 25q-13 10 -25 10q-17 0 -31 -17q-13 -16 -13 -28t11 -20q14 -11 28 -11q11 0 25 7q19 19 19 34zM195 242q76 51 145 0.5t49.5 -127.5t-62.5 -102q-33 -18 -72 -18q-29 0 -60 9q-75 22 -109 184q-18 79 -18 140q0 63 18 107q37 86 143 121l-164 3
l19 128q109 104 304 104h33q176 -10 244.5 -104t54.5 -307q146 -25 200 -244l-8 646l137 2l-17 -796h-196q-8 226 -122 289l-15 -283l-81 -3q-209 75 -176.5 227.5t155.5 164.5q9 131 -13 201t-119.5 99t-278.5 -46l178 -6l-9 -129q-121 -21 -156 -95t-4 -165zM592 109
l8 174q-68 -6 -68 -84.5t60 -89.5z" />
    <glyph glyph-name="yoyingthai" unicode="&#xad;" horiz-adv-x="1040" 
d="M331 144q0 14 -14 25q-14 10 -27 10q-17 0 -32 -17q-14 -16 -14 -28t12 -20q14 -11 29 -11q12 0 26 7q20 19 20 34zM232 239q109 41 159.5 -20.5t27 -121t-100.5 -85.5q-26 -9 -50 -9q-49 0 -94 35q-67 53 -58 395q16 88 125 132l-169 6l6 85q138 122 295 130q14 1 27 1
q137 0 213 -77q83 -85 67 -593l132 -4l-18 656l137 6l12 -778l-407 16q28 380 18.5 489.5t-73.5 158t-145.5 37.5t-128.5 -61l153 -19l-3 -116q-110 -12 -125.5 -57.5t0.5 -205.5zM652 -193q56 -22 111 -6.5t55 131.5l119 -9q2 -16 2 -31q0 -78 -42 -121q-51 -52 -170 -58
q-17 -1 -33 -1q-93 0 -136 32q-50 38 -56.5 128.5t92.5 95.5t116 -70t-58 -91zM645 -119q0 14 -14 25q-14 10 -27 10q-17 0 -32 -17q-14 -16 -14 -28t12 -20q14 -11 29 -11q12 0 26 7q20 19 20 34z" />
    <glyph glyph-name="yoyingthai" unicode="&#xe0d;" horiz-adv-x="1040" 
d="M331 144q0 14 -14 25q-14 10 -27 10q-17 0 -32 -17q-14 -16 -14 -28t12 -20q14 -11 29 -11q12 0 26 7q20 19 20 34zM232 239q109 41 159.5 -20.5t27 -121t-100.5 -85.5q-26 -9 -50 -9q-49 0 -94 35q-67 53 -58 395q16 88 125 132l-169 6l6 85q138 122 295 130q14 1 27 1
q137 0 213 -77q83 -85 67 -593l132 -4l-18 656l137 6l12 -778l-407 16q28 380 18.5 489.5t-73.5 158t-145.5 37.5t-128.5 -61l153 -19l-3 -116q-110 -12 -125.5 -57.5t0.5 -205.5zM652 -193q56 -22 111 -6.5t55 131.5l119 -9q2 -16 2 -31q0 -78 -42 -121q-51 -52 -170 -58
q-17 -1 -33 -1q-93 0 -136 32q-50 38 -56.5 128.5t92.5 95.5t116 -70t-58 -91zM645 -119q0 14 -14 25q-14 10 -27 10q-17 0 -32 -17q-14 -16 -14 -28t12 -20q14 -11 29 -11q12 0 26 7q20 19 20 34z" />
    <glyph glyph-name="yoyingthai" unicode="&#xde;" horiz-adv-x="1040" 
d="M331 144q0 14 -14 25q-14 10 -27 10q-17 0 -32 -17q-14 -16 -14 -28t12 -20q14 -11 29 -11q12 0 26 7q20 19 20 34zM232 239q109 41 159.5 -20.5t27 -121t-100.5 -85.5q-26 -9 -50 -9q-49 0 -94 35q-67 53 -58 395q16 88 125 132l-169 6l6 85q138 122 295 130q14 1 27 1
q137 0 213 -77q83 -85 67 -593l132 -4l-18 656l137 6l12 -778l-407 16q28 380 18.5 489.5t-73.5 158t-145.5 37.5t-128.5 -61l153 -19l-3 -116q-110 -12 -125.5 -57.5t0.5 -205.5zM652 -193q56 -22 111 -6.5t55 131.5l119 -9q2 -16 2 -31q0 -78 -42 -121q-51 -52 -170 -58
q-17 -1 -33 -1q-93 0 -136 32q-50 38 -56.5 128.5t92.5 95.5t116 -70t-58 -91zM645 -119q0 14 -14 25q-14 10 -27 10q-17 0 -32 -17q-14 -16 -14 -28t12 -20q14 -11 29 -11q12 0 26 7q20 19 20 34z" />
    <glyph glyph-name="dochadathai" unicode="&#xae;" horiz-adv-x="840" 
d="M227 113q0 14 -14 25q-14 10 -27 10q-17 0 -32 -17q-14 -16 -14 -28t12 -20q14 -11 29 -11q12 0 26 7q20 19 20 34zM323 512l-219 -21l-9 98q57 107 146 162q81 50 247 50h31q188 -5 216 -250q7 -74 7 -182q0 -255 -19 -640l-198 -3q-6 59 -78 107q-65 -54 -118.5 -43
t-71.5 55t16 77.5t73 36.5t95 -36q24 22 39 90l95 -17q-21 -73 -67 -107q76 -27 81 -53q35 538 21.5 698.5t-153 168t-238.5 -107.5h208l9 -129q-144 -27 -131 -104.5l32.5 -189t-52 -153.5t-135 -25.5t-80.5 82.5q-3 15 -3 30q0 46 40 83q62 49 110 13q-71 280 106 310z
M401 -117q-38 31 -60 27.5t-31 -28.5q0 -10 10 -17q12 -10 25 -10q25 -3 56 28z" />
    <glyph glyph-name="dochadathai" unicode="&#xe0e;" horiz-adv-x="840" 
d="M227 113q0 14 -14 25q-14 10 -27 10q-17 0 -32 -17q-14 -16 -14 -28t12 -20q14 -11 29 -11q12 0 26 7q20 19 20 34zM323 512l-219 -21l-9 98q57 107 146 162q81 50 247 50h31q188 -5 216 -250q7 -74 7 -182q0 -255 -19 -640l-198 -3q-6 59 -78 107q-65 -54 -118.5 -43
t-71.5 55t16 77.5t73 36.5t95 -36q24 22 39 90l95 -17q-21 -73 -67 -107q76 -27 81 -53q35 538 21.5 698.5t-153 168t-238.5 -107.5h208l9 -129q-144 -27 -131 -104.5l32.5 -189t-52 -153.5t-135 -25.5t-80.5 82.5q-3 15 -3 30q0 46 40 83q62 49 110 13q-71 280 106 310z
M401 -117q-38 31 -60 27.5t-31 -28.5q0 -10 10 -17q12 -10 25 -10q25 -3 56 28z" />
    <glyph glyph-name="topatakthai" unicode="&#xaf;" horiz-adv-x="854" 
d="M245 115q0 14 -14 25q-14 10 -27 10q-17 0 -32 -17q-14 -16 -14 -28t12 -20q14 -11 29 -11q12 0 26 7q20 19 20 34zM341 514l-219 -21l-9 98q57 107 146 162q81 50 247 50h31q188 -5 216 -250q7 -74 7 -182q0 -255 -13 -668h-150l-38 116l-45 -107l-98 9q9 54 -64 101
q-64 -53 -117.5 -42.5t-71.5 55t15.5 78t72.5 36.5t95 -36q40 27 39 90l95 -17q-21 -73 -67 -107q39 -31 60 -81l40 107l76 1l39 -93q16 563 2.5 723.5t-154 168t-239.5 -107.5h208l9 -129q-144 -27 -131 -104.5l32.5 -189t-52 -153.5t-135 -25.5t-80.5 82.5q-3 15 -3 30
q0 46 40 83q62 49 110 13q-71 280 106 310zM306 -127q-38 31 -60 27.5t-31 -28.5q0 -10 10 -17q12 -10 25 -10q25 -3 56 28z" />
    <glyph glyph-name="topatakthai" unicode="&#xe0f;" horiz-adv-x="854" 
d="M245 115q0 14 -14 25q-14 10 -27 10q-17 0 -32 -17q-14 -16 -14 -28t12 -20q14 -11 29 -11q12 0 26 7q20 19 20 34zM341 514l-219 -21l-9 98q57 107 146 162q81 50 247 50h31q188 -5 216 -250q7 -74 7 -182q0 -255 -13 -668h-150l-38 116l-45 -107l-98 9q9 54 -64 101
q-64 -53 -117.5 -42.5t-71.5 55t15.5 78t72.5 36.5t95 -36q40 27 39 90l95 -17q-21 -73 -67 -107q39 -31 60 -81l40 107l76 1l39 -93q16 563 2.5 723.5t-154 168t-239.5 -107.5h208l9 -129q-144 -27 -131 -104.5l32.5 -189t-52 -153.5t-135 -25.5t-80.5 82.5q-3 15 -3 30
q0 46 40 83q62 49 110 13q-71 280 106 310zM306 -127q-38 31 -60 27.5t-31 -28.5q0 -10 10 -17q12 -10 25 -10q25 -3 56 28z" />
    <glyph glyph-name="thothanthai" unicode="&#xb0;" horiz-adv-x="758" 
d="M299 364q0 14 -14 25q-14 10 -26 10q-17 0 -32 -17q-13 -16 -13 -27q0 -12 11 -20q14 -11 29 -11q12 0 25 7q20 19 20 33zM458 82q80 373 -44.5 444t-245.5 -42l-103 78q72 155 154 195q66 33 119 33q11 0 23 -2q60 -9 128 -29.5t126 38.5l74 -82q-85 -82 -150.5 -58.5
t-170.5 27.5t-186 -89q198 97 346 -21.5t12 -571.5l-164 4q-8 170 -53 276q-109 -43 -149.5 11.5t-4 122t135.5 45t153 -378.5zM581 -126q0 14 -13 25q-12 10 -24 10q-16 0 -29 -17q-13 -16 -13 -28t11 -20q13 -11 26 -11q11 0 24 7q18 19 18 34zM526 -231l18 28
q-68 2 -77.5 46t19 76.5t84 26.5t66 -52.5t-75.5 -172.5l-95 2l-52 57l-34 -55l-82 -2q-12 40 -36 76q-29 -59 -72 -57t-57 50.5t8.5 91.5t57 36.5t62.5 -40.5l39 83l53 -38l-59 -78q36 -42 48 -82l46 103l38 -4l76 -96zM237 -168q-18 33 -34.5 38.5t-29.5 -15.5
q-12 -20 -12 -35t11 -25q12 -13 29 -6.5t36 43.5z" />
    <glyph glyph-name="thothanthai" unicode="&#xe10;" horiz-adv-x="758" 
d="M299 364q0 14 -14 25q-14 10 -26 10q-17 0 -32 -17q-13 -16 -13 -27q0 -12 11 -20q14 -11 29 -11q12 0 25 7q20 19 20 33zM458 82q80 373 -44.5 444t-245.5 -42l-103 78q72 155 154 195q66 33 119 33q11 0 23 -2q60 -9 128 -29.5t126 38.5l74 -82q-85 -82 -150.5 -58.5
t-170.5 27.5t-186 -89q198 97 346 -21.5t12 -571.5l-164 4q-8 170 -53 276q-109 -43 -149.5 11.5t-4 122t135.5 45t153 -378.5zM581 -126q0 14 -13 25q-12 10 -24 10q-16 0 -29 -17q-13 -16 -13 -28t11 -20q13 -11 26 -11q11 0 24 7q18 19 18 34zM526 -231l18 28
q-68 2 -77.5 46t19 76.5t84 26.5t66 -52.5t-75.5 -172.5l-95 2l-52 57l-34 -55l-82 -2q-12 40 -36 76q-29 -59 -72 -57t-57 50.5t8.5 91.5t57 36.5t62.5 -40.5l39 83l53 -38l-59 -78q36 -42 48 -82l46 103l38 -4l76 -96zM237 -168q-18 33 -34.5 38.5t-29.5 -15.5
q-12 -20 -12 -35t11 -25q12 -13 29 -6.5t36 43.5z" />
    <glyph glyph-name="thonangmonthothai" unicode="&#xb1;" horiz-adv-x="976" 
d="M202 685q0 14 -14 25q-14 10 -27 10q-17 0 -32 -17q-14 -16 -14 -28t12 -20q14 -11 29 -11q12 0 26 7q20 19 20 34zM241 641q-38 -69 -91.5 -64t-79.5 37q-23 26 -23 74q0 8 1 17q4 60 64 84q30 12 57 12q26 0 50 -11q47 -23 93 -132l46 128l152 4v-254q39 248 192 248
q28 0 60 -8q133 -36 133 -360q0 -168 -36 -414l-124 2q34 406 30.5 538.5t-90.5 117.5t-155 -217l11 -441l-162 -2l27 668l-63 -134l-69 6q12 63 -23 101z" />
    <glyph glyph-name="thonangmonthothai" unicode="&#xe11;" horiz-adv-x="976" 
d="M202 685q0 14 -14 25q-14 10 -27 10q-17 0 -32 -17q-14 -16 -14 -28t12 -20q14 -11 29 -11q12 0 26 7q20 19 20 34zM241 641q-38 -69 -91.5 -64t-79.5 37q-23 26 -23 74q0 8 1 17q4 60 64 84q30 12 57 12q26 0 50 -11q47 -23 93 -132l46 128l152 4v-254q39 248 192 248
q28 0 60 -8q133 -36 133 -360q0 -168 -36 -414l-124 2q34 406 30.5 538.5t-90.5 117.5t-155 -217l11 -441l-162 -2l27 668l-63 -134l-69 6q12 63 -23 101z" />
    <glyph glyph-name="thophuthaothai" unicode="&#xb2;" horiz-adv-x="1134" 
d="M389 435q0 14 -14 25q-14 10 -27 10q-17 0 -32 -17q-14 -16 -14 -28t12 -20q14 -11 29 -11q12 0 26 7q20 19 20 34zM599 94l12 178q-84 41 -84.5 -37.5t72.5 -140.5zM360 338q-50 -19 -91 17t-26 101t97 77.5t117.5 -68t-164.5 -465.5l-132 2q-81 416 -81 586q0 58 10 88
q37 114 140 122q19 1 35 1q74 0 99 -27q30 -34 53 -104q19 95 96 119q25 8 49 8q52 0 104 -34q75 -51 43 -400q91 -33 219 -205l-34 628l160 10l-6 -802l-189 6q-36 153 -154 231l-21 -229l-117 2q-112 101 -123.5 193.5t25.5 144t135 45.5q36 176 21.5 250.5t-67 80
t-75.5 -139.5l-127 4q-19 147 -69 148t-88 -65t38 -552q63 95 123 227z" />
    <glyph glyph-name="thophuthaothai" unicode="&#xe12;" horiz-adv-x="1134" 
d="M389 435q0 14 -14 25q-14 10 -27 10q-17 0 -32 -17q-14 -16 -14 -28t12 -20q14 -11 29 -11q12 0 26 7q20 19 20 34zM599 94l12 178q-84 41 -84.5 -37.5t72.5 -140.5zM360 338q-50 -19 -91 17t-26 101t97 77.5t117.5 -68t-164.5 -465.5l-132 2q-81 416 -81 586q0 58 10 88
q37 114 140 122q19 1 35 1q74 0 99 -27q30 -34 53 -104q19 95 96 119q25 8 49 8q52 0 104 -34q75 -51 43 -400q91 -33 219 -205l-34 628l160 10l-6 -802l-189 6q-36 153 -154 231l-21 -229l-117 2q-112 101 -123.5 193.5t25.5 144t135 45.5q36 176 21.5 250.5t-67 80
t-75.5 -139.5l-127 4q-19 147 -69 148t-88 -65t38 -552q63 95 123 227z" />
    <glyph glyph-name="nonenthai" unicode="&#xb3;" horiz-adv-x="1066" 
d="M304 97q0 14 -14 25q-14 10 -27 10q-17 0 -32 -17q-14 -16 -14 -28t12 -20q14 -11 29 -11q12 0 26 7q20 19 20 34zM211 185q75 35 113 0.5t42 -76.5t-16 -74.5t-80.5 -33.5t-93.5 19t-56 106t-20 212t130 214l-150 3v111q70 99 158 118q43 9 86 9q45 0 91 -10
q88 -20 132 -100t19 -534q52 133 197 166l-14 486l122 -2l6 -473q61 6 102 -54q35 -52 35 -125v-24q-7 -89 -69 -106t-175 -15l-2 208q-82 11 -185 -214l-133 6l6 513q4 120 -51.5 152.5t-124.5 17.5t-124 -61l170 -6l13 -103q-95 -23 -125.5 -107t-2.5 -223zM874 227v-141
q69 18 61.5 75t-61.5 66z" />
    <glyph glyph-name="nonenthai" unicode="&#xe13;" horiz-adv-x="1066" 
d="M304 97q0 14 -14 25q-14 10 -27 10q-17 0 -32 -17q-14 -16 -14 -28t12 -20q14 -11 29 -11q12 0 26 7q20 19 20 34zM211 185q75 35 113 0.5t42 -76.5t-16 -74.5t-80.5 -33.5t-93.5 19t-56 106t-20 212t130 214l-150 3v111q70 99 158 118q43 9 86 9q45 0 91 -10
q88 -20 132 -100t19 -534q52 133 197 166l-14 486l122 -2l6 -473q61 6 102 -54q35 -52 35 -125v-24q-7 -89 -69 -106t-175 -15l-2 208q-82 11 -185 -214l-133 6l6 513q4 120 -51.5 152.5t-124.5 17.5t-124 -61l170 -6l13 -103q-95 -23 -125.5 -107t-2.5 -223zM874 227v-141
q69 18 61.5 75t-61.5 66z" />
    <glyph glyph-name="dodekthai" unicode="&#xb4;" horiz-adv-x="770" 
d="M382 423q0 14 -14 25q-14 10 -27 10q-17 0 -32 -17q-14 -16 -14 -28t12 -20q14 -11 29 -11q12 0 26 7q20 19 20 34zM341 324q-90 -9 -108 71t51.5 115.5t128.5 -10.5t46.5 -107t-155.5 -395l-133 2q-95 392 -95 552q0 37 5 62q27 130 180 171q58 16 115 16q90 0 174 -40
q135 -65 135 -252v-2q-1 -190 -7 -503l-122 4l15 398q10 239 -101.5 277t-196.5 3t-90 -131.5t62 -426.5z" />
    <glyph glyph-name="dodekthai" unicode="&#xe14;" horiz-adv-x="770" 
d="M382 423q0 14 -14 25q-14 10 -27 10q-17 0 -32 -17q-14 -16 -14 -28t12 -20q14 -11 29 -11q12 0 26 7q20 19 20 34zM341 324q-90 -9 -108 71t51.5 115.5t128.5 -10.5t46.5 -107t-155.5 -395l-133 2q-95 392 -95 552q0 37 5 62q27 130 180 171q58 16 115 16q90 0 174 -40
q135 -65 135 -252v-2q-1 -190 -7 -503l-122 4l15 398q10 239 -101.5 277t-196.5 3t-90 -131.5t62 -426.5z" />
    <glyph glyph-name="totaothai" unicode="&#xb5;" horiz-adv-x="782" 
d="M382 392q0 14 -14 25q-14 10 -27 10q-17 0 -32 -17q-14 -16 -14 -28t12 -20q14 -11 29 -11q12 0 26 7q20 19 20 34zM341 293q-90 -9 -108 71t51.5 115.5t128.5 -10.5t46.5 -107t-163.5 -364l-144 2q-84 392 -84 566q0 37 5 62q27 130 202 168h8q82 0 105 -95
q27 90 100 90q33 0 76 -19q135 -65 135 -266v-2q-1 -190 -7 -503l-122 4l15 398q21 233 -55 275t-88 -73l-103 12q-14 92 -91 60.5t-77.5 -125.5t66.5 -438z" />
    <glyph glyph-name="totaothai" unicode="&#xe15;" horiz-adv-x="782" 
d="M382 392q0 14 -14 25q-14 10 -27 10q-17 0 -32 -17q-14 -16 -14 -28t12 -20q14 -11 29 -11q12 0 26 7q20 19 20 34zM341 293q-90 -9 -108 71t51.5 115.5t128.5 -10.5t46.5 -107t-163.5 -364l-144 2q-84 392 -84 566q0 37 5 62q27 130 202 168h8q82 0 105 -95
q27 90 100 90q33 0 76 -19q135 -65 135 -266v-2q-1 -190 -7 -503l-122 4l15 398q21 233 -55 275t-88 -73l-103 12q-14 92 -91 60.5t-77.5 -125.5t66.5 -438z" />
    <glyph glyph-name="thothungthai" unicode="&#xb6;" horiz-adv-x="762" 
d="M304 102q0 14 -14 25q-14 10 -27 10q-17 0 -32 -17q-14 -16 -14 -28t12 -20q14 -11 29 -11q12 0 26 7q20 19 20 34zM195 186q12 22 76.5 15t85.5 -48.5t7 -92.5t-80 -58q-21 -3 -39 -3q-42 0 -73 12q-46 17 -63 81.5t-17 211t34 178t139 48.5l-189 30l8 100
q92 140 295 140h16q177 -3 242 -142q38 -83 38 -299q0 -147 -18 -356l-121 7l11 369q3 289 -138.5 321.5t-243.5 -85.5l204 -41l-8 -92q-152 1 -164.5 -72.5t-1.5 -223.5z" />
    <glyph glyph-name="thothungthai" unicode="&#xe16;" horiz-adv-x="762" 
d="M304 102q0 14 -14 25q-14 10 -27 10q-17 0 -32 -17q-14 -16 -14 -28t12 -20q14 -11 29 -11q12 0 26 7q20 19 20 34zM195 186q12 22 76.5 15t85.5 -48.5t7 -92.5t-80 -58q-21 -3 -39 -3q-42 0 -73 12q-46 17 -63 81.5t-17 211t34 178t139 48.5l-189 30l8 100
q92 140 295 140h16q177 -3 242 -142q38 -83 38 -299q0 -147 -18 -356l-121 7l11 369q3 289 -138.5 321.5t-243.5 -85.5l204 -41l-8 -92q-152 1 -164.5 -72.5t-1.5 -223.5z" />
    <glyph glyph-name="thothahanthai" unicode="&#xb7;" horiz-adv-x="836" 
d="M211 689q0 14 -14 25q-14 10 -27 10q-17 0 -32 -17q-14 -16 -14 -28t12 -20q14 -11 29 -11q12 0 26 7q20 19 20 34zM214 598q-68 -32 -112 -14t-53 66q-3 14 -3 27q0 33 17 64q23 43 74 55q18 4 35 4q32 0 60 -14q44 -22 66 -52t30 -176q56 134 125 189q62 50 136 50
q8 0 16 -1q83 -6 117 -74q32 -64 32 -648v-70h-122q4 572 -14 631t-97 24t-177 -275l6 -378l-124 6z" />
    <glyph glyph-name="thothahanthai" unicode="&#x2219;" horiz-adv-x="836" 
d="M211 689q0 14 -14 25q-14 10 -27 10q-17 0 -32 -17q-14 -16 -14 -28t12 -20q14 -11 29 -11q12 0 26 7q20 19 20 34zM214 598q-68 -32 -112 -14t-53 66q-3 14 -3 27q0 33 17 64q23 43 74 55q18 4 35 4q32 0 60 -14q44 -22 66 -52t30 -176q56 134 125 189q62 50 136 50
q8 0 16 -1q83 -6 117 -74q32 -64 32 -648v-70h-122q4 572 -14 631t-97 24t-177 -275l6 -378l-124 6z" />
    <glyph glyph-name="thothahanthai" unicode="&#xe17;" horiz-adv-x="836" 
d="M211 689q0 14 -14 25q-14 10 -27 10q-17 0 -32 -17q-14 -16 -14 -28t12 -20q14 -11 29 -11q12 0 26 7q20 19 20 34zM214 598q-68 -32 -112 -14t-53 66q-3 14 -3 27q0 33 17 64q23 43 74 55q18 4 35 4q32 0 60 -14q44 -22 66 -52t30 -176q56 134 125 189q62 50 136 50
q8 0 16 -1q83 -6 117 -74q32 -64 32 -648v-70h-122q4 572 -14 631t-97 24t-177 -275l6 -378l-124 6z" />
    <glyph glyph-name="thothongthai" unicode="&#xb8;" horiz-adv-x="774" 
d="M252 117l260 -8l2 360l-454 18q6 130 45 195t103 99q45 23 91 23q20 0 39 -4q66 -14 149 -33.5t157 41.5l76 -84q-96 -80 -188 -72t-204 33.5t-156 -108.5l470 -12l-8 -561l-498 -4l-18 400l120 3z" />
    <glyph glyph-name="thothongthai" unicode="&#xe18;" horiz-adv-x="774" 
d="M252 117l260 -8l2 360l-454 18q6 130 45 195t103 99q45 23 91 23q20 0 39 -4q66 -14 149 -33.5t157 41.5l76 -84q-96 -80 -188 -72t-204 33.5t-156 -108.5l470 -12l-8 -561l-498 -4l-18 400l120 3z" />
    <glyph glyph-name="nonuthai" unicode="&#xb9;" horiz-adv-x="902" 
d="M211 691q0 14 -14 25q-14 10 -27 10q-17 0 -32 -17q-14 -16 -14 -28t12 -20q14 -11 29 -11q12 0 26 7q20 19 20 34zM344 232q16 36 57 78t163 50l-18 436l132 -2l14 -426q88 8 134 -34t49 -127q3 -14 3 -28q0 -53 -47 -99q-59 -58 -255 -82l-6 270q-88 -2 -141 -54
t-53 -218l-164 8l16 582q-56 -28 -91 -21t-64 40t-30 80v2q0 46 38 81q37 34 95 34h6q96 -2 138 -67t24 -503zM689 271l7 -155q84 5 80.5 88t-87.5 67z" />
    <glyph glyph-name="nonuthai" unicode="&#xe19;" horiz-adv-x="902" 
d="M211 691q0 14 -14 25q-14 10 -27 10q-17 0 -32 -17q-14 -16 -14 -28t12 -20q14 -11 29 -11q12 0 26 7q20 19 20 34zM344 232q16 36 57 78t163 50l-18 436l132 -2l14 -426q88 8 134 -34t49 -127q3 -14 3 -28q0 -53 -47 -99q-59 -58 -255 -82l-6 270q-88 -2 -141 -54
t-53 -218l-164 8l16 582q-56 -28 -91 -21t-64 40t-30 80v2q0 46 38 81q37 34 95 34h6q96 -2 138 -67t24 -503zM689 271l7 -155q84 5 80.5 88t-87.5 67z" />
    <glyph glyph-name="bobaimaithai" unicode="&#xba;" horiz-adv-x="852" 
d="M224 665q0 14 -14 25q-14 10 -27 10q-17 0 -32 -17q-14 -16 -14 -28t12 -20q14 -11 29 -11q12 0 26 7q20 19 20 34zM321 583l10 -472l298 -12l-1 646h127l3 -755l-632 16l2 119l72 -2l-4 433q-97 -2 -116 49q-11 31 -11 63q0 20 4 40q12 51 66 68q18 5 38 5q39 0 87 -21
q71 -32 57 -177z" />
    <glyph glyph-name="bobaimaithai" unicode="&#xe1a;" horiz-adv-x="852" 
d="M224 665q0 14 -14 25q-14 10 -27 10q-17 0 -32 -17q-14 -16 -14 -28t12 -20q14 -11 29 -11q12 0 26 7q20 19 20 34zM321 583l10 -472l298 -12l-1 646h127l3 -755l-632 16l2 119l72 -2l-4 433q-97 -2 -116 49q-11 31 -11 63q0 20 4 40q12 51 66 68q18 5 38 5q39 0 87 -21
q71 -32 57 -177z" />
    <glyph glyph-name="poplathai" unicode="&#xbb;" horiz-adv-x="876" 
d="M230 669q0 14 -14 25q-14 10 -27 10q-17 0 -32 -17q-14 -16 -14 -28t12 -20q14 -11 29 -11q12 0 26 7q20 19 20 34zM337 587l2 -482l294 12l20 917h132l-17 -1016l-630 -18v107l70 2l8 455q-111 -6 -130 45q-11 31 -11 63q0 20 4 40q12 51 65.5 67.5t130 -15.5t62.5 -177
z" />
    <glyph glyph-name="poplathai" unicode="&#xe1b;" horiz-adv-x="876" 
d="M230 669q0 14 -14 25q-14 10 -27 10q-17 0 -32 -17q-14 -16 -14 -28t12 -20q14 -11 29 -11q12 0 26 7q20 19 20 34zM337 587l2 -482l294 12l20 917h132l-17 -1016l-630 -18v107l70 2l8 455q-111 -6 -130 45q-11 31 -11 63q0 20 4 40q12 51 65.5 67.5t130 -15.5t62.5 -177
z" />
    <glyph glyph-name="phophungthai" unicode="&#xbc;" horiz-adv-x="842" 
d="M275 693q0 14 -14 25q-14 10 -27 10q-17 0 -32 -17q-14 -16 -14 -28t12 -20q14 -11 29 -11q12 0 26 7q20 19 20 34zM256 112l82 286l124 2l128 -266l26 666l136 -6l-24 -794l-222 6l-100 294l-68 -288l-214 -10q-47 536 -47 666q0 24 1 34q10 68 52 92q30 17 74 17
q19 0 40 -3q72 -10 100 -43t24 -86t-43 -82t-111 -13z" />
    <glyph glyph-name="phophungthai" unicode="&#xe1c;" horiz-adv-x="842" 
d="M275 693q0 14 -14 25q-14 10 -27 10q-17 0 -32 -17q-14 -16 -14 -28t12 -20q14 -11 29 -11q12 0 26 7q20 19 20 34zM256 112l82 286l124 2l128 -266l26 666l136 -6l-24 -794l-222 6l-100 294l-68 -288l-214 -10q-47 536 -47 666q0 24 1 34q10 68 52 92q30 17 74 17
q19 0 40 -3q72 -10 100 -43t24 -86t-43 -82t-111 -13z" />
    <glyph glyph-name="fofathai" unicode="&#xbd;" horiz-adv-x="818" 
d="M263 689q0 14 -14 25q-14 10 -27 10q-17 0 -32 -17q-14 -16 -14 -28t12 -20q14 -11 29 -11q12 0 26 7q20 19 20 34zM242 140l82 248l136 8l100 -272l38 868l132 -4l-36 -990l-194 -6l-94 276l-80 -270l-186 -2q-56 533 -56 679q0 37 4 49q18 58 89 69t125 -3t54 -96
t-49 -104t-99 -18z" />
    <glyph glyph-name="fofathai" unicode="&#xe1d;" horiz-adv-x="818" 
d="M263 689q0 14 -14 25q-14 10 -27 10q-17 0 -32 -17q-14 -16 -14 -28t12 -20q14 -11 29 -11q12 0 26 7q20 19 20 34zM242 140l82 248l136 8l100 -272l38 868l132 -4l-36 -990l-194 -6l-94 276l-80 -270l-186 -2q-56 533 -56 679q0 37 4 49q18 58 89 69t125 -3t54 -96
t-49 -104t-99 -18z" />
    <glyph glyph-name="phophanthai" unicode="&#xbe;" horiz-adv-x="870" 
d="M212 698q0 14 -15 26q-14 10 -28 10q-18 0 -34 -17q-14 -17 -14 -29t12 -20q15 -11 31 -11q12 0 27 7q21 19 21 34zM223 608q-62 -43 -103 -22.5t-56 55.5q-8 20 -8 43q0 19 7 43q12 50 42 66q24 13 64 13q9 0 20 -1q53 -4 96 -41.5t53.5 -95.5t6.5 -479l79 263l140 -2
l71 -315l32 662l121 -6l-29 -779l-200 -14l-72 344l-86 -346l-188 12z" />
    <glyph glyph-name="phophanthai" unicode="&#xe1e;" horiz-adv-x="870" 
d="M212 698q0 14 -15 26q-14 10 -28 10q-18 0 -34 -17q-14 -17 -14 -29t12 -20q15 -11 31 -11q12 0 27 7q21 19 21 34zM223 608q-62 -43 -103 -22.5t-56 55.5q-8 20 -8 43q0 19 7 43q12 50 42 66q24 13 64 13q9 0 20 -1q53 -4 96 -41.5t53.5 -95.5t6.5 -479l79 263l140 -2
l71 -315l32 662l121 -6l-29 -779l-200 -14l-72 344l-86 -346l-188 12z" />
    <glyph glyph-name="fofanthai" unicode="&#xbf;" horiz-adv-x="878" 
d="M213 675q0 14 -14 25q-14 10 -27 10q-17 0 -32 -17q-14 -16 -14 -28t12 -20q14 -11 29 -11q12 0 26 7q20 19 20 34zM210 590q-56 -48 -102 -24t-56 67q-3 15 -3 30q0 28 12 56q19 43 85 59t104 -2t55 -74t19 -532l88 288h142l68 -294l44 820l126 -4l-48 -978l-220 6
l-48 334l-104 -342h-170z" />
    <glyph glyph-name="fofanthai" unicode="&#xe1f;" horiz-adv-x="878" 
d="M213 675q0 14 -14 25q-14 10 -27 10q-17 0 -32 -17q-14 -16 -14 -28t12 -20q14 -11 29 -11q12 0 26 7q20 19 20 34zM210 590q-56 -48 -102 -24t-56 67q-3 15 -3 30q0 28 12 56q19 43 85 59t104 -2t55 -74t19 -532l88 288h142l68 -294l44 820l126 -4l-48 -978l-220 6
l-48 334l-104 -342h-170z" />
    <glyph glyph-name="phosamphaothai" unicode="&#xc0;" horiz-adv-x="840" 
d="M209 129q0 14 -14 25q-14 10 -27 10q-17 0 -32 -17q-14 -16 -14 -28t12 -20q14 -11 29 -11q12 0 26 7q20 19 20 34zM309 512l-219 7l-9 70q57 107 146 162q81 50 247 50h31q188 -5 222 -224q29 -106 29 -274q0 -129 -17 -294l-140 9q86 631 -104.5 661.5t-289.5 -84.5
h208l11 -137q-146 -19 -135 -88.5t30.5 -181t-51.5 -153.5q-52 -30 -99 -30q-19 0 -36 5q-64 16 -81 82q-3 15 -3 30q0 46 40 83q62 49 110 13q-67 264 110 294z" />
    <glyph glyph-name="phosamphaothai" unicode="&#xe20;" horiz-adv-x="840" 
d="M209 129q0 14 -14 25q-14 10 -27 10q-17 0 -32 -17q-14 -16 -14 -28t12 -20q14 -11 29 -11q12 0 26 7q20 19 20 34zM309 512l-219 7l-9 70q57 107 146 162q81 50 247 50h31q188 -5 222 -224q29 -106 29 -274q0 -129 -17 -294l-140 9q86 631 -104.5 661.5t-289.5 -84.5
h208l11 -137q-146 -19 -135 -88.5t30.5 -181t-51.5 -153.5q-52 -30 -99 -30q-19 0 -36 5q-64 16 -81 82q-3 15 -3 30q0 46 40 83q62 49 110 13q-67 264 110 294z" />
    <glyph glyph-name="momathai" unicode="&#xc1;" horiz-adv-x="818" 
d="M227 699q0 14 -14 25q-14 10 -27 10q-17 0 -32 -17q-14 -16 -14 -28t12 -20q14 -11 29 -11q12 0 26 7q20 19 20 34zM250 614q-68 -40 -122 -14t-56 68v6q0 39 24 75q26 39 84 43q8 1 16 1q49 0 90 -22q48 -25 61 -85t-1 -294q116 -44 232 -250l10 646l134 -4l-22 -788
l-172 8q-70 182 -186 262l-10 -264q-206 4 -239 77q-21 48 -21 109q0 32 5 67q17 103 165 141zM236 116l7 177q-84 -6 -87.5 -89t80.5 -88z" />
    <glyph glyph-name="momathai" unicode="&#xe21;" horiz-adv-x="818" 
d="M227 699q0 14 -14 25q-14 10 -27 10q-17 0 -32 -17q-14 -16 -14 -28t12 -20q14 -11 29 -11q12 0 26 7q20 19 20 34zM250 614q-68 -40 -122 -14t-56 68v6q0 39 24 75q26 39 84 43q8 1 16 1q49 0 90 -22q48 -25 61 -85t-1 -294q116 -44 232 -250l10 646l134 -4l-22 -788
l-172 8q-70 182 -186 262l-10 -264q-206 4 -239 77q-21 48 -21 109q0 32 5 67q17 103 165 141zM236 116l7 177q-84 -6 -87.5 -89t80.5 -88z" />
    <glyph glyph-name="yoyakthai" unicode="&#xc2;" horiz-adv-x="808" 
d="M275 705q0 14 -14 25q-14 10 -27 10q-17 0 -32 -17q-14 -16 -14 -28t12 -20q14 -11 29 -11q12 0 26 7q20 19 20 34zM176 624q20 -102 188 -126l4 -108q-48 -2 -108 -52t-28 -238l334 10l-4 676h134l10 -778l-582 -6q-12 93 -12 167q0 246 138 283q-146 34 -160 123
q-6 30 -6 63q0 35 7 72q15 72 71 91q32 11 66 11q24 0 49 -6q59 -14 78 -69t-43 -108t-136 -5z" />
    <glyph glyph-name="yoyakthai" unicode="&#xe22;" horiz-adv-x="808" 
d="M275 705q0 14 -14 25q-14 10 -27 10q-17 0 -32 -17q-14 -16 -14 -28t12 -20q14 -11 29 -11q12 0 26 7q20 19 20 34zM176 624q20 -102 188 -126l4 -108q-48 -2 -108 -52t-28 -238l334 10l-4 676h134l10 -778l-582 -6q-12 93 -12 167q0 246 138 283q-146 34 -160 123
q-6 30 -6 63q0 35 7 72q15 72 71 91q32 11 66 11q24 0 49 -6q59 -14 78 -69t-43 -108t-136 -5z" />
    <glyph glyph-name="roruathai" unicode="&#xc3;" horiz-adv-x="710" 
d="M441 139q-1 14 -16 24q-14 8 -27 7q-17 -1 -31 -20q-12 -17 -11 -29t13 -19q15 -9 30 -8q12 1 26 9q18 21 16 36zM458 449l-394 5q0 185 69 257.5t158 84.5l17 2q80 7 145 -29q72 -40 108 44l97 -57q-17 -60 -72 -95.5t-172 10.5t-173 9.5t-69 -124.5l402 -11
q-1 -434 -45 -486q-51 -60 -118 -60q-16 0 -33 3q-88 18 -98.5 100t35 119t130.5 5z" />
    <glyph glyph-name="roruathai" unicode="&#xe23;" horiz-adv-x="710" 
d="M441 139q-1 14 -16 24q-14 8 -27 7q-17 -1 -31 -20q-12 -17 -11 -29t13 -19q15 -9 30 -8q12 1 26 9q18 21 16 36zM458 449l-394 5q0 185 69 257.5t158 84.5l17 2q80 7 145 -29q72 -40 108 44l97 -57q-17 -60 -72 -95.5t-172 10.5t-173 9.5t-69 -124.5l402 -11
q-1 -434 -45 -486q-51 -60 -118 -60q-16 0 -33 3q-88 18 -98.5 100t35 119t130.5 5z" />
    <glyph glyph-name="ruthai" unicode="&#xc4;" horiz-adv-x="776" 
d="M313 126q0 14 -14 25q-14 10 -27 10q-17 0 -32 -17q-14 -16 -14 -28q0 -13 12 -21q14 -11 29 -11q12 0 26 7q20 20 20 35zM212 198q54 37 99 19.5t61 -60t3 -85.5t-51 -59.5t-100 -7t-99 101t-31 240.5t170 214l-186 24l-2 80q78 93 189 119q43 10 88 10q73 0 154 -25
q131 -41 163 -168q11 -44 11 -165q0 -218 -37 -682l-134 13q78 731 33 820.5t-169 108t-172 -47.5l142 -20l6 -108q-90 -31 -117 -80.5t-32 -106.5t11 -135z" />
    <glyph glyph-name="ruthai" unicode="&#xe24;" horiz-adv-x="776" 
d="M313 126q0 14 -14 25q-14 10 -27 10q-17 0 -32 -17q-14 -16 -14 -28q0 -13 12 -21q14 -11 29 -11q12 0 26 7q20 20 20 35zM212 198q54 37 99 19.5t61 -60t3 -85.5t-51 -59.5t-100 -7t-99 101t-31 240.5t170 214l-186 24l-2 80q78 93 189 119q43 10 88 10q73 0 154 -25
q131 -41 163 -168q11 -44 11 -165q0 -218 -37 -682l-134 13q78 731 33 820.5t-169 108t-172 -47.5l142 -20l6 -108q-90 -31 -117 -80.5t-32 -106.5t11 -135z" />
    <glyph glyph-name="lolingthai" unicode="&#xc5;" horiz-adv-x="746" 
d="M299 104q-1 14 -16 23t-28 8q-16 -2 -30 -20q-12 -17 -11 -29t13 -19q15 -10 30 -8q12 1 25 9q19 21 17 36zM203 183q73 36 117.5 0t45 -88.5t-37.5 -77.5q-27 -18 -68 -22q-15 -1 -32 -1q-47 4 -83 48t-45 142.5t45 189t184 95.5t219 -113q-16 294 -144 322.5t-180 -30
t-44 -128.5l-119 -6q8 139 80 214q54 56 135 67q32 2 68 2h25q199 -6 252 -181q26 -49 36 -158q5 -59 5 -135q0 -129 -14 -322l-135 2q20 225 -46 300.5t-141.5 61t-102 -65t-20.5 -116.5z" />
    <glyph glyph-name="lolingthai" unicode="&#xe25;" horiz-adv-x="746" 
d="M299 104q-1 14 -16 23t-28 8q-16 -2 -30 -20q-12 -17 -11 -29t13 -19q15 -10 30 -8q12 1 25 9q19 21 17 36zM203 183q73 36 117.5 0t45 -88.5t-37.5 -77.5q-27 -18 -68 -22q-15 -1 -32 -1q-47 4 -83 48t-45 142.5t45 189t184 95.5t219 -113q-16 294 -144 322.5t-180 -30
t-44 -128.5l-119 -6q8 139 80 214q54 56 135 67q32 2 68 2h25q199 -6 252 -181q26 -49 36 -158q5 -59 5 -135q0 -129 -14 -322l-135 2q20 225 -46 300.5t-141.5 61t-102 -65t-20.5 -116.5z" />
    <glyph glyph-name="luthai" unicode="&#xc6;" horiz-adv-x="792" 
d="M225 115q0 14 -14 25q-14 10 -27 10q-17 0 -32 -17q-14 -16 -14 -28t12 -20q14 -11 29 -11q12 0 26 7q20 19 20 34zM308 520l-202 34q84 200 177 234q53 19 119 19q52 0 111 -11q137 -26 167 -144q18 -71 18 -363q0 -195 -8 -489l-120 12q28 726 -6 803t-140 92t-178 -97
l180 -34v-98q-116 -28 -108 -184t-3 -212t-78 -77t-119 17t-53 82v3q0 42 29 86q30 45 126 19q-14 144 -3 206t91 102z" />
    <glyph glyph-name="luthai" unicode="&#xe26;" horiz-adv-x="792" 
d="M225 115q0 14 -14 25q-14 10 -27 10q-17 0 -32 -17q-14 -16 -14 -28t12 -20q14 -11 29 -11q12 0 26 7q20 19 20 34zM308 520l-202 34q84 200 177 234q53 19 119 19q52 0 111 -11q137 -26 167 -144q18 -71 18 -363q0 -195 -8 -489l-120 12q28 726 -6 803t-140 92t-178 -97
l180 -34v-98q-116 -28 -108 -184t-3 -212t-78 -77t-119 17t-53 82v3q0 42 29 86q30 45 126 19q-14 144 -3 206t91 102z" />
    <glyph glyph-name="wowaenthai" unicode="&#xc7;" horiz-adv-x="680" 
d="M461 115q0 14 -14 25q-14 10 -27 10q-17 0 -32 -17q-14 -16 -14 -28t12 -20q14 -11 29 -11q12 0 26 7q20 19 20 34zM182 528l-114 -2v27q0 226 160 243q37 4 70 4q121 0 196 -51q94 -63 94 -313q0 -30 -1 -62q-13 -306 -58 -347q-35 -31 -84 -31q-14 0 -30 2
q-69 12 -93 60t-14 91t39 61t117 -4q30 282 0 377t-123 116t-131 -27t-28 -144z" />
    <glyph glyph-name="wowaenthai" unicode="&#xe27;" horiz-adv-x="680" 
d="M461 115q0 14 -14 25q-14 10 -27 10q-17 0 -32 -17q-14 -16 -14 -28t12 -20q14 -11 29 -11q12 0 26 7q20 19 20 34zM182 528l-114 -2v27q0 226 160 243q37 4 70 4q121 0 196 -51q94 -63 94 -313q0 -30 -1 -62q-13 -306 -58 -347q-35 -31 -84 -31q-14 0 -30 2
q-69 12 -93 60t-14 91t39 61t117 -4q30 282 0 377t-123 116t-131 -27t-28 -144z" />
    <glyph glyph-name="sosalathai" unicode="&#xc8;" horiz-adv-x="838" 
d="M427 451q0 14 -14 25q-14 10 -27 10q-17 0 -32 -17q-14 -16 -14 -28t12 -20q14 -11 29 -11q12 0 26 7q20 19 20 34zM260 4l-132 4q-43 375 -43 530q0 57 5 85q22 103 93 146t273 9l42 136l114 -32l-50 -128q138 -46 169 -174q17 -70 17 -236q0 -140 -32 -348l-122 12
q40 378 31.5 492t-91.5 146l-24 -80l-100 30l26 88q-176 42 -217 -40t-9 -386q46 220 81 261t90 42t85 -28t32 -88t-51 -81t-111 0q-60 -124 -76 -360z" />
    <glyph glyph-name="sosalathai" unicode="&#xe28;" horiz-adv-x="838" 
d="M427 451q0 14 -14 25q-14 10 -27 10q-17 0 -32 -17q-14 -16 -14 -28t12 -20q14 -11 29 -11q12 0 26 7q20 19 20 34zM260 4l-132 4q-43 375 -43 530q0 57 5 85q22 103 93 146t273 9l42 136l114 -32l-50 -128q138 -46 169 -174q17 -70 17 -236q0 -140 -32 -348l-122 12
q40 378 31.5 492t-91.5 146l-24 -80l-100 30l26 88q-176 42 -217 -40t-9 -386q46 220 81 261t90 42t85 -28t32 -88t-51 -81t-111 0q-60 -124 -76 -360z" />
    <glyph glyph-name="sorusithai" unicode="&#xc9;" horiz-adv-x="914" 
d="M217 691q0 14 -14 25q-14 10 -27 10q-17 0 -32 -17q-14 -16 -14 -28t12 -20q14 -11 29 -11q12 0 26 7q20 19 20 34zM547 447q0 14 -14 25q-14 10 -27 10q-17 0 -32 -17q-14 -16 -14 -28t12 -20q14 -11 29 -11q12 0 26 7q20 19 20 34zM216 578q-64 -24 -106 -1t-51 55
q-5 19 -5 42q0 15 2 32q6 42 34 71q21 22 71 22q18 0 39 -3q82 -10 122 -81t6 -597l298 -10l6 252q-58 -32 -123 -35t-97 37t-20 102t64 77t102 -5t48 -96l30 16l8 330l122 4l-10 -296l68 28l22 -88l-88 -34v-404l-572 8q38 366 30 574z" />
    <glyph glyph-name="sorusithai" unicode="&#xe29;" horiz-adv-x="914" 
d="M217 691q0 14 -14 25q-14 10 -27 10q-17 0 -32 -17q-14 -16 -14 -28t12 -20q14 -11 29 -11q12 0 26 7q20 19 20 34zM547 447q0 14 -14 25q-14 10 -27 10q-17 0 -32 -17q-14 -16 -14 -28t12 -20q14 -11 29 -11q12 0 26 7q20 19 20 34zM216 578q-64 -24 -106 -1t-51 55
q-5 19 -5 42q0 15 2 32q6 42 34 71q21 22 71 22q18 0 39 -3q82 -10 122 -81t6 -597l298 -10l6 252q-58 -32 -123 -35t-97 37t-20 102t64 77t102 -5t48 -96l30 16l8 330l122 4l-10 -296l68 28l22 -88l-88 -34v-404l-572 8q38 366 30 574z" />
    <glyph glyph-name="sosuathai" unicode="&#xca;" horiz-adv-x="788" 
d="M335 91q0 14 -14 25q-14 10 -27 10q-17 0 -32 -17q-14 -16 -14 -28t12 -20q14 -11 29 -11q12 0 26 7q20 19 20 34zM246 178q76 30 117 -10t37 -92t-44 -74q-29 -16 -70 -16q-15 0 -32 2q-46 8 -78 55t-42 154t52 192t192 79t208 -132q34 220 -88 318l-26 -94l-112 16
l24 108q-128 8 -162 -35t-32 -113l-120 4q20 138 71 187t105 62t158 5l30 158l132 -24l-50 -168q110 -46 165 -171q22 -51 22 -160q0 -159 -47 -441l-134 14q38 208 -31 293t-144 68t-95 -77t-6 -108z" />
    <glyph glyph-name="sosuathai" unicode="&#xe2a;" horiz-adv-x="788" 
d="M335 91q0 14 -14 25q-14 10 -27 10q-17 0 -32 -17q-14 -16 -14 -28t12 -20q14 -11 29 -11q12 0 26 7q20 19 20 34zM246 178q76 30 117 -10t37 -92t-44 -74q-29 -16 -70 -16q-15 0 -32 2q-46 8 -78 55t-42 154t52 192t192 79t208 -132q34 220 -88 318l-26 -94l-112 16
l24 108q-128 8 -162 -35t-32 -113l-120 4q20 138 71 187t105 62t158 5l30 158l132 -24l-50 -168q110 -46 165 -171q22 -51 22 -160q0 -159 -47 -441l-134 14q38 208 -31 293t-144 68t-95 -77t-6 -108z" />
    <glyph glyph-name="hohipthai" unicode="&#xcb;" horiz-adv-x="802" 
d="M231 675q0 14 -14 25q-14 10 -27 10q-17 0 -32 -17q-14 -16 -14 -28t12 -20q14 -11 29 -11q12 0 26 7q20 19 20 34zM635 685q0 14 -14 25q-14 10 -27 10q-17 0 -32 -17q-14 -16 -14 -28t12 -20q14 -11 29 -11q12 0 26 7q20 19 20 34zM324 486q76 64 172 98
q-58 54 -50 117t73 86q29 10 58 10q37 0 74 -16q67 -29 69 -104v-5q0 -71 -104 -116q24 -6 58 -45t12 -507l-120 -2q14 370 12 426.5t-35 80.5q-99 -35 -219 -127l-16 -382l-128 14l32 552q-84 -14 -118 6t-50 69q-5 15 -5 31q0 33 24 66q35 48 106 52t124 -55t31 -249z" />
    <glyph glyph-name="hohipthai" unicode="&#xe2b;" horiz-adv-x="802" 
d="M231 675q0 14 -14 25q-14 10 -27 10q-17 0 -32 -17q-14 -16 -14 -28t12 -20q14 -11 29 -11q12 0 26 7q20 19 20 34zM635 685q0 14 -14 25q-14 10 -27 10q-17 0 -32 -17q-14 -16 -14 -28t12 -20q14 -11 29 -11q12 0 26 7q20 19 20 34zM324 486q76 64 172 98
q-58 54 -50 117t73 86q29 10 58 10q37 0 74 -16q67 -29 69 -104v-5q0 -71 -104 -116q24 -6 58 -45t12 -507l-120 -2q14 370 12 426.5t-35 80.5q-99 -35 -219 -127l-16 -382l-128 14l32 552q-84 -14 -118 6t-50 69q-5 15 -5 31q0 33 24 66q35 48 106 52t124 -55t31 -249z" />
    <glyph glyph-name="lochulathai" unicode="&#xcc;" horiz-adv-x="912" 
d="M221 695q0 14 -14 25q-14 10 -27 10q-17 0 -32 -17q-14 -16 -14 -28t12 -20q14 -11 29 -11q12 0 26 7q20 19 20 34zM216 592q-56 -12 -102 5t-58 62q-3 14 -3 28q0 30 17 58q26 41 77 51q13 3 26 3q38 0 75 -22q50 -29 73 -85t-3 -528l116 216h118l76 -238l18 432
q-94 -4 -151 42t-28 119q28 71 136 71h14q73 0 106 -37q35 -39 31 -105q66 10 128 44l26 -90q-84 -36 -150 -36l-10 -576l-194 -2l-70 264l-154 -274l-144 12zM604 735q-20 0 -38 -16q-16 -16 -16 -27q0 -12 14 -19q23 -17 77 -10q7 82 -37 72z" />
    <glyph glyph-name="lochulathai" unicode="&#xe2c;" horiz-adv-x="912" 
d="M221 695q0 14 -14 25q-14 10 -27 10q-17 0 -32 -17q-14 -16 -14 -28t12 -20q14 -11 29 -11q12 0 26 7q20 19 20 34zM216 592q-56 -12 -102 5t-58 62q-3 14 -3 28q0 30 17 58q26 41 77 51q13 3 26 3q38 0 75 -22q50 -29 73 -85t-3 -528l116 216h118l76 -238l18 432
q-94 -4 -151 42t-28 119q28 71 136 71h14q73 0 106 -37q35 -39 31 -105q66 10 128 44l26 -90q-84 -36 -150 -36l-10 -576l-194 -2l-70 264l-154 -274l-144 12zM604 735q-20 0 -38 -16q-16 -16 -16 -27q0 -12 14 -19q23 -17 77 -10q7 82 -37 72z" />
    <glyph glyph-name="oangthai" unicode="&#xcd;" horiz-adv-x="786" 
d="M365 425q0 14 -14 25q-14 10 -27 10q-17 0 -32 -17q-14 -16 -14 -28t12 -20q14 -11 29 -11q12 0 26 7q20 19 20 34zM268 108h302q24 376 -8 447t-83 111t-149 34t-152 -132l-136 26q50 152 174 198q65 24 133 24q62 0 126 -20q135 -42 193 -170q36 -79 36 -295
q0 -134 -14 -321l-544 -6q26 472 78 506t125 17t83 -66t-14 -105t-136 -34z" />
    <glyph glyph-name="oangthai" unicode="&#xe2d;" horiz-adv-x="786" 
d="M365 425q0 14 -14 25q-14 10 -27 10q-17 0 -32 -17q-14 -16 -14 -28t12 -20q14 -11 29 -11q12 0 26 7q20 19 20 34zM268 108h302q24 376 -8 447t-83 111t-149 34t-152 -132l-136 26q50 152 174 198q65 24 133 24q62 0 126 -20q135 -42 193 -170q36 -79 36 -295
q0 -134 -14 -321l-544 -6q26 472 78 506t125 17t83 -66t-14 -105t-136 -34z" />
    <glyph glyph-name="honokhukthai" unicode="&#xce;" horiz-adv-x="796" 
d="M331 413q0 14 -14 25q-14 10 -27 10q-17 0 -32 -17q-14 -16 -14 -28t12 -20q14 -11 29 -11q12 0 26 7q20 19 20 34zM230 96l288 8q-2 324 -20 480q-132 -22 -236 -18t-153 41q-35 27 -35 68q0 16 5 34q19 65 101 96q58 22 129 22q30 0 62 -4q109 -13 203 -105
q70 42 76 104l110 -28v-7q0 -30 -26 -86q-30 -63 -118 -91q26 -120 20 -600l-516 -12q-8 400 44 471t126 63t102 -65t-1 -114t-147 -41q-18 -50 -14 -216zM474 683q-51 53 -140.5 56t-128.5 -25t9 -48t115 -16t145 33z" />
    <glyph glyph-name="honokhukthai" unicode="&#xe2e;" horiz-adv-x="796" 
d="M331 413q0 14 -14 25q-14 10 -27 10q-17 0 -32 -17q-14 -16 -14 -28t12 -20q14 -11 29 -11q12 0 26 7q20 19 20 34zM230 96l288 8q-2 324 -20 480q-132 -22 -236 -18t-153 41q-35 27 -35 68q0 16 5 34q19 65 101 96q58 22 129 22q30 0 62 -4q109 -13 203 -105
q70 42 76 104l110 -28v-7q0 -30 -26 -86q-30 -63 -118 -91q26 -120 20 -600l-516 -12q-8 400 44 471t126 63t102 -65t-1 -114t-147 -41q-18 -50 -14 -216zM474 683q-51 53 -140.5 56t-128.5 -25t9 -48t115 -16t145 33z" />
    <glyph glyph-name="paiyannoithai" unicode="&#xcf;" horiz-adv-x="606" 
d="M234 409q0 15 -16 28q-15 11 -30 11q-19 0 -35 -19q-16 -18 -16 -31q0 -14 13 -23q16 -12 33 -12q13 0 29 8q22 21 22 38zM385 492l125 -4l-34 -480l-122 4l24 355q-112 -78 -192 -72.5t-98 36.5q-17 27 -17 77v5q1 53 55 79q30 16 63 16q25 0 51 -9q60 -20 49 -112
q91 52 96 105z" />
    <glyph glyph-name="paiyannoithai" unicode="&#xe2f;" horiz-adv-x="606" 
d="M234 409q0 15 -16 28q-15 11 -30 11q-19 0 -35 -19q-16 -18 -16 -31q0 -14 13 -23q16 -12 33 -12q13 0 29 8q22 21 22 38zM385 492l125 -4l-34 -480l-122 4l24 355q-112 -78 -192 -72.5t-98 36.5q-17 27 -17 77v5q1 53 55 79q30 16 63 16q25 0 51 -9q60 -20 49 -112
q91 52 96 105z" />
    <glyph glyph-name="saraathai" unicode="&#xd0;" horiz-adv-x="634" 
d="M234 519q56 -22 111 -6.5t55 131.5l119 -9q2 -16 2 -31q0 -78 -42 -121q-51 -52 -170 -58q-17 -1 -33 -1q-93 0 -136 32q-50 38 -56 129v10q0 80 92 85h13q88 0 103 -70q17 -75 -58 -91zM227 593q0 14 -14 25q-14 10 -27 10q-17 0 -32 -17q-14 -16 -14 -28t12 -20
q14 -11 29 -11q12 0 26 7q20 19 20 34zM244 171q56 -22 111 -6.5t55 131.5l119 -9q2 -16 2 -31q0 -78 -42 -121q-51 -52 -170 -58q-17 -1 -33 -1q-93 0 -136 32q-50 38 -56 129v10q0 80 92 85h13q88 0 103 -70q17 -75 -58 -91zM237 245q0 14 -14 25q-14 10 -27 10
q-17 0 -32 -17q-14 -16 -14 -28t12 -20q14 -11 29 -11q12 0 26 7q20 19 20 34z" />
    <glyph glyph-name="saraathai" unicode="&#xe30;" horiz-adv-x="634" 
d="M234 519q56 -22 111 -6.5t55 131.5l119 -9q2 -16 2 -31q0 -78 -42 -121q-51 -52 -170 -58q-17 -1 -33 -1q-93 0 -136 32q-50 38 -56 129v10q0 80 92 85h13q88 0 103 -70q17 -75 -58 -91zM227 593q0 14 -14 25q-14 10 -27 10q-17 0 -32 -17q-14 -16 -14 -28t12 -20
q14 -11 29 -11q12 0 26 7q20 19 20 34zM244 171q56 -22 111 -6.5t55 131.5l119 -9q2 -16 2 -31q0 -78 -42 -121q-51 -52 -170 -58q-17 -1 -33 -1q-93 0 -136 32q-50 38 -56 129v10q0 80 92 85h13q88 0 103 -70q17 -75 -58 -91zM237 245q0 14 -14 25q-14 10 -27 10
q-17 0 -32 -17q-14 -16 -14 -28t12 -20q14 -11 29 -11q12 0 26 7q20 19 20 34z" />
    <glyph glyph-name="maihanakatthai" unicode="&#xd1;" horiz-adv-x="4" 
d="M-366 1003q56 -22 111 -6.5t55 131.5l119 -9q2 -16 2 -31q0 -78 -42 -121q-51 -52 -170 -58q-17 -1 -33 -1q-93 0 -136 32q-50 38 -56 129v10q0 80 92 85h13q88 0 103 -70q17 -75 -58 -91zM-373 1077q0 14 -14 25q-14 10 -27 10q-17 0 -32 -17q-14 -16 -14 -28t12 -20
q14 -11 29 -11q12 0 26 7q20 19 20 34z" />
    <glyph glyph-name="maihanakatthai" unicode="&#xe31;" horiz-adv-x="4" 
d="M-366 1003q56 -22 111 -6.5t55 131.5l119 -9q2 -16 2 -31q0 -78 -42 -121q-51 -52 -170 -58q-17 -1 -33 -1q-93 0 -136 32q-50 38 -56 129v10q0 80 92 85h13q88 0 103 -70q17 -75 -58 -91zM-373 1077q0 14 -14 25q-14 10 -27 10q-17 0 -32 -17q-14 -16 -14 -28t12 -20
q14 -11 29 -11q12 0 26 7q20 19 20 34z" />
    <glyph glyph-name="saraaathai" unicode="&#xd2;" horiz-adv-x="722" 
d="M488 8q32 440 -3 555t-144 124t-142 -69t-25 -108l-132 6q22 196 109 242q71 38 160 38q20 0 40 -2q113 -10 182 -75t84 -176q8 -57 8 -201q0 -133 -7 -342z" />
    <glyph glyph-name="saraaathai" unicode="&#xe32;" horiz-adv-x="722" 
d="M488 8q32 440 -3 555t-144 124t-142 -69t-25 -108l-132 6q22 196 109 242q71 38 160 38q20 0 40 -2q113 -10 182 -75t84 -176q8 -57 8 -201q0 -133 -7 -342z" />
    <glyph glyph-name="saraamthai" unicode="&#xd3;" horiz-adv-x="724" 
d="M492 6q32 440 -3 555t-144 124t-142 -69t-25 -108l-132 6q22 196 109 242q71 38 160 38q20 0 40 -2q113 -10 182 -75t84 -176q8 -57 8 -201q0 -133 -7 -342zM-267 1027q0 14 -14 25q-14 10 -27 10q-17 0 -32 -17q-14 -16 -14 -28t12 -20q14 -11 29 -11q12 0 26 7
q20 19 20 34zM-240 934q-40 -20 -74 -20q-42 0 -82 31q-34 23 -34 57t40 79q42 48 91 48q36 0 76 -28q39 -31 39 -71q0 -42 -56 -96z" />
    <glyph glyph-name="saraamthai" unicode="&#xe33;" horiz-adv-x="724" 
d="M492 6q32 440 -3 555t-144 124t-142 -69t-25 -108l-132 6q22 196 109 242q71 38 160 38q20 0 40 -2q113 -10 182 -75t84 -176q8 -57 8 -201q0 -133 -7 -342zM-267 1027q0 14 -14 25q-14 10 -27 10q-17 0 -32 -17q-14 -16 -14 -28t12 -20q14 -11 29 -11q12 0 26 7
q20 19 20 34zM-240 934q-40 -20 -74 -20q-42 0 -82 31q-34 23 -34 57t40 79q42 48 91 48q36 0 76 -28q39 -31 39 -71q0 -42 -56 -96z" />
    <glyph glyph-name="saraithai" unicode="&#xd4;" 
d="M-428 1190q54 0 116 -13q162 -34 248 -321l-664 31q52 185 133 244t167 59zM-585 962l364 -16q-56 135 -154 143t-144.5 -25t-65.5 -102z" />
    <glyph glyph-name="saraithai" unicode="&#xe34;" 
d="M-428 1190q54 0 116 -13q162 -34 248 -321l-664 31q52 185 133 244t167 59zM-585 962l364 -16q-56 135 -154 143t-144.5 -25t-65.5 -102z" />
    <glyph glyph-name="saraiithai" unicode="&#xd5;" horiz-adv-x="2" 
d="M-530 1185q54 0 117 -14q101 -21 151 -151l-1 169l111 -3l-13 -335l-664 31q52 185 132.5 244t166.5 59zM-689 967l364 -16q-56 135 -154 143t-144.5 -25t-65.5 -102z" />
    <glyph glyph-name="saraiithai" unicode="&#xe35;" horiz-adv-x="2" 
d="M-530 1185q54 0 117 -14q101 -21 151 -151l-1 169l111 -3l-13 -335l-664 31q52 185 132.5 244t166.5 59zM-689 967l364 -16q-56 135 -154 143t-144.5 -25t-65.5 -102z" />
    <glyph glyph-name="sarauethai" unicode="&#xd6;" 
d="M-436 1174q54 0 85 -6.5t114 -65.5q-19 78 35 115q29 19 63 19q31 0 67 -16q73 -33 73 -115v-5q-3 -87 -142 -102l69 -158l-664 31q52 185 133 244t167 59zM-593 946l364 -16q-56 135 -154 143t-144.5 -25t-65.5 -102zM-117 1074q16 0 28 14t12 27q0 17 -20 32
q-18 14 -32 14q-13 0 -22 -12q-13 -14 -13 -29q0 -12 8 -26q22 -20 39 -20z" />
    <glyph glyph-name="sarauethai" unicode="&#xe36;" 
d="M-436 1174q54 0 85 -6.5t114 -65.5q-19 78 35 115q29 19 63 19q31 0 67 -16q73 -33 73 -115v-5q-3 -87 -142 -102l69 -158l-664 31q52 185 133 244t167 59zM-593 946l364 -16q-56 135 -154 143t-144.5 -25t-65.5 -102zM-117 1074q16 0 28 14t12 27q0 17 -20 32
q-18 14 -32 14q-13 0 -22 -12q-13 -14 -13 -29q0 -12 8 -26q22 -20 39 -20z" />
    <glyph glyph-name="saraueethai" unicode="&#xd7;" horiz-adv-x="2" 
d="M-530 1185q54 0 117 -14q101 -21 135 -95l-7 113l71 -1l9 -335l-624 29q52 185 132.5 244t166.5 59zM-689 967l364 -16q-56 135 -154 143t-144.5 -25t-65.5 -102zM-118 1184l2 -336h-58l-10 334z" />
    <glyph glyph-name="saraueethai" unicode="&#xe37;" horiz-adv-x="2" 
d="M-530 1185q54 0 117 -14q101 -21 135 -95l-7 113l71 -1l9 -335l-624 29q52 185 132.5 244t166.5 59zM-689 967l364 -16q-56 135 -154 143t-144.5 -25t-65.5 -102zM-118 1184l2 -336h-58l-10 334z" />
    <glyph glyph-name="sarauthai" unicode="&#xd8;" horiz-adv-x="2" 
d="M-259 -149q0 14 -14 25q-14 10 -27 10q-17 0 -32 -17q-14 -16 -14 -28t12 -20q14 -11 29 -11q12 0 26 7q20 19 20 34zM-262 -234q-72 -26 -104 -12t-42 55q-4 18 -4 36q0 22 7 43q13 38 47 53q26 12 63 12q12 0 25 -2q54 -5 78 -47q23 -38 23 -225q0 -16 -1 -33l-94 -4z
" />
    <glyph glyph-name="sarauthai" unicode="&#xe38;" horiz-adv-x="2" 
d="M-259 -149q0 14 -14 25q-14 10 -27 10q-17 0 -32 -17q-14 -16 -14 -28t12 -20q14 -11 29 -11q12 0 26 7q20 19 20 34zM-262 -234q-72 -26 -104 -12t-42 55q-4 18 -4 36q0 22 7 43q13 38 47 53q26 12 63 12q12 0 25 -2q54 -5 78 -47q23 -38 23 -225q0 -16 -1 -33l-94 -4z
" />
    <glyph glyph-name="sarauuthai" unicode="&#xd9;" horiz-adv-x="2" 
d="M-431 -149q0 14 -14 25q-14 10 -27 10q-17 0 -32 -17q-14 -16 -14 -28t12 -20q14 -11 29 -11q12 0 26 7q20 19 20 34zM-434 -234q-72 -26 -104 -12t-42 55q-4 18 -4 36q0 22 7 43q13 38 47 53q26 12 63 12q12 0 25 -2q54 -5 78 -47t16 -182l103 6l-2 206l114 -1l-1 -290
l-302 -1z" />
    <glyph glyph-name="sarauuthai" unicode="&#xe39;" horiz-adv-x="2" 
d="M-431 -149q0 14 -14 25q-14 10 -27 10q-17 0 -32 -17q-14 -16 -14 -28t12 -20q14 -11 29 -11q12 0 26 7q20 19 20 34zM-434 -234q-72 -26 -104 -12t-42 55q-4 18 -4 36q0 22 7 43q13 38 47 53q26 12 63 12q12 0 25 -2q54 -5 78 -47t16 -182l103 6l-2 206l114 -1l-1 -290
l-302 -1z" />
    <glyph glyph-name="phinthuthai" unicode="&#xda;" 
d="M-120 -176q0 -26 -35 -60q-25 -13 -46 -13q-26 0 -51 20q-22 14 -22 36q0 21 25 49q27 30 57 30q23 0 48 -17q24 -20 24 -45z" />
    <glyph glyph-name="phinthuthai" unicode="&#xe3a;" 
d="M-120 -176q0 -26 -35 -60q-25 -13 -46 -13q-26 0 -51 20q-22 14 -22 36q0 21 25 49q27 30 57 30q23 0 48 -17q24 -20 24 -45z" />
    <glyph glyph-name="PUCR2005" unicode="&#xdb;" 
 />
    <glyph glyph-name="PUCR2005" unicode="&#xe3b;" 
 />
    <glyph glyph-name="PUCR2005" unicode="&#xdc;" 
 />
    <glyph glyph-name="PUCR2005" unicode="&#xe3c;" 
 />
    <glyph glyph-name="PUCR2005" unicode="&#xdd;" 
 />
    <glyph glyph-name="PUCR2005" unicode="&#xe3d;" 
 />
    <glyph glyph-name="PUCR2005" unicode="&#xe3e;" 
 />
    <glyph glyph-name="bahtthai" unicode="&#xdf;" horiz-adv-x="730" 
d="M68 877q76 3 136 3l12 140l115 -3l-7 -130q18 -7 75 -23q80 -23 128 -95.5t40.5 -177t-151.5 -142.5q152 -13 204 -73q50 -58 50 -164v-8q-2 -113 -100.5 -159.5t-230.5 -48.5l-3 -87l-111 3l-8 76l-151 6zM172 776l4 -282q100 4 166 21t103 78t1 115t-274 68zM176 402
l6 -314q135 -4 237 7t134 78t-31.5 138t-345.5 91z" />
    <glyph glyph-name="bahtthai" unicode="&#xe3f;" horiz-adv-x="730" 
d="M68 877q76 3 136 3l12 140l115 -3l-7 -130q18 -7 75 -23q80 -23 128 -95.5t40.5 -177t-151.5 -142.5q152 -13 204 -73q50 -58 50 -164v-8q-2 -113 -100.5 -159.5t-230.5 -48.5l-3 -87l-111 3l-8 76l-151 6zM172 776l4 -282q100 4 166 21t103 78t1 115t-274 68zM176 402
l6 -314q135 -4 237 7t134 78t-31.5 138t-345.5 91z" />
    <glyph glyph-name="saraethai" unicode="&#xe0;" horiz-adv-x="440" 
d="M299 125q0 14 -14 25q-14 10 -27 10q-17 0 -32 -17q-14 -16 -14 -28t12 -20q14 -11 29 -11q12 0 26 7q20 19 20 34zM214 238q72 14 112 -13t51 -105q3 -15 3 -27q0 -55 -40 -74q-39 -19 -99 -19q-13 0 -27 1q-78 5 -104 71q-17 45 -17 366q0 147 3 354h126z" />
    <glyph glyph-name="saraethai" unicode="&#xe40;" horiz-adv-x="440" 
d="M299 125q0 14 -14 25q-14 10 -27 10q-17 0 -32 -17q-14 -16 -14 -28t12 -20q14 -11 29 -11q12 0 26 7q20 19 20 34zM214 238q72 14 112 -13t51 -105q3 -15 3 -27q0 -55 -40 -74q-39 -19 -99 -19q-13 0 -27 1q-78 5 -104 71q-17 45 -17 366q0 147 3 354h126z" />
    <glyph glyph-name="saraaethai" unicode="&#xe1;" horiz-adv-x="798" 
d="M303 135q0 14 -14 25q-14 10 -27 10q-17 0 -32 -17q-14 -16 -14 -28t12 -20q14 -11 29 -11q12 0 26 7q20 19 20 34zM218 248q72 14 112 -13t51 -105q3 -15 3 -27q0 -55 -40 -74q-39 -19 -99 -19q-13 0 -27 1q-78 5 -104 71q-17 45 -17 366q0 147 3 354h126zM574 232
q72 14 112 -13t51 -105q3 -15 3 -27q0 -55 -40 -74q-39 -19 -99 -19q-13 0 -27 1q-78 5 -104 71q-17 45 -17 366q0 147 3 348l132 14zM659 119q0 14 -14 25q-14 10 -27 10q-17 0 -32 -17q-14 -16 -14 -28t12 -20q14 -11 29 -11q12 0 26 7q20 19 20 34z" />
    <glyph glyph-name="saraaethai" unicode="&#xe41;" horiz-adv-x="798" 
d="M303 135q0 14 -14 25q-14 10 -27 10q-17 0 -32 -17q-14 -16 -14 -28t12 -20q14 -11 29 -11q12 0 26 7q20 19 20 34zM218 248q72 14 112 -13t51 -105q3 -15 3 -27q0 -55 -40 -74q-39 -19 -99 -19q-13 0 -27 1q-78 5 -104 71q-17 45 -17 366q0 147 3 354h126zM574 232
q72 14 112 -13t51 -105q3 -15 3 -27q0 -55 -40 -74q-39 -19 -99 -19q-13 0 -27 1q-78 5 -104 71q-17 45 -17 366q0 147 3 348l132 14zM659 119q0 14 -14 25q-14 10 -27 10q-17 0 -32 -17q-14 -16 -14 -28t12 -20q14 -11 29 -11q12 0 26 7q20 19 20 34z" />
    <glyph glyph-name="saraothai" unicode="&#xe2;" horiz-adv-x="664" 
d="M515 133q0 14 -14 25q-14 10 -27 10q-17 0 -32 -17q-14 -16 -14 -28t12 -20q14 -11 29 -11q12 0 26 7q20 19 20 34zM388 210q60 58 123 37t87 -62t2 -96t-84 -73q-43 -12 -84 -12q-19 0 -37 2q-59 8 -85 49t-36 84t30 587l-380 36l-4 140q194 178 314 186q15 1 29 1
q105 0 202 -50q73 -51 165 43l70 -78q-140 -124 -245 -74t-199 46t-204 -126l368 -28z" />
    <glyph glyph-name="saraothai" unicode="&#xe42;" horiz-adv-x="664" 
d="M515 133q0 14 -14 25q-14 10 -27 10q-17 0 -32 -17q-14 -16 -14 -28t12 -20q14 -11 29 -11q12 0 26 7q20 19 20 34zM388 210q60 58 123 37t87 -62t2 -96t-84 -73q-43 -12 -84 -12q-19 0 -37 2q-59 8 -85 49t-36 84t30 587l-380 36l-4 140q194 178 314 186q15 1 29 1
q105 0 202 -50q73 -51 165 43l70 -78q-140 -124 -245 -74t-199 46t-204 -126l368 -28z" />
    <glyph glyph-name="saraaimaimuanthai" unicode="&#xe3;" horiz-adv-x="548" 
d="M411 125q0 14 -14 25q-14 10 -27 10q-17 0 -32 -17q-14 -16 -14 -28t12 -20q14 -11 29 -11q12 0 26 7q20 19 20 34zM304 198q44 46 96 30t75 -54q21 -35 21 -78v-7q-2 -47 -40 -67t-96 -22h-15q-48 0 -82 11q-39 13 -54 55t-21 292t32 307t84 103t7 101t-115 74t-102 -18
t-12 -88t41 -45t51 22l56 -82q-78 -48 -129 -48t-77 25t-46 90q-11 37 -11 71q0 25 6 48q15 54 53 82t91 39q18 4 40 4q42 0 98 -14q85 -21 136 -81t48 -114t-18 -89t-59 -68t-61 -97t3 -382z" />
    <glyph glyph-name="saraaimaimuanthai" unicode="&#xe43;" horiz-adv-x="548" 
d="M411 125q0 14 -14 25q-14 10 -27 10q-17 0 -32 -17q-14 -16 -14 -28t12 -20q14 -11 29 -11q12 0 26 7q20 19 20 34zM304 198q44 46 96 30t75 -54q21 -35 21 -78v-7q-2 -47 -40 -67t-96 -22h-15q-48 0 -82 11q-39 13 -54 55t-21 292t32 307t84 103t7 101t-115 74t-102 -18
t-12 -88t41 -45t51 22l56 -82q-78 -48 -129 -48t-77 25t-46 90q-11 37 -11 71q0 25 6 48q15 54 53 82t91 39q18 4 40 4q42 0 98 -14q85 -21 136 -81t48 -114t-18 -89t-59 -68t-61 -97t3 -382z" />
    <glyph glyph-name="saraaimaimalaithai" unicode="&#xe4;" horiz-adv-x="526" 
d="M399 131q0 14 -14 25q-14 10 -27 10q-17 0 -32 -17q-14 -16 -14 -28t12 -20q14 -11 29 -11q12 0 26 7q20 19 20 34zM312 240q42 8 80 -1t58 -35t25 -73q1 -9 1 -17q0 -36 -18 -65q-22 -35 -90 -45q-19 -2 -36 -2q-44 0 -75 18q-43 26 -57 82t56 790l-84 -144h-92
l-140 218l104 44l92 -160l100 166l140 -32z" />
    <glyph glyph-name="saraaimaimalaithai" unicode="&#xe44;" horiz-adv-x="526" 
d="M399 131q0 14 -14 25q-14 10 -27 10q-17 0 -32 -17q-14 -16 -14 -28t12 -20q14 -11 29 -11q12 0 26 7q20 19 20 34zM312 240q42 8 80 -1t58 -35t25 -73q1 -9 1 -17q0 -36 -18 -65q-22 -35 -90 -45q-19 -2 -36 -2q-44 0 -75 18q-43 26 -57 82t56 790l-84 -144h-92
l-140 218l104 44l92 -160l100 166l140 -32z" />
    <glyph glyph-name="lakkhangyaothai" unicode="&#xe5;" horiz-adv-x="734" 
d="M492 -180q52 636 17 751t-144 124t-142 -69t-25 -108l-132 6q22 196 109 242q71 38 160 38q20 0 40 -2q113 -10 182 -75t84 -176q8 -57 8 -201q0 -133 -27 -538z" />
    <glyph glyph-name="lakkhangyaothai" unicode="&#xe45;" horiz-adv-x="734" 
d="M492 -180q52 636 17 751t-144 124t-142 -69t-25 -108l-132 6q22 196 109 242q71 38 160 38q20 0 40 -2q113 -10 182 -75t84 -176q8 -57 8 -201q0 -133 -27 -538z" />
    <glyph glyph-name="maiyamokthai" unicode="&#xe6;" horiz-adv-x="660" 
d="M231 325q0 14 -14 25q-14 10 -27 10q-17 0 -32 -17q-14 -16 -14 -28t12 -20q14 -11 29 -11q12 0 26 7q20 19 20 34zM294 312q0 -64 -36 -87t-78 -22t-77 26t-40 59q-1 4 -1 9q0 32 30 82q34 57 107 63h7q91 0 158 -126l24 118l154 -14l6 -558q-182 -62 -180 -196l-94 32
q20 174 170 228l-2 408l-36 -134l-92 8q24 60 -20 104z" />
    <glyph glyph-name="maiyamokthai" unicode="&#xe46;" horiz-adv-x="660" 
d="M231 325q0 14 -14 25q-14 10 -27 10q-17 0 -32 -17q-14 -16 -14 -28t12 -20q14 -11 29 -11q12 0 26 7q20 19 20 34zM294 312q0 -64 -36 -87t-78 -22t-77 26t-40 59q-1 4 -1 9q0 32 30 82q34 57 107 63h7q91 0 158 -126l24 118l154 -14l6 -558q-182 -62 -180 -196l-94 32
q20 174 170 228l-2 408l-36 -134l-92 8q24 60 -20 104z" />
    <glyph glyph-name="maitaikhuthai" unicode="&#xe7;" 
d="M-182 1058q0 14 -14 25q-14 10 -27 10q-23 -1 -34 -18t1.5 -37.5t27.5 -20.5q12 0 26 7q20 19 20 34zM-297 1003q-43 52 -35.5 89.5t50 59t94 4t64 -70t-16.5 -102.5t-106 -50q-78 0 -121.5 31t-61.5 99q-37 -58 -20 -128l-92 3q-57 116 -57 186q0 22 6 40
q23 74 117 112.5t190 27.5t147.5 -21t68.5 65l113 -23q-43 -140 -131.5 -135t-162 22t-154 -1t-96.5 -72t14 -91q25 80 90 105q5 -78 100 -150z" />
    <glyph glyph-name="maitaikhuthai" unicode="&#xe47;" 
d="M-182 1058q0 14 -14 25q-14 10 -27 10q-23 -1 -34 -18t1.5 -37.5t27.5 -20.5q12 0 26 7q20 19 20 34zM-297 1003q-43 52 -35.5 89.5t50 59t94 4t64 -70t-16.5 -102.5t-106 -50q-78 0 -121.5 31t-61.5 99q-37 -58 -20 -128l-92 3q-57 116 -57 186q0 22 6 40
q23 74 117 112.5t190 27.5t147.5 -21t68.5 65l113 -23q-43 -140 -131.5 -135t-162 22t-154 -1t-96.5 -72t14 -91q25 80 90 105q5 -78 100 -150z" />
    <glyph glyph-name="maiekthai" unicode="&#xe8;" 
d="M-303 1259l5 183l118 -1l-8 -177z" />
    <glyph glyph-name="maiekthai" unicode="&#xe48;" 
d="M-303 1259l5 183l118 -1l-8 -177z" />
    <glyph glyph-name="maithothai" unicode="&#xe9;" 
d="M-344 1442q0 14 -14 25q-14 10 -27 10q-23 -1 -34 -18q-5 -8 -5 -17q0 -10 7 -20q12 -21 27 -21q12 0 26 7q20 19 20 34zM-340 1378q-58 -39 -94 -14q-36 24 -36 75v1q0 52 34 71q24 13 54 13q12 0 25 -2q45 -8 64 -53t15 -87t-52 -68q150 10 182 53t36 115l128 -2
q-43 -161 -113.5 -197.5t-141.5 -45.5t-126 -10h-8q-50 0 -95 11l10 76q66 0 85 14t33 50z" />
    <glyph glyph-name="maithothai" unicode="&#xe49;" 
d="M-344 1442q0 14 -14 25q-14 10 -27 10q-23 -1 -34 -18q-5 -8 -5 -17q0 -10 7 -20q12 -21 27 -21q12 0 26 7q20 19 20 34zM-340 1378q-58 -39 -94 -14q-36 24 -36 75v1q0 52 34 71q24 13 54 13q12 0 25 -2q45 -8 64 -53t15 -87t-52 -68q150 10 182 53t36 115l128 -2
q-43 -161 -113.5 -197.5t-141.5 -45.5t-126 -10h-8q-50 0 -95 11l10 76q66 0 85 14t33 50z" />
    <glyph glyph-name="maitrithai" unicode="&#xea;" 
d="M-410 1318q0 14 -14 25q-14 10 -27 10q-23 -1 -34 -18q-5 -8 -5 -17q0 -10 7 -20q12 -21 27 -21q12 0 26 7q20 19 20 34zM-478 1380q28 13 55.5 9.5t41 -27.5t9 -64.5t-46.5 -55.5q-24 -10 -45 -10q-16 0 -30 5q-31 19 -43 46.5t-17 85.5v16q0 47 25 84q30 42 78.5 51
t76 -17t37.5 -56q24 42 55.5 61t78.5 13.5t64.5 -55.5t0.5 -144q78 13 98.5 53.5t-20.5 142.5l104 29q20 -82 20 -139t-20 -86q-54 -89 -287 -76q34 97 27.5 140t-45 54t-77.5 -77q-33 58 -71.5 73.5t-56 -3.5t-12.5 -53z" />
    <glyph glyph-name="maitrithai" unicode="&#xe4a;" 
d="M-410 1318q0 14 -14 25q-14 10 -27 10q-23 -1 -34 -18q-5 -8 -5 -17q0 -10 7 -20q12 -21 27 -21q12 0 26 7q20 19 20 34zM-478 1380q28 13 55.5 9.5t41 -27.5t9 -64.5t-46.5 -55.5q-24 -10 -45 -10q-16 0 -30 5q-31 19 -43 46.5t-17 85.5v16q0 47 25 84q30 42 78.5 51
t76 -17t37.5 -56q24 42 55.5 61t78.5 13.5t64.5 -55.5t0.5 -144q78 13 98.5 53.5t-20.5 142.5l104 29q20 -82 20 -139t-20 -86q-54 -89 -287 -76q34 97 27.5 140t-45 54t-77.5 -77q-33 58 -71.5 73.5t-56 -3.5t-12.5 -53z" />
    <glyph glyph-name="maichattawathai" unicode="&#xeb;" 
d="M-312 1333l-128 -1l2 105l120 -1l10 146l127 -2l-4 -140l122 1l-2 -105l-123 1l2 -109l-130 4z" />
    <glyph glyph-name="maichattawathai" unicode="&#xe4b;" 
d="M-312 1333l-128 -1l2 105l120 -1l10 146l127 -2l-4 -140l122 1l-2 -105l-123 1l2 -109l-130 4z" />
    <glyph glyph-name="thanthakhatthai" unicode="&#xec;" horiz-adv-x="4" 
d="M-142 1266q0 14 -14 25q-14 10 -27 10q-23 -1 -34 -18q-5 -8 -5 -17q0 -10 7 -20q12 -21 27 -21q12 0 26 7q20 19 20 34zM-219 1334q41 18 70.5 13t43 -15.5t19 -61t-31.5 -76.5t-83 -26q-1 0 -2 1q-48 0 -73 25.5t-33 81.5q-3 16 -3 32q0 35 14 63q19 39 73.5 60.5
t106 23.5t87.5 56l95 -62q-61 -77 -115.5 -83.5t-91 3.5t-60 1t-16.5 -36z" />
    <glyph glyph-name="thanthakhatthai" unicode="&#xe4c;" horiz-adv-x="4" 
d="M-142 1266q0 14 -14 25q-14 10 -27 10q-23 -1 -34 -18q-5 -8 -5 -17q0 -10 7 -20q12 -21 27 -21q12 0 26 7q20 19 20 34zM-219 1334q41 18 70.5 13t43 -15.5t19 -61t-31.5 -76.5t-83 -26q-1 0 -2 1q-48 0 -73 25.5t-33 81.5q-3 16 -3 32q0 35 14 63q19 39 73.5 60.5
t106 23.5t87.5 56l95 -62q-61 -77 -115.5 -83.5t-91 3.5t-60 1t-16.5 -36z" />
    <glyph glyph-name="nikhahitthai" unicode="&#xed;" horiz-adv-x="1" 
d="M-164 1015q0 10 -10 18q-10 6 -19 6q-16 -1 -23 -12q-4 -5 -4 -12t5 -14q7 -15 19 -15q7 0 17 6q15 13 15 23zM-190 1085q8 0 16 -1q30 -7 46 -40q10 -20 10 -40q0 -13 -5 -27q-11 -34 -56 -40q-9 -2 -16 -2q-31 0 -49 20q-22 23 -24 51v8q0 22 9.5 35t28.5 24.5t40 11.5
z" />
    <glyph glyph-name="nikhahitthai" unicode="&#xe4d;" horiz-adv-x="1" 
d="M-164 1015q0 10 -10 18q-10 6 -19 6q-16 -1 -23 -12q-4 -5 -4 -12t5 -14q7 -15 19 -15q7 0 17 6q15 13 15 23zM-190 1085q8 0 16 -1q30 -7 46 -40q10 -20 10 -40q0 -13 -5 -27q-11 -34 -56 -40q-9 -2 -16 -2q-31 0 -49 20q-22 23 -24 51v8q0 22 9.5 35t28.5 24.5t40 11.5
z" />
    <glyph glyph-name="yamakkanthai" unicode="&#xee;" 
d="M-289 1205q-6 8 -20 9q-13 0 -21 -7q-10 -7 -11 -23t4 -23q6 -7 16 -7q14 0 23 7q7 5 12 16q4 20 -3 28zM-360 1222q43 50 87.5 22.5t35.5 -73.5q-6 -32 -30 -50q-9 -7 -21 -12q-43 -16 -80 17q-10 9 -18 19q-22 29 -30 70q-11 58 37 102l5 5q76 51 158 -28l-56 91l41 29
l100 -73l-45 96l45 28q79 -59 204 41l36 -54q-116 -81 -212 -61l48 -93l-51 -37l-93 68l60 -97l-40 -35q-92 105 -141.5 86.5t-39.5 -61.5z" />
    <glyph glyph-name="yamakkanthai" unicode="&#xe4e;" 
d="M-289 1205q-6 8 -20 9q-13 0 -21 -7q-10 -7 -11 -23t4 -23q6 -7 16 -7q14 0 23 7q7 5 12 16q4 20 -3 28zM-360 1222q43 50 87.5 22.5t35.5 -73.5q-6 -32 -30 -50q-9 -7 -21 -12q-43 -16 -80 17q-10 9 -18 19q-22 29 -30 70q-11 58 37 102l5 5q76 51 158 -28l-56 91l41 29
l100 -73l-45 96l45 28q79 -59 204 41l36 -54q-116 -81 -212 -61l48 -93l-51 -37l-93 68l60 -97l-40 -35q-92 105 -141.5 86.5t-39.5 -61.5z" />
    <glyph glyph-name="fongmanthai" unicode="&#xef;" horiz-adv-x="625" 
d="M263 355q-1 3 -1 8q0 19 17 40q14 17 34 17q10 0 21 -4q33 -12 42 -43q2 -7 2 -13q0 -22 -25 -37q-18 -12 -35 -12q-12 0 -24 7q-27 14 -31 37zM98 329q-4 12 -4 32q0 75 67 158q56 67 135 67q39 0 83 -16q130 -47 166 -170q8 -28 8 -51q0 -87 -99 -147q-71 -47 -138 -47
q-48 0 -95 28q-107 55 -123 146zM256 246q30 -17 60 -17q43 0 88 30q62 37 62 92q0 15 -5 33q-22 77 -105 107q-27 10 -52 10q-50 0 -85 -42q-43 -53 -43 -100q0 -13 3 -20q10 -58 77 -93z" />
    <glyph glyph-name="fongmanthai" unicode="&#xe4f;" horiz-adv-x="625" 
d="M263 355q-1 3 -1 8q0 19 17 40q14 17 34 17q10 0 21 -4q33 -12 42 -43q2 -7 2 -13q0 -22 -25 -37q-18 -12 -35 -12q-12 0 -24 7q-27 14 -31 37zM98 329q-4 12 -4 32q0 75 67 158q56 67 135 67q39 0 83 -16q130 -47 166 -170q8 -28 8 -51q0 -87 -99 -147q-71 -47 -138 -47
q-48 0 -95 28q-107 55 -123 146zM256 246q30 -17 60 -17q43 0 88 30q62 37 62 92q0 15 -5 33q-22 77 -105 107q-27 10 -52 10q-50 0 -85 -42q-43 -53 -43 -100q0 -13 3 -20q10 -58 77 -93z" />
    <glyph glyph-name="zerothai" unicode="&#xf0;" horiz-adv-x="798" 
d="M76 261q-6 17 -6 46q0 111 94 234q78 99 189 99q56 0 117 -23q183 -70 233 -251q11 -41 11 -76q0 -128 -139 -216q-100 -70 -194 -70q-67 0 -133 41q-150 82 -172 216zM296 142q43 -27 86 -27q61 0 125 46q89 56 89 139q0 23 -7 49q-32 117 -150 162q-39 15 -75 15
q-72 0 -122 -64q-61 -79 -61 -151q0 -19 4 -30q14 -87 111 -139z" />
    <glyph glyph-name="zerothai" unicode="&#xe50;" horiz-adv-x="798" 
d="M76 261q-6 17 -6 46q0 111 94 234q78 99 189 99q56 0 117 -23q183 -70 233 -251q11 -41 11 -76q0 -128 -139 -216q-100 -70 -194 -70q-67 0 -133 41q-150 82 -172 216zM296 142q43 -27 86 -27q61 0 125 46q89 56 89 139q0 23 -7 49q-32 117 -150 162q-39 15 -75 15
q-72 0 -122 -64q-61 -79 -61 -151q0 -19 4 -30q14 -87 111 -139z" />
    <glyph glyph-name="onethai" unicode="&#xf1;" horiz-adv-x="720" 
d="M254 318q12 -7 24 -7q17 0 35 12q25 15 25 37q0 6 -2 13q-9 31 -42 43q-11 4 -21 4q-20 0 -34 -17q-17 -21 -17 -40q0 -5 1 -8q4 -23 31 -37zM216 460q70 50 134 0t48 -119t-67 -91t-101 -12t-84 48t-43 116t34 147t125 85q32 6 67 6q55 0 117 -15q102 -25 150 -110
q31 -55 31 -135q0 -44 -9 -95q-26 -145 -107 -214t-196 -69t-231 46l30 108q118 -48 194 -48t131 53t76 135t-14 157t-111 83t-117 -4t-57 -72z" />
    <glyph glyph-name="onethai" unicode="&#xe51;" horiz-adv-x="720" 
d="M254 318q12 -7 24 -7q17 0 35 12q25 15 25 37q0 6 -2 13q-9 31 -42 43q-11 4 -21 4q-20 0 -34 -17q-17 -21 -17 -40q0 -5 1 -8q4 -23 31 -37zM216 460q70 50 134 0t48 -119t-67 -91t-101 -12t-84 48t-43 116t34 147t125 85q32 6 67 6q55 0 117 -15q102 -25 150 -110
q31 -55 31 -135q0 -44 -9 -95q-26 -145 -107 -214t-196 -69t-231 46l30 108q118 -48 194 -48t131 53t76 135t-14 157t-111 83t-117 -4t-57 -72z" />
    <glyph glyph-name="twothai" unicode="&#xf2;" horiz-adv-x="904" 
d="M414 295q10 -6 19 -6q14 0 29 10q20 12 20 30q0 5 -2 11q-7 25 -34 34q-9 4 -17 4q-16 0 -27 -14q-14 -17 -14 -32q0 -5 1 -7q3 -19 25 -30zM528 549q8 71 63 91.5t109.5 3t93.5 -80.5t39 -191q1 -12 1 -25q0 -120 -87 -347l-611 11q18 352 -45 472.5t-123 172.5l94 76
q73 -73 109 -137t67 -175t24 -299l392 -16q62 200 54.5 312t-65.5 134t-65 -83h-104q-26 76 -46.5 82.5t-43.5 -9t-19 -129.5q59 41 116 20t70 -70.5t-8.5 -92t-96.5 -52.5t-122 60t-40.5 198.5t46 153t106.5 15.5t92 -95z" />
    <glyph glyph-name="twothai" unicode="&#xe52;" horiz-adv-x="904" 
d="M414 295q10 -6 19 -6q14 0 29 10q20 12 20 30q0 5 -2 11q-7 25 -34 34q-9 4 -17 4q-16 0 -27 -14q-14 -17 -14 -32q0 -5 1 -7q3 -19 25 -30zM528 549q8 71 63 91.5t109.5 3t93.5 -80.5t39 -191q1 -12 1 -25q0 -120 -87 -347l-611 11q18 352 -45 472.5t-123 172.5l94 76
q73 -73 109 -137t67 -175t24 -299l392 -16q62 200 54.5 312t-65.5 134t-65 -83h-104q-26 76 -46.5 82.5t-43.5 -9t-19 -129.5q59 41 116 20t70 -70.5t-8.5 -92t-96.5 -52.5t-122 60t-40.5 198.5t46 153t106.5 15.5t92 -95z" />
    <glyph glyph-name="threethai" unicode="&#xf3;" horiz-adv-x="856" 
d="M284 91q10 -6 19 -6q14 0 29 10q20 12 20 30q0 5 -2 11q-7 25 -34 34q-9 4 -17 4q-16 0 -27 -14q-14 -17 -14 -32q0 -5 1 -7q3 -19 25 -30zM86 253q-10 48 -10 96q0 59 15 120q29 111 101 145q51 24 86 28q22 0 44 -4q62 -16 92 -148q0 128 133 157q16 0 35 -2
q82 -7 140 -84q53 -70 53 -199q0 -13 -1 -27q-6 -149 -112 -343l-112 64q76 92 95 183t16 159t-54 114t-88 30t-51 -200h-96q6 88 -14 132t-61 52t-78 -39t-43 -127t38 -168q18 28 65 36t89 -13t43 -76t-21 -96t-105 -40t-129 73t-70 177z" />
    <glyph glyph-name="threethai" unicode="&#xe53;" horiz-adv-x="856" 
d="M284 91q10 -6 19 -6q14 0 29 10q20 12 20 30q0 5 -2 11q-7 25 -34 34q-9 4 -17 4q-16 0 -27 -14q-14 -17 -14 -32q0 -5 1 -7q3 -19 25 -30zM86 253q-10 48 -10 96q0 59 15 120q29 111 101 145q51 24 86 28q22 0 44 -4q62 -16 92 -148q0 128 133 157q16 0 35 -2
q82 -7 140 -84q53 -70 53 -199q0 -13 -1 -27q-6 -149 -112 -343l-112 64q76 92 95 183t16 159t-54 114t-88 30t-51 -200h-96q6 88 -14 132t-61 52t-78 -39t-43 -127t38 -168q18 28 65 36t89 -13t43 -76t-21 -96t-105 -40t-129 73t-70 177z" />
    <glyph glyph-name="fourthai" unicode="&#xf4;" horiz-adv-x="912" 
d="M464 276q8 -5 16 -5q11 0 24 9q16 11 16 28q0 5 -1 10q-6 24 -29 32q-7 4 -14 4q-13 0 -22 -13q-12 -16 -12 -30q0 -5 1 -7q3 -17 21 -28zM843 121l-19 -117q-163 15 -324 -1q-42 -4 -79 -4q-106 0 -175 33q-93 44 -135 159q-26 71 -26 139q0 41 10 80q24 106 89.5 162.5
t171.5 62t195.5 -14t121 -13t63.5 176.5l114 -4q-38 -206 -71.5 -252t-119.5 -38.5t-170.5 29t-165.5 -3.5t-104 -126.5t5 -168t89 -97t239 -23.5q-153 79 -169.5 124.5t-14 95.5t46.5 79t94.5 11.5t63.5 -49.5t-6 -81t-92 -44q42 -44 137 -69.5t231 -45.5z" />
    <glyph glyph-name="fourthai" unicode="&#xe54;" horiz-adv-x="912" 
d="M464 276q8 -5 16 -5q11 0 24 9q16 11 16 28q0 5 -1 10q-6 24 -29 32q-7 4 -14 4q-13 0 -22 -13q-12 -16 -12 -30q0 -5 1 -7q3 -17 21 -28zM843 121l-19 -117q-163 15 -324 -1q-42 -4 -79 -4q-106 0 -175 33q-93 44 -135 159q-26 71 -26 139q0 41 10 80q24 106 89.5 162.5
t171.5 62t195.5 -14t121 -13t63.5 176.5l114 -4q-38 -206 -71.5 -252t-119.5 -38.5t-170.5 29t-165.5 -3.5t-104 -126.5t5 -168t89 -97t239 -23.5q-153 79 -169.5 124.5t-14 95.5t46.5 79t94.5 11.5t63.5 -49.5t-6 -81t-92 -44q42 -44 137 -69.5t231 -45.5z" />
    <glyph glyph-name="fivethai" unicode="&#xf5;" horiz-adv-x="896" 
d="M448 278q8 -5 16 -5q11 0 24 9q16 11 16 28q0 5 -1 10q-6 24 -29 32q-7 4 -14 4q-13 0 -22 -13q-12 -16 -12 -30q0 -5 1 -7q3 -17 21 -28zM827 123l-19 -117q-163 15 -324 -1q-42 -4 -79 -4q-106 0 -175 33q-93 44 -135 159q-26 71 -26 139q0 41 10 80q24 106 89.5 162.5
t171.5 62.5q-30 29 -10 97q17 59 89 59q11 0 24 -1q92 -11 102 -72.5t-34 -91.5q114 -25 145.5 -18.5t63.5 176.5l114 -4q-38 -206 -71.5 -252t-119.5 -38.5t-170.5 29t-165.5 -3.5t-104 -126.5t5 -168t89 -97t239 -23.5q-153 79 -169.5 124.5t-14 95.5t46.5 79t94.5 11.5
t63.5 -49.5t-6 -81t-92 -44q42 -44 137 -69.5t231 -45.5zM414 648q8 -5 16 -5q11 0 24 9q16 11 16 28q0 5 -1 10q-6 24 -29 32q-7 4 -14 4q-13 0 -22 -13q-12 -16 -12 -30q0 -5 1 -7q3 -17 21 -28z" />
    <glyph glyph-name="fivethai" unicode="&#xe55;" horiz-adv-x="896" 
d="M448 278q8 -5 16 -5q11 0 24 9q16 11 16 28q0 5 -1 10q-6 24 -29 32q-7 4 -14 4q-13 0 -22 -13q-12 -16 -12 -30q0 -5 1 -7q3 -17 21 -28zM827 123l-19 -117q-163 15 -324 -1q-42 -4 -79 -4q-106 0 -175 33q-93 44 -135 159q-26 71 -26 139q0 41 10 80q24 106 89.5 162.5
t171.5 62.5q-30 29 -10 97q17 59 89 59q11 0 24 -1q92 -11 102 -72.5t-34 -91.5q114 -25 145.5 -18.5t63.5 176.5l114 -4q-38 -206 -71.5 -252t-119.5 -38.5t-170.5 29t-165.5 -3.5t-104 -126.5t5 -168t89 -97t239 -23.5q-153 79 -169.5 124.5t-14 95.5t46.5 79t94.5 11.5
t63.5 -49.5t-6 -81t-92 -44q42 -44 137 -69.5t231 -45.5zM414 648q8 -5 16 -5q11 0 24 9q16 11 16 28q0 5 -1 10q-6 24 -29 32q-7 4 -14 4q-13 0 -22 -13q-12 -16 -12 -30q0 -5 1 -7q3 -17 21 -28z" />
    <glyph glyph-name="sixthai" unicode="&#xf6;" horiz-adv-x="826" 
d="M273 208q10 -58 43 -76.5t67.5 -28.5t97.5 -6t105.5 61t47.5 120t-20.5 119.5t-87 86t-131.5 19.5t-116 -74l-119 19q-8 60 -31 116.5t-107 153.5l90 63q102 -95 130 -227q109 84 231 56t188 -90.5t80 -171.5q3 -21 3 -42q0 -90 -49 -185q-61 -118 -186 -124
q-14 -1 -28 -1q-108 0 -190 46q-92 51 -100.5 120.5t4.5 128t64 72.5t109 -10t58 -69.5t-20.5 -74.5t-57 -36.5t-75.5 35.5zM314 226q8 -5 16 -5q11 0 24 9q16 11 16 28q0 5 -1 10q-6 24 -29 32q-7 4 -14 4q-13 0 -22 -13q-12 -16 -12 -30q0 -5 1 -7q3 -17 21 -28z" />
    <glyph glyph-name="sixthai" unicode="&#xe56;" horiz-adv-x="826" 
d="M273 208q10 -58 43 -76.5t67.5 -28.5t97.5 -6t105.5 61t47.5 120t-20.5 119.5t-87 86t-131.5 19.5t-116 -74l-119 19q-8 60 -31 116.5t-107 153.5l90 63q102 -95 130 -227q109 84 231 56t188 -90.5t80 -171.5q3 -21 3 -42q0 -90 -49 -185q-61 -118 -186 -124
q-14 -1 -28 -1q-108 0 -190 46q-92 51 -100.5 120.5t4.5 128t64 72.5t109 -10t58 -69.5t-20.5 -74.5t-57 -36.5t-75.5 35.5zM314 226q8 -5 16 -5q11 0 24 9q16 11 16 28q0 5 -1 10q-6 24 -29 32q-7 4 -14 4q-13 0 -22 -13q-12 -16 -12 -30q0 -5 1 -7q3 -17 21 -28z" />
    <glyph glyph-name="seventhai" unicode="&#xf7;" horiz-adv-x="1066" 
d="M272 93q10 -6 19 -6q14 0 29 10q20 12 20 30q0 5 -2 11q-7 25 -34 34q-9 4 -17 4q-16 0 -27 -14q-14 -17 -14 -32q0 -5 1 -7q3 -19 25 -30zM74 255q-10 48 -10 96q0 59 15 120q29 111 101 145q51 24 86 28q22 0 44 -4q62 -16 92 -148q28 140 91.5 150.5t125 -5t103 -80
t41.5 -193.5q0 -13 -1 -27q6 -141 -20 -235q125 72 145.5 219t-51.5 320l122 32q48 -144 48 -267q0 -109 -37 -202q-80 -200 -245 -210l-122 36q48 126 49 214t-2 156t-54 114t-88 30t-75 -204h-48q-6 70 -32 125t-67 63t-78 -39t-43 -127t38 -168q18 28 65 36t89 -13
t43 -76t-21 -96t-105 -40t-129 73t-70 177z" />
    <glyph glyph-name="seventhai" unicode="&#xe57;" horiz-adv-x="1066" 
d="M272 93q10 -6 19 -6q14 0 29 10q20 12 20 30q0 5 -2 11q-7 25 -34 34q-9 4 -17 4q-16 0 -27 -14q-14 -17 -14 -32q0 -5 1 -7q3 -19 25 -30zM74 255q-10 48 -10 96q0 59 15 120q29 111 101 145q51 24 86 28q22 0 44 -4q62 -16 92 -148q28 140 91.5 150.5t125 -5t103 -80
t41.5 -193.5q0 -13 -1 -27q6 -141 -20 -235q125 72 145.5 219t-51.5 320l122 32q48 -144 48 -267q0 -109 -37 -202q-80 -200 -245 -210l-122 36q48 126 49 214t-2 156t-54 114t-88 30t-75 -204h-48q-6 70 -32 125t-67 63t-78 -39t-43 -127t38 -168q18 28 65 36t89 -13
t43 -76t-21 -96t-105 -40t-129 73t-70 177z" />
    <glyph glyph-name="eightthai" unicode="&#xf8;" horiz-adv-x="922" 
d="M656 237q10 -6 19 -6q14 0 29 10q20 12 20 30q0 5 -2 11q-7 25 -34 34q-9 4 -17 4q-16 0 -27 -14q-14 -17 -14 -32q0 -5 1 -7q3 -19 25 -30zM694 174q-96 -14 -123 30t-18 103t56 78t121 6t99 -67t8 -125t-69 -116t-142 -69q-55 -15 -104 -15q-31 0 -59 6
q-73 15 -121 167q-28 -58 -30 -164l-158 -6q-89 177 -89 300q0 15 1 29q12 131 71 188t163 85t214 5t208 6t12 143l112 26q36 -65 36 -127q0 -17 -3 -34q-13 -77 -99 -113t-209 -17t-228 9t-144 -123t27 -255q24 92 112 180h57q13 -128 56 -167t113 -30t130 67z" />
    <glyph glyph-name="eightthai" unicode="&#xe58;" horiz-adv-x="922" 
d="M656 237q10 -6 19 -6q14 0 29 10q20 12 20 30q0 5 -2 11q-7 25 -34 34q-9 4 -17 4q-16 0 -27 -14q-14 -17 -14 -32q0 -5 1 -7q3 -19 25 -30zM694 174q-96 -14 -123 30t-18 103t56 78t121 6t99 -67t8 -125t-69 -116t-142 -69q-55 -15 -104 -15q-31 0 -59 6
q-73 15 -121 167q-28 -58 -30 -164l-158 -6q-89 177 -89 300q0 15 1 29q12 131 71 188t163 85t214 5t208 6t12 143l112 26q36 -65 36 -127q0 -17 -3 -34q-13 -77 -99 -113t-209 -17t-228 9t-144 -123t27 -255q24 92 112 180h57q13 -128 56 -167t113 -30t130 67z" />
    <glyph glyph-name="ninethai" unicode="&#xf9;" horiz-adv-x="990" 
d="M362 83q10 -6 18 -6q14 0 29 10q19 11 19 29q0 5 -2 10q-7 25 -33 34q-9 3 -17 3q-15 0 -26 -13q-13 -17 -13 -31q0 -5 1 -7q2 -19 24 -29zM453 20q-37 -17 -111 -17h-23q-91 3 -172 112q-72 97 -72 192q0 11 1 23q10 106 103 191.5t307 24.5q-7 103 45.5 145t123.5 34.5
t98 -60t71.5 -27.5t19.5 111l107 21q5 -39 5 -73q0 -52 -13 -91q-21 -63 -110.5 -79t-125.5 40.5t-78.5 35t-35.5 -110.5q216 -229 280 -472l-142 -12q-39 194 -112.5 276t-138 122.5t-140 46.5t-120.5 -53.5t-34 -128.5t94 -137q29 113 114 105t103.5 -62t8.5 -96t-53 -61z
" />
    <glyph glyph-name="ninethai" unicode="&#xe59;" horiz-adv-x="990" 
d="M362 83q10 -6 18 -6q14 0 29 10q19 11 19 29q0 5 -2 10q-7 25 -33 34q-9 3 -17 3q-15 0 -26 -13q-13 -17 -13 -31q0 -5 1 -7q2 -19 24 -29zM453 20q-37 -17 -111 -17h-23q-91 3 -172 112q-72 97 -72 192q0 11 1 23q10 106 103 191.5t307 24.5q-7 103 45.5 145t123.5 34.5
t98 -60t71.5 -27.5t19.5 111l107 21q5 -39 5 -73q0 -52 -13 -91q-21 -63 -110.5 -79t-125.5 40.5t-78.5 35t-35.5 -110.5q216 -229 280 -472l-142 -12q-39 194 -112.5 276t-138 122.5t-140 46.5t-120.5 -53.5t-34 -128.5t94 -137q29 113 114 105t103.5 -62t8.5 -96t-53 -61z
" />
    <glyph glyph-name="angkhankhuthai" unicode="&#xfa;" horiz-adv-x="700" 
d="M224 409q0 15 -16 28q-15 11 -30 11q-19 0 -35 -19q-16 -18 -16 -31q0 -14 13 -23q16 -12 33 -12q13 0 29 8q22 21 22 38zM375 492l93 -4l-34 -480l-90 4l24 355q-112 -78 -192 -72.5t-98 36.5q-17 27 -17 77v5q1 53 55 79q30 16 63 16q25 0 51 -9q60 -20 49 -112
q91 52 96 105zM502 484l-32 -478l108 -2l34 476z" />
    <glyph glyph-name="angkhankhuthai" unicode="&#xe5a;" horiz-adv-x="700" 
d="M224 409q0 15 -16 28q-15 11 -30 11q-19 0 -35 -19q-16 -18 -16 -31q0 -14 13 -23q16 -12 33 -12q13 0 29 8q22 21 22 38zM375 492l93 -4l-34 -480l-90 4l24 355q-112 -78 -192 -72.5t-98 36.5q-17 27 -17 77v5q1 53 55 79q30 16 63 16q25 0 51 -9q60 -20 49 -112
q91 52 96 105zM502 484l-32 -478l108 -2l34 476z" />
    <glyph glyph-name="khomutthai" unicode="&#xfb;" horiz-adv-x="1032" 
d="M250 269q0 15 -16 28q-15 11 -30 11q-19 0 -35 -19q-16 -18 -16 -31q0 -14 13 -23q16 -12 33 -12q13 0 29 8q22 21 22 38zM182 352q96 22 123 -51t-25 -120q-37 -34 -81 -34q-17 0 -36 5q-65 19 -79 92q-4 19 -4 38q0 55 29 113q39 79 137 89q5 1 10 1q137 -6 162 -175
l16 160l76 -2l52 -178l34 156l80 -6q38 -142 278 -134l-6 -98q-212 6 -308 118l-28 -156l-94 2l-48 164l-18 -170l-80 -6q-12 210 -88 232t-102 -40z" />
    <glyph glyph-name="khomutthai" unicode="&#xe5b;" horiz-adv-x="1032" 
d="M250 269q0 15 -16 28q-15 11 -30 11q-19 0 -35 -19q-16 -18 -16 -31q0 -14 13 -23q16 -12 33 -12q13 0 29 8q22 21 22 38zM182 352q96 22 123 -51t-25 -120q-37 -34 -81 -34q-17 0 -36 5q-65 19 -79 92q-4 19 -4 38q0 55 29 113q39 79 137 89q5 1 10 1q137 -6 162 -175
l16 160l76 -2l52 -178l34 156l80 -6q38 -142 278 -134l-6 -98q-212 6 -308 118l-28 -156l-94 2l-48 164l-18 -170l-80 -6q-12 210 -88 232t-102 -40z" />
    <glyph glyph-name="saraulowthai" unicode="&#xfc;" horiz-adv-x="2" 
d="M-259 -399q0 14 -14 25q-14 10 -27 10q-17 0 -32 -17q-14 -16 -14 -28t12 -20q14 -11 29 -11q12 0 26 7q20 19 20 34zM-262 -484q-72 -26 -104 -12t-42 55q-4 18 -4 36q0 22 7 43q13 38 47 53q26 12 63 12q12 0 25 -2q54 -5 78 -47q23 -38 23 -225q0 -16 -1 -33l-94 -4z
" />
    <glyph glyph-name="saraulowthai" unicode="&#xf718;" horiz-adv-x="2" 
d="M-259 -399q0 14 -14 25q-14 10 -27 10q-17 0 -32 -17q-14 -16 -14 -28t12 -20q14 -11 29 -11q12 0 26 7q20 19 20 34zM-262 -484q-72 -26 -104 -12t-42 55q-4 18 -4 36q0 22 7 43q13 38 47 53q26 12 63 12q12 0 25 -2q54 -5 78 -47q23 -38 23 -225q0 -16 -1 -33l-94 -4z
" />
    <glyph glyph-name="sarauulowthai" unicode="&#xfd;" horiz-adv-x="2" 
d="M-431 -399q0 14 -14 25q-14 10 -27 10q-17 0 -32 -17q-14 -16 -14 -28t12 -20q14 -11 29 -11q12 0 26 7q20 19 20 34zM-434 -484q-72 -26 -104 -12t-42 55q-4 18 -4 36q0 22 7 43q13 38 47 53q26 12 63 12q12 0 25 -2q54 -5 78 -47t16 -182l103 6l-2 206l114 -1l-1 -290
l-302 -1z" />
    <glyph glyph-name="sarauulowthai" unicode="&#xf719;" horiz-adv-x="2" 
d="M-431 -399q0 14 -14 25q-14 10 -27 10q-17 0 -32 -17q-14 -16 -14 -28t12 -20q14 -11 29 -11q12 0 26 7q20 19 20 34zM-434 -484q-72 -26 -104 -12t-42 55q-4 18 -4 36q0 22 7 43q13 38 47 53q26 12 63 12q12 0 25 -2q54 -5 78 -47t16 -182l103 6l-2 206l114 -1l-1 -290
l-302 -1z" />
    <glyph glyph-name="phinthulowthai" unicode="&#xfe;" 
d="M-120 -426q0 -26 -35 -60q-25 -13 -46 -13q-26 0 -51 20q-22 14 -22 36q0 21 25 49q27 30 57 30q23 0 48 -17q24 -20 24 -45z" />
    <glyph glyph-name="phinthulowthai" unicode="&#xf71a;" 
d="M-120 -426q0 -26 -35 -60q-25 -13 -46 -13q-26 0 -51 20q-22 14 -22 36q0 21 25 49q27 30 57 30q23 0 48 -17q24 -20 24 -45z" />
    <glyph glyph-name="Naipol" unicode="&#xff;" horiz-adv-x="1620" 
d="M733 689q-3 20 6 33.5t21.5 19.5t29 0t28.5 -21q9 -59 2.5 -114t-10.5 -113q2 1 3.5 2t3.5 2q5 1 9 1q75 39 151 72.5t152 71.5l97 50t95 45.5t98.5 37t106.5 24.5q23 0 35.5 -11t15.5 -27t-7 -30.5t-33 -21.5q-83 -2 -160 -22t-147 -50.5t-137.5 -71l-135.5 -82.5
q6 1 14.5 1t14.5 1q78 7 154.5 18t154.5 21q12 13 28 15.5t31 -8.5q9 0 14 2q23 0 36 -10.5t17 -25t-4 -29.5t-27 -22v-4q-11 -54 -53.5 -91t-97 -60t-114 -35.5t-105.5 -15.5q-24 -3 -49 4t-51 11q-34 9 -66 33.5t-58 50.5l-11 8q-3 0 -5 1q-7 3 -9 4l-8 3
q-8 -21 -13.5 -37.5t-16 -33t-27.5 -32.5l-42 -39q-33 -31 -75 -44t-87 -16.5t-91 1t-87 11.5q-28 4 -54.5 21t-51.5 28q-26 15 -44 39l-36 47q-11 11 -16.5 26t-8.5 30t-5 32t-8 32q-1 21 7.5 35.5t23 19.5t29 0t24.5 -22q58 -2 118 -6t120 0q84 4 167 12q-23 15 -43.5 31
t-43.5 31q-41 30 -83.5 57.5l-86.5 54.5q-43 26 -84 45t-88 34q-19 8 -35.5 14t-32.5 22h-1q-18 18 -10 39q5 25 34 36q1 0 2.5 1t2.5 1q17 0 28.5 -6.5t17.5 -19.5q14 -6 34.5 -18.5t40.5 -22.5t35 -18.5t16 -8.5l161.5 -114.5t168.5 -109.5q-1 21 -1.5 42t-8.5 45
q-5 17 -8 32q-6 14 -10 26v-1q0 -3 -1.5 0t-3.5 6q-13 10 -15 19.5t-7 23.5q5 21 16 32t25 12t26 -6t19 -20q1 2 2.5 0t3 -8.5t3.5 -13.5t2 -10q3 -19 4 -37t1 -37q-1 -36 4 -68t16 -64h1q6 0 8 -9q7 0 10 2q16 14 33 12q9 25 15 49t6 48.5t-6.5 50t-22.5 55.5zM595 404
q-22 -1 -46 -1.5t-49 -5.5q17 -16 10 -40t-54 -45q-9 -7 -22 -9h-3q0 2 -2 2l1 1q-6 0 -11.5 1t-15.5 3q-9 10 -12 17t-6 20v2q4 27 22 36l5 5q-54 -7 -106.5 -12.5t-107.5 -10.5q3 -18 9 -30q22 -58 73.5 -91.5t113.5 -43t124 6t105 53.5q34 31 44.5 56t14.5 56q-4 2 -9 3
t-10 3l-7.5 14.5t-7.5 11.5q-13 0 -26 -1t-27 -1zM1304 448q-59 1 -115.5 -1.5t-113.5 -7.5q12 -27 -3 -46t-38 -25.5t-48.5 2t-31.5 37.5q-4 8 -4 13q-25 -5 -50.5 -11t-48.5 -13q5 -11 10.5 -18.5t10.5 -10.5l37.5 -31t30.5 -21t34 -14t45 -7q45 -5 91 7q18 4 51 18.5
t66.5 34.5t56 45.5t20.5 48.5z" />
    <glyph glyph-name="lochula.short" horiz-adv-x="912" 
d="M221 695q0 14 -14 25q-14 10 -27 10q-17 0 -32 -17q-14 -16 -14 -28t12 -20q14 -11 29 -11q12 0 26 7q20 19 20 34zM216 592q-56 -12 -102 5t-58 62q-3 14 -3 28q0 30 17 58q26 41 77 51q13 3 26 3q38 0 75 -22q50 -29 73 -85t-3 -528l116 216h118l76 -238l18 432
q-94 -4 -151 42t-28 119q28 71 136 71h14q73 0 106 -37q35 -39 31 -105q66 10 128 44l26 -90q-84 -36 -150 -36l-10 -576l-194 -2l-70 264l-154 -274l-144 12zM604 735q-20 0 -38 -16q-16 -16 -16 -27q0 -12 14 -19q23 -17 77 -10q7 82 -37 72z" />
    <glyph glyph-name="saraamleft" horiz-adv-x="724" 
d="M492 6q32 440 -3 555t-144 124t-142 -69t-25 -108l-132 6q22 196 109 242q71 38 160 38q20 0 40 -2q113 -10 182 -75t84 -176q8 -57 8 -201q0 -133 -7 -342zM-414 952q0 14 -14 25q-14 10 -27 10q-17 0 -32 -17q-14 -16 -14 -28t12 -20q14 -11 29 -11q12 0 26 7
q20 19 20 34zM-387 859q-40 -20 -74 -20q-42 0 -82 31q-34 23 -34 57t40 79q42 48 91 48q36 0 76 -28q39 -31 39 -71q0 -42 -56 -96z" />
    <glyph glyph-name="uni25CC" unicode="&#x25cc;" horiz-adv-x="1256" 
d="M393 258l-144 -49l51 146q38 -57 93 -97zM558 977l69 137l69 -136q-33 5 -65 5q-37 0 -73 -6zM690 186l-63 -127l-63 127q33 -5 67 -5q31 0 59 5zM1026 651l130 -67l-128 -61q4 29 4 59q0 35 -6 69zM236 519l-136 70l137 66q-6 -37 -6 -73q0 -33 5 -63zM309 822l-42 142
l139 -49q-58 -37 -97 -93zM951 337l36 -128l-125 44q52 35 89 84zM858 914l148 50l-50 -145q-41 57 -98 95z" />
    <glyph glyph-name="yamakkanleftthai" 
d="M-565 1209q-6 8 -20 9q-13 0 -21 -7q-10 -7 -11 -23t4 -23q6 -7 16 -7q14 0 23 7q7 5 12 16q4 20 -3 28zM-636 1226q43 50 87.5 22.5t35.5 -73.5q-6 -32 -30 -50q-9 -7 -21 -12q-43 -16 -80 17q-10 9 -18 19q-22 29 -30 70q-11 58 37 102l5 5q76 51 158 -28l-56 91l41 29
l100 -73l-45 96l45 28q79 -59 204 41l36 -54q-116 -81 -212 -61l48 -93l-51 -37l-93 68l60 -97l-40 -35q-92 105 -141.5 86.5t-39.5 -61.5z" />
    <glyph glyph-name="ZWSP" unicode="&#x200b;" 
 />
    </font>
</defs>
</svg>
